SplineFontDB: 3.0
FontName: BohesionOne
FullName: Bohesion One
FamilyName: Bohesion One
Weight: Book
Copyright: Copyright (c) 2011 by vernon adams. All rights reserved.
Version: 0.000
ItalicAngle: 0
UnderlinePosition: 0
UnderlineWidth: 0
Ascent: 1638
Descent: 410
sfntRevision: 0x00000000
LayerCount: 2
Layer: 0 0 "Back"  1
Layer: 1 0 "Fore"  0
NeedsXUIDChange: 1
XUID: [1021 713 972677256 14346395]
FSType: 0
OS2Version: 2
OS2_WeightWidthSlopeOnly: 0
OS2_UseTypoMetrics: 1
CreationTime: 1304777160
ModificationTime: 1306066204
PfmFamily: 17
TTFWeight: 400
TTFWidth: 5
LineGap: 0
VLineGap: 0
Panose: 2 0 5 5 0 0 0 2 0 4
OS2TypoAscent: 726
OS2TypoAOffset: 1
OS2TypoDescent: -326
OS2TypoDOffset: 1
OS2TypoLinegap: 0
OS2WinAscent: 0
OS2WinAOffset: 1
OS2WinDescent: 650
OS2WinDOffset: 1
HheadAscent: 0
HheadAOffset: 1
HheadDescent: 85
HheadDOffset: 1
OS2SubXSize: 0
OS2SubYSize: 0
OS2SubXOff: 0
OS2SubYOff: 0
OS2SupXSize: 0
OS2SupYSize: 0
OS2SupXOff: 0
OS2SupYOff: 0
OS2StrikeYSize: 0
OS2StrikeYPos: 0
OS2Vendor: 'newt'
OS2CodePages: 00000001.00000000
OS2UnicodeRanges: 80000003.08000000.14000000.00000000
MarkAttachClasses: 1
DEI: 91125
ShortTable: maxp 16
  1
  0
  99
  112
  5
  0
  0
  1
  0
  0
  0
  0
  0
  0
  0
  0
EndShort
LangName: 1033 "" "" "Regular" "vernonadams: Bohesion One: 2011" "" "Version 0.000" "" "Bohesion One is a trademark of vernon adams." "vernon adams" "vernon adams" "Copyright (c) 2011 by vernon adams. All rights reserved." "" "" "" "" "" "" "" "Bohesion One" 
GaspTable: 3 8 2 16 1 65535 3
Encoding: UnicodeBmp
Compacted: 1
UnicodeInterp: none
NameList: Adobe Glyph List
DisplaySize: -72
AntiAlias: 1
FitToEm: 1
WinInfo: 0 18 7
BeginPrivate: 0
EndPrivate
BeginChars: 65540 99

StartChar: .notdef
Encoding: 65536 -1 0
Width: 1024
Flags: HW
LayerCount: 2
Fore
SplineSet
77 -51 m 1
 77 2137 l 1
 947 2137 l 1
 947 -51 l 1
 77 -51 l 1
307 179 m 1
 717 179 l 1
 717 1907 l 1
 307 1907 l 1
 307 179 l 1
EndSplineSet
EndChar

StartChar: exclam
Encoding: 33 33 4
Width: 954
Flags: HW
LayerCount: 2
Fore
SplineSet
547.674228536 417.393828288 m 2
 512.836135964 421.748589859 484.268828721 432.251713706 461.442205127 436.056150971 c 1
 115.960227652 524.825825739 l 1
 136.36037994 578.206224226 l 2
 218.475041702 793.072922504 296.130066107 1009.53498253 362.770668578 1241.34418156 c 1
 388.487707208 1342.23410234 l 1
 436.928443981 1544.63131028 486.109155653 1745.08885937 544.688939521 1967.01611749 c 2
 557.415081716 2015.22861773 l 1
 605.902020576 2003.5917524 l 2
 733.031882182 1973.08058562 911.875062629 1980.87104397 1060.40166696 1949.92800141 c 2
 1109.07042613 1939.78867658 l 1
 1100.17736542 1890.87684265 l 2
 1091.27863291 1841.93381387 1071.65975254 1775.16709354 1041.21402206 1686.87447515 c 0
 1010.79023649 1598.64549699 967.87069045 1487.3988288 913.30031717 1354.92565638 c 1
 792.493500231 1048.59219052 689.760984796 766.486509272 603.142780561 454.362290562 c 2
 591.367900496 411.932119293 l 1
 547.674228536 417.393828288 l 2
489 -44 m 0
 489 -124.115295217 450.242073178 -223 340 -223 c 0
 262.734056132 -223 204.363198418 -185.318868476 157.612345505 -154.084104748 c 1
 55.1787657389 -138.717636366 -20.0115661288 -73.2683394844 -56.8237521765 6.66669307653 c 0
 -71.8677514986 39.333663033 -79.0000000001 75.3494998515 -79 113 c 0
 -79 193.899494052 -37.756415326 261.137395712 28.2093043806 312.797296686 c 1
 70.5175365064 332.384441189 115.950102171 345.000000001 161 345 c 0
 278.184936421 345 357.574942695 270.377003292 403.833846472 206.374958341 c 0
 448.511911889 144.560100707 489 55.2545713184 489 -44 c 0
EndSplineSet
EndChar

StartChar: quotedbl
Encoding: 34 34 5
Width: 1320
Flags: HW
LayerCount: 2
Fore
SplineSet
972.309374625 842.55531215 m 1
 676.470898565 905.520933744 l 1
 650.457366782 824.478777036 l 1
 242.286626822 911.760570487 l 1
 331.029441783 1721.82318911 l 1
 644.201668394 1677.79897834 l 1
 651.193974481 1739.73083225 l 1
 1237.31067099 1658.11964666 l 1
 972.309374625 842.55531215 l 1
EndSplineSet
EndChar

StartChar: numbersign
Encoding: 35 35 6
Width: 1528
Flags: HW
LayerCount: 2
Fore
SplineSet
823.42853295 658.971597213 m 1
 739.435377608 685.413886857 l 1
 782.142086998 526.788966267 l 1
 793.69986488 513.690151334 l 1
 795.719846071 513.199809723 l 1
 823.42853295 658.971597213 l 1
1287.61565165 -8.3060901155 m 2
 1237.79510071 -0.00266495947619 1185.87150868 6.8815078686 1134.76833152 15.3155049084 c 1
 1127.33989086 -24.3403838642 1122.17681161 -70.0287543941 1114.38861372 -119.873220895 c 2
 1107.81667153 -161.933650918 l 1
 1065.25887557 -162.984460694 l 2
 941.861220528 -166.031316374 824.419827955 -167.744921562 698.909539317 -174.916938056 c 2
 625.98853696 -179.083852476 l 1
 647.197420337 -109.190941344 l 2
 668.500822322 -38.9865484392 685.97172243 23.4430430896 699.2124352 76.2479083923 c 1
 661.850480044 80.6096399471 626.183362808 84.3974228591 590.035776618 87.5525417911 c 1
 577.018272032 12.9050483123 565.818514609 -60.3451996672 552.321999144 -142.288329271 c 2
 544.544507149 -189.508816383 l 1
 496.92531033 -184.746896701 l 2
 470.167864758 -182.071152144 440.333721312 -181 408 -181 c 0
 318.161727126 -181 233.863653053 -186.948583399 138.185829821 -194.827933547 c 2
 64.434704275 -200.901555651 l 1
 85.0112225149 -129.819038096 l 2
 107.872588711 -50.8434094208 131.446766657 30.4829403244 150.476639367 110.053993368 c 1
 130.360492594 110.561419667 112.134682845 111 90 111 c 2
 32.8083858937 111 l 1
 39.3329666318 167.818223927 l 2
 55.3969711989 307.708930366 72.810536466 438.997931121 91.5866908826 561.713511778 c 2
 99.9013055644 616.055457736 l 1
 153.467834841 603.693950981 l 2
 187.191997161 595.911451984 221.251160851 589.938537315 251.374218794 584.805264544 c 1
 270.460248343 684.052618201 l 1
 226.173204583 685.543179038 186.715005851 688.105799844 138.818707406 691.099318497 c 2
 84.2956742898 694.507008067 l 1
 91.4377241526 748.667552859 l 2
 108.558824189 878.502561466 123.231896373 1002.13523585 143.581992845 1135.68274395 c 2
 150.878566569 1183.56650901 l 1
 199.074689669 1178.7468967 l 2
 250.066759787 1173.64768969 300.943288805 1165.21368553 351.248336233 1157.63781541 c 1
 412.46469827 1556.53152933 l 1
 457.757576061 1554.96970597 l 2
 495.345130664 1553.6735834 533.401859311 1553 572 1553 c 0
 660.723120727 1553 743.594729429 1555.17230365 831.816290243 1558.95322769 c 2
 901.497904052 1561.93958256 l 1
 883.216949944 1494.63243335 l 2
 849.25596977 1369.59427907 823.687668022 1241.77920199 791.593132324 1097.38896827 c 1
 826.920336323 1092.2052412 861.613951548 1088.17171635 897.595912746 1083.46908055 c 1
 919.903195768 1222.50645908 943.180629964 1371.58599744 967.582258705 1531.68448845 c 2
 975.158500093 1581.39202341 l 1
 1024.96850726 1574.52167759 l 2
 1063.68090289 1569.18203681 1105.94680436 1568 1156 1568 c 0
 1219.78296559 1568 1297.47087957 1570.94340164 1388.680964 1576.8918854 c 2
 1457.50835575 1581.38062834 l 1
 1441.63024234 1514.25951256 l 2
 1405.87311551 1363.10438551 1373.17204245 1215.76915724 1336.13155361 1045.7114319 c 1
 1351.44178213 1045.2030235 1365.78486542 1045 1384 1045 c 2
 1441.25468431 1045 l 1
 1434.66063254 988.126303476 l 2
 1420.86581846 869.146032025 1412.05739738 748.180720761 1400.83757921 607.932993662 c 2
 1395.98667464 547.296686571 l 1
 1337.12648325 562.651519108 l 2
 1302.5418341 571.673601494 1271.33577684 579.9675957 1241.4639826 587.097921878 c 1
 1217.98226797 473.773125208 l 1
 1255.85846062 471.958666237 1294.55358444 470.459498782 1337.75757607 468.969705967 c 2
 1392.33090566 467.087867016 l 1
 1386.73112423 412.769987194 l 2
 1373.45501106 283.991689338 1360.25248105 163.868188079 1346.71383457 36.6049112159 c 2
 1340.98971975 -17.2017681318 l 1
 1287.61565165 -8.3060901155 l 2
EndSplineSet
EndChar

StartChar: dollar
Encoding: 36 36 7
Width: 2028
Flags: HW
LayerCount: 2
Fore
SplineSet
688.842498831 591.694335938 m 1
 936.066220384 623.942382812 l 1
 943.055416837 654.890035205 948.305007785 689.1793899 948.305007785 720 c 0
 948.305007785 763.35546875 940.757989621 763.125976562 926.241917037 766.826171875 c 1
 880.333230536 763.639648438 815.143241401 720.956054688 772.190272291 684.715820312 c 0
 743.072782945 660.149414062 708.671516638 625.118164062 688.842498831 591.694335938 c 1
891.882782667 297.342773438 m 1
 823.006789242 292.763671875 757.692564911 288.303710938 691.091696057 283.66015625 c 1
 708.241554825 249.751953125 718.33269377 241 753.607927682 241 c 0
 817.887218804 241 864.665551688 266.0234375 891.882782667 297.342773438 c 1
28 512.643554688 m 1
 65.9513859788 687.39408569 134.968256483 838.371785758 226.213867188 966.889648438 c 1
 183.614257812 1087.95019531 145.635742188 1195.82324219 102.2421875 1315.54296875 c 2
 75.0283203125 1390.62207031 l 1
 158.522460938 1377.36914062 l 2
 234.005859375 1365.38769531 311.303617373 1348.40332031 394.711887973 1344.71679688 c 1
 358.503269622 1419.1796875 l 1
 728.011155799 1383.06933594 l 1
 747.537687908 1355.33007812 l 1
 836.220012713 1388.07617188 932.230053551 1408 1048.97224807 1408 c 0
 1199.26590533 1408 1327.39500035 1364.56760261 1427.94921875 1287.5703125 c 1
 1581.66992188 703.818359375 l 1
 1535.28125 690.651367188 l 2
 1467.68554688 671.465820312 1397.22460938 653.305664062 1322.64294237 636.16796875 c 1
 1372.68554688 570.3515625 1424.71777344 504.478515625 1476.30859375 435.26171875 c 2
 1494.79101562 410.463867188 l 1
 1478.875 384.142578125 l 2
 1420.15234375 287.029296875 1353.27246094 203.04296875 1266.47026796 126.365234375 c 1
 1380.19433594 -166.518554688 l 1
 1076.94569329 -142.595703125 l 1
 1104.77869873 -187.325195312 l 1
 722.879701994 -153.418945312 l 1
 682.579964577 -103.059570312 l 1
 526.441168516 -100.37109375 363.662811384 -79.3564453125 274.941595561 13.9296875 c 1
 247.329101562 45.9150390625 l 1
 277.21996105 76.2421875 l 1
 357.62822171 150.81640625 439.192409858 224.4296875 531.26257448 293.794921875 c 1
 400.478561744 284.977539062 269.911132812 275.861328125 148.741210938 266.438476562 c 2
 107.517578125 263.232421875 l 1
 28 512.643554688 l 1
EndSplineSet
EndChar

StartChar: percent
Encoding: 37 37 8
Width: 2468
Flags: HW
LayerCount: 2
Fore
SplineSet
95.0966796875 239.815429688 m 2
 225.678710938 331.518554688 363.665321347 436.2890625 500.731708207 534.106445312 c 1
 346.21428855 615.640625 258.453125 762.03515625 258.453125 961.302734375 c 0
 258.453125 1167.73144531 342.04901293 1336.99609375 439.186599135 1461.54394531 c 0
 509.21775754 1551.3359375 601.667594528 1631.76171875 720.171655544 1678.63183594 c 1
 776.28884447 1702.04296875 835.426843042 1714 896.016157161 1714 c 0
 1245.2462172 1714 1399.18311064 1509.40039062 1399.18311064 1202.84179688 c 0
 1399.18311064 1179.24511719 1397.9971785 1155.58496094 1396.5562295 1134.68261719 c 1
 1596.834665 1276.95800781 1796.72539192 1425.37207031 2018.84716306 1587.39941406 c 1
 2067.80371094 1623.48828125 l 1
 2305.14941406 1230.50195312 l 1
 1825.44277998 900.232421875 l 1
 2005.1467443 847.506835938 2124.453125 723.383789062 2124.453125 521.9296875 c 0
 2124.453125 395.974609375 2081.5234375 283.991210938 2033.57283259 195.880859375 c 1
 1952.82059891 51.59765625 1828.27595526 -87.2236328125 1657.84071401 -158.669921875 c 1
 1605.6659201 -181.732421875 1551.89467909 -194 1497.90574075 -194 c 0
 1163.09553732 -194 1017.03099407 56.2587890625 1017.03099407 347 c 0
 1017.03099407 363.147460938 1018.24802582 380.844726562 1019.89215901 394.091796875 c 1
 780.105804359 217.125976562 553.727532054 45.654296875 327.291207127 -137.677734375 c 1
 272.965820312 -182.997070312 l 1
 245.577148438 -122.409179688 l 2
 192.38671875 -4.7470703125 146.756835938 92.931640625 84.5576171875 172.07421875 c 2
 54 210.954101562 l 1
 95.0966796875 239.815429688 l 2
1694.28946732 527 m 0
 1694.28946732 603.008186557 1676.26543732 662 1667.75112589 662 c 0
 1640.79501291 662 1598.23622116 617.0859375 1567.47247818 562.563476562 c 0
 1534.34101755 503.844726562 1503.21340904 414.137695312 1503.21340904 331 c 0
 1503.21340904 269.984375 1511.98453821 209.62890625 1521.10294646 198.00390625 c 1
 1568.20331922 198.69921875 1609.1179778 243.537109375 1638.62944279 301.161132812 c 0
 1668.40110792 359.291015625 1694.28946732 447.279296875 1694.28946732 527 c 0
803.971651873 1178.54492188 m 0
 774.922534548 1122.74121094 747.879342641 1037.64453125 746.339911507 961.580078125 c 1
 746.333691583 894.810546875 752.655207444 827.1328125 763.087056264 812.034179688 c 1
 792.437839891 813.440429688 827.663341521 852.365234375 853.721712164 905.79296875 c 0
 884.176532261 968.233398438 906.631493733 1061.04785156 906.631493733 1155 c 0
 906.631493733 1224.16113281 892.935221586 1261.13183594 887.231551487 1267.97070312 c 1
 865.76141128 1267.01660156 830.276746159 1229.078125 803.971651873 1178.54492188 c 0
EndSplineSet
EndChar

StartChar: ampersand
Encoding: 38 38 9
Width: 1910
Flags: HW
LayerCount: 2
Fore
SplineSet
1212.20000326 -143.257016385 m 1
 1059.98296457 -230.110072582 878.245610485 -299 650 -299 c 0
 399.715160933 -299 204.196304798 -199.355725716 115.115942025 -15.7632707332 c 0
 83.8379961599 48.6998128187 69.0000000011 122.557283667 69 204 c 0
 69 334.216362663 126.447928972 432.648458079 190.040920506 510.310695528 c 0
 274.950791994 614.005936813 387.035335374 695.160028627 513.793767247 763.163590078 c 1
 472.567556845 859.570151079 441 963.831026699 441 1088 c 0
 441 1428.83911581 727.113817828 1571.2071016 1053.43417903 1622.91279264 c 1
 1115.96105634 1624.27207258 1181.12275878 1629 1250 1629 c 0
 1488.93760754 1629 1677.47915342 1577.86750637 1841.81252789 1491.09948465 c 2
 1869 1476.74449937 l 1
 1869 1446 l 2
 1869 1258.46649916 1870.45604384 1035.87262083 1803.61578674 902.19210663 c 2
 1778.7736442 852.507821558 l 1
 1788.13886331 851.983920516 1797.55071274 851.451728146 1806.90953932 850.916938056 c 2
 1867.90080549 847.431722846 l 1
 1853.57865336 788.043531829 l 2
 1726.5538915 261.323053323 1646.9828266 -155.144617076 1614.71555182 -459.378922163 c 2
 1609.62822764 -507.345121588 l 1
 1561.45318154 -504.936369283 l 2
 1459.52852743 -499.840136577 1352.00337101 -480.636543761 1259.75332798 -470.175198675 c 0
 1228.72156739 -466.656133039 1203.19519304 -465 1184 -465.000000001 c 2
 1113.24127978 -465.000000004 l 1
 1135.6171518 -397.872383934 l 2
 1161.53744038 -320.111518193 1188.00979704 -230.201731482 1212.20000326 -143.257016385 c 1
1762.18258459 853.429849033 m 1
 1724.33415501 886.690590179 l 2
 1589.61009753 1005.08445887 1390.27430335 1054 1120 1054 c 0
 1005.33835779 1054 898.79613711 1028.13388255 850.500482345 988.197091109 c 0
 847.000317163 985.302723747 844.461934234 982.570703363 843.504985331 981.407343963 c 1
 844.52814978 978.977328398 849.346726501 971.262724726 866.037476462 961.352591936 c 0
 891.756157691 946.082124956 938.143090238 934.244660326 996.533483672 916.88535417 c 0
 1066.5383238 896.073104403 1131.95999116 886 1193 886 c 0
 1209.8450009 886 1227.08969535 886.902131697 1244.75214329 888.729281485 c 2
 1313.4277571 895.833655329 l 1
 1300.03064836 828.103827798 l 2
 1273.96860582 696.345723797 1241.7742938 573.788941929 1197.95918751 452.653059835 c 2
 1186.76181967 421.695631093 l 1
 1153.9399444 419.152415612 l 2
 680.525038528 382.469681677 517 288.658987091 517 222 c 0
 517 213.256816975 519.651974498 197.244945253 571.359984056 179.132535126 c 0
 620.336063989 161.977072098 705.551174646 151.074042627 816.902715797 151.000305399 c 1
 1002.87042746 159.154879352 1133.09579625 209.550529247 1249.23904721 285.964313185 c 1
 1278.45063194 465.070044298 1302.35418053 640.808506958 1329.53282415 827.352833569 c 2
 1336.13156335 872.644179876 l 1
 1381.8703007 870.965694102 l 2
 1511.5910003 866.205301456 1635.97178559 860.396157353 1762.18258459 853.429849033 c 1
EndSplineSet
EndChar

StartChar: quotesingle
Encoding: 39 39 10
Width: 838
Flags: HW
LayerCount: 2
Fore
SplineSet
337.001621709 823.255270555 m 2
 222.987307906 858.336597879 124.217810395 907.955246191 7.85074153135 964.06079725 c 2
 -46.9916264754 990.502653253 l 1
 -11.3446406488 1039.86001825 l 2
 56.1211086543 1133.27413267 119.189260852 1223.56844309 178.417416565 1320.48724334 c 0
 241.97693974 1425.6493635 277.516770933 1531.75993345 303.910085213 1669.59168581 c 2
 312.076630437 1712.23919976 l 1
 911.456724741 1694.82981942 l 1
 883.110847792 1626.46623384 l 2
 796.010967303 1416.40181619 674.170825557 1224.67204986 548.609307657 1047.50990817 c 0
 499.325855351 977.972982308 447.036678893 908.819121979 391.748159214 840.045597498 c 2
 370.070194993 813.080324929 l 1
 337.001621709 823.255270555 l 2
EndSplineSet
EndChar

StartChar: parenleft
Encoding: 40 40 11
Width: 990
Flags: HW
LayerCount: 2
Fore
SplineSet
198.740894984 2001.89777356 m 0
 411.445288868 1994.22705845 623.423535921 1986.6290237 833.855912775 1978.96622007 c 2
 964.908729387 1974.19398865 l 1
 865.065278053 1889.17104962 l 2
 696.158595888 1745.3364531 554.183868018 1604.5716607 439.087591241 1467.24087591 c 0
 323.96506493 1329.87877065 234.383977634 1194.60656174 169.879916525 1061.72819586 c 2
 151.174507972 1023.19505424 l 1
 109.989222476 1034.96227867 l 2
 -112.77457012 1098.60907656 -345.770460174 1139.85456828 -633.683676177 1186.66087561 c 0
 -1409.50075875 1312.78614802 -2226.2509724 1406.14608427 -3092.53958203 1500.80174529 c 0
 -4593.83221599 1664.84158728 -6132.47910734 1806.08416031 -7734.50649657 1948.19949322 c 1
 -7730.26701205 2049.99930102 l 1
 -6118.99743111 2058.43526741 -4556.67010112 2066.83444493 -3010.5429819 2077.53288895 c 0
349.564961565 -605.080663872 m 2
 209.615983654 -423.011119793 105.195858825 -239.381957897 37.1278422646 -54.0856905966 c 0
 -30.8698690861 131.019190303 -65 321.363936045 -65 516 c 0
 -65 749.199659011 -4.8166222821 935.659169653 78.132239439 1106.29682805 c 2
 97.3658178 1145.86304639 l 1
 213.073613305 1109.40716562 l 1
 285.088475932 1084.25911835 348.164781095 1060.24598922 404.350163715 1020.70812738 c 0
 429.590036292 1002.94673557 477 968.809835664 477 906 c 0
 477 866.605255387 466.839045182 829.71314347 456.3988503 806.83052455 c 0
 410.177928582 705.524394757 387.999999999 610.19544153 388 520 c 0
 388 384.165227381 436.835244138 278.169115742 499.897255868 183.845593923 c 0
 580.871963121 62.7295788014 694.863551869 -41.8753679833 823.350163715 -132.291872616 c 2
 873.189076253 -167.363699957 l 1
 384.798611211 -650.91861584 l 1
 349.564961565 -605.080663872 l 2
-2448.65798498 2111.91936184 m 1
 -2028.46475488 2130.32921484 -1596.2024362 2136.58730003 -1124.53548149 2145.50912136 c 0
 1079.92403698 2187.20759902 3247.94317673 2198.76526636 5526.12142993 2212.98727766 c 1
 5581.8973012 2208.51969232 5639.122269 2203.78293247 5695.95035991 2198.79721583 c 1
 5339.31289791 2180.86102315 4982.93779141 2172.8614249 4541.91635209 2163.48848603 c 0
 2479.68914368 2119.660391 200.03500417 2101.91939903 -1910.62304298 2085.5805989 c 1
 -2090.61529908 2093.92102195 -2270.7579536 2102.53302345 -2448.65798498 2111.91936184 c 1
EndSplineSet
EndChar

StartChar: parenright
Encoding: 41 41 12
Width: 1216
Flags: HW
LayerCount: 2
Fore
SplineSet
1032.70949871 1047.59737051 m 0
 972.972577614 905.068533453 880.204077835 733.72283637 754.261335859 531.991541701 c 1
 667.668351524 585.895505951 l 1
 699.410186468 637.035128916 710.851085664 713.302855431 710.998845751 814.076903649 c 1
 701.843138098 929.987043724 662.249575843 1041.91318238 589.13087721 1155.37323198 c 0
 521.022139041 1261.059205 425.153327929 1364.23159072 300.573903167 1464.23720908 c 0
-3600.42792532 -160.69327161 m 0
 -2671.91044343 230.85123693 -1724.47785898 714.362524569 -841.528027189 1113.96312594 c 0
 -471.553089145 1281.40435807 -140.522638012 1417.25486462 151.867783623 1521.53631087 c 0
 188.737879022 1534.68608113 225.173947279 1547.10124838 260.275158267 1558.48658677 c 1
 710.37432082 2001.86785137 l 1
 745.222632501 1954.02822955 l 2
 822.287026346 1848.23454026 887.244292561 1744.13609659 943.511299001 1635.23605359 c 1
 1056.68259049 1592.6695594 1118.99358631 1495.05982352 1111.94695878 1340.67462014 c 0
 1110.51709904 1309.34769316 1105.46403873 1275.65421121 1097.19965549 1239.66392855 c 1
 1130.26157296 1113.21060382 1152 959.938220998 1152 819 c 0
 1152 527.233265886 1061.39590574 300.748794242 941.821286165 99.909870087 c 0
 881.047657151 -2.1662252472 811.688032217 -97.452452852 735.477042357 -187.652423472 c 0
502.405724185 -288.620916637 m 0
 -852.026946186 -282.306882192 -2208.84999826 -274.230184248 -3580.54726064 -263.211032612 c 0
-3938.35572417 -409.540450981 m 0
 -3852.68058484 -400.91115722 -3637.84029572 -397.984617983 -3553.69405199 -396.013979957 c 0
 -2770.94188734 -377.68254753 -1968.53239293 -375.403323878 -1100.78813099 -370.500813923 c 0
 -607.316759276 -367.712840071 -111.362195746 -365.297516184 388.022753278 -363.157173177 c 2
 425.557165204 -362.996846093 l 1
466.123012123 -464.889854438 m 0
 405.826852578 -519.916527085 343.63559007 -572.812035352 279.884515985 -625.347642699 c 1
 -966.793070186 -601.75122151 -2219.81959695 -583.891225625 -3452.06848846 -545.975875117 c 0
 -3619.70464047 -540.817839671 -3770.24285828 -536.432144523 -3906.75209931 -526.361790676 c 1
 -3906.75209931 -526.361790676 -4015.00000033 -554.654164996 -4015 -467 c 0
 -4015 -455.002140959 -4010.55629953 -444.485811315 -4005.98936173 -437.765549672 c 0
644.875534998 -289.278705498 m 1
 667.443691781 -289.381737446 l 2
 2190.07700149 -296.322908178 3714.83347525 -301.131123153 5271.46078129 -305.571084255 c 1
 4889.00942461 -320.757902627 4501.76047659 -335.876717558 4110.94600337 -351.002609938 c 1
 2907.32646641 -354.186947725 1729.72061776 -357.583305862 573.848397696 -362.373901075 c 1
 598.134435899 -338.19755088 621.615797261 -314.065284694 644.875534998 -289.278705498 c 1
-6362.46396991 -222.112104586 m 1
 -6285.53024387 -227.930447684 -6158.00776025 -229.888358423 -6095.80726264 -231.483242976 c 0
 -5356.77856108 -250.432696862 -4668.04073573 -254.219035495 -3842.68150419 -261.070813915 c 1
 -4046.40286603 -343.920159019 -4259.34512694 -426.28678409 -4465.75684999 -500.508322299 c 0
 -4844.18476418 -636.583451551 -5176.96590352 -721.663339468 -5463.14035968 -756.370996622 c 0
 -5748.3863302 -790.96604568 -5969.63850713 -761.067885715 -6130.22342697 -674.148600892 c 0
 -6270.63006866 -598.151148001 -6350.39400889 -454.527617845 -6362.46396991 -222.112104586 c 1
EndSplineSet
EndChar

StartChar: asterisk
Encoding: 42 42 13
Width: 910
Flags: HW
LayerCount: 2
Fore
SplineSet
1182 1936 m 0
 1182 1930.40843629 1187.06606971 1932 1193 1932 c 0
 1229.33923129 1932 1289.33147719 1949.35457548 1335.07867101 1961.33598339 c 2
 1524.16314251 2010.85810689 l 1
 988.548767701 1495 l 1
 1046.23937464 1495 l 1
 937.324692143 1363.07517331 l 1
 1054.22284578 1380.42473543 1171.11383831 1397.32839952 1292.878164 1414.5002916 c 2
 1475.12848809 1440.20226039 l 1
 646.182744746 768.872961196 l 1
 682.480804802 916.200381425 l 2
 692.868291073 958.361355113 704.009084997 1000.36869935 714.919491759 1039.42832932 c 1
 262.449132897 713.089088193 l 1
 305.116496918 856.539708609 l 2
 337.527142243 965.50653341 369.527539227 1073.29833592 401.161863411 1180.78325247 c 2
 411.287396929 1215.22003577 l 2
 416.998408773 1234.66222097 422.850625917 1254.62027916 428.520388536 1273.99262199 c 1
 406.954750038 1255.62395256 380.047707513 1241 345 1241 c 0
 326.54755227 1241 308.101388047 1246.03443197 292.529434248 1255.91257545 c 1
 287.39067047 1253.68324867 282.834673118 1251.68717739 279.045883514 1249.81832857 c 1
 263.712430602 1231 l 1
 377 1231 l 1
 -39.2062710612 918.845296704 l 1
 76.6482448584 1129 l 1
 47.59323852 1129 l 1
 137.731332735 1237.91686384 l 1
 229.862033512 1403.15127285 l 1
 86.2375458674 1542.5096866 l 1
 299.679088479 1743.96013131 l 1
 409.508911976 1892.8160705 509.70677299 2038.73420305 608.613941092 2198.80764616 c 1
 699.177440878 2152.6276209 l 1
 663.562598633 2065.89500507 l 1
 764.288588796 2181.27412095 869.394325921 2290.32095741 982.393986539 2400.51317304 c 2
 1161.78910067 2575.4512657 l 1
 851.803330679 1834.82658171 l 1
 966.180524439 1964.82703171 1079.93379939 2093.85009186 1195.42864273 2227.36540721 c 2
 1510.41571971 2591.499404 l 1
 1278.70550609 2169.45580058 l 2
 1242.01434477 2102.62547102 1216.34272194 2049.66089055 1202.09056496 2012.66592989 c 0
 1187.52239534 1974.85068108 1182 1947.43892378 1182 1936 c 0
EndSplineSet
EndChar

StartChar: plus
Encoding: 43 43 14
Width: 1298
Flags: HW
LayerCount: 2
Fore
SplineSet
1175.79139487 854.932972805 m 2
 1195.43469961 857.735384874 1215.25642121 860.840996759 1235.44223325 864.276879659 c 2
 1311.81707137 877.276852105 l 1
 1293.56435539 801.984398695 l 2
 1266.11927521 688.773442917 1252.60302863 529.350415687 1225.88994038 403.417285373 c 2
 1178.44581087 179.752103434 l 1
 1126.34190288 402.377892165 l 2
 1107.92291134 481.077219653 1092.24409987 560.111059521 1083.06216012 644.691103645 c 1
 863.256421251 402.19574012 l 1
 839.338510786 280.580756898 824.129911949 162.738228026 810.731124234 32.7699871924 c 2
 804.602647884 -26.676233403 l 1
 746.859204821 -11.2779819197 l 2
 651.967502507 14.0264720309 483.548611732 0.00484290432519 360.859204821 32.7220180803 c 2
 309.762112933 46.3479092504 l 1
 325.230526073 96.9177214366 l 2
 352.433478998 185.850452153 374.599994191 271.243831566 397.256045794 359.337960609 c 1
 31.2397964309 339.659667632 l 1
 41.6939098846 402.384348353 l 2
 62.338309594 526.250746606 83.0769294287 654.773356798 107.796718237 792.979448771 c 2
 114.874623246 832.551372229 l 1
 155.005176879 834.911993032 l 2
 167.536803137 835.649147518 181.003102023 836.000000001 195.5 836 c 2
 242 836 l 2
 322.092076538 836 405.95194143 833.934370771 490.388822701 831.993109788 c 1
 506.670737736 936.649026315 524.161019121 1041.47858707 541.583205453 1155.69069747 c 2
 550.163397234 1211.93862137 l 1
 605.140795177 1197.27798192 l 2
 696.289286192 1172.97171765 863.663180966 1191.67201237 985.140795177 1159.27798192 c 2
 1032.39452678 1146.67698683 l 1
 1021.78554007 1098.93654665 l 2
 1002.87012317 1013.81717062 984.003990886 927.610461999 961.682419512 835.260339648 c 1
 1021.12231128 837.965117533 1075.2046786 842.302061512 1130.40136726 848.95711596 c 2
 1175.79139487 854.932972805 l 2
EndSplineSet
EndChar

StartChar: comma
Encoding: 44 44 15
Width: 1214
Flags: HW
LayerCount: 2
Fore
SplineSet
295.824028369 -35 m 1
 349.178862783 64.4234016987 386.642723635 158.66738162 407.7704916 278.831561917 c 2
 415.341602685 321.892256211 l 1
 1017.56657444 309.449591505 l 1
 989.146368656 240.552122929 l 2
 902.78838569 31.1994369522 779.994392352 -159.782023794 655.148706707 -336.434422529 c 0
 605.569437884 -406.587401543 553.151345379 -476.363522772 497.89978287 -545.764875681 c 2
 475.694493989 -573.656884886 l 1
 441.872383933 -562.382848201 l 2
 329.688396825 -524.988185831 223.267174422 -474.505659657 115.582803937 -421.809052825 c 2
 62.6013783628 -395.881972225 l 1
 95.9093296763 -347.201120305 l 2
 160.127596165 -253.343653899 214.124716768 -165.358542009 261.883319016 -64.2226784242 c 2
 275.682917161 -35 l 1
 295.824028369 -35 l 1
EndSplineSet
EndChar

StartChar: hyphen
Encoding: 45 45 16
AltUni2: 002010.ffffffff.0
Width: 1334
Flags: HW
LayerCount: 2
Fore
SplineSet
1191.96117585 368.018855717 m 2
 851.969701221 361.480558128 560.044074226 307.479300799 224.788612483 266.803555808 c 2
 102.301270935 251.956605317 l 1
 110.211618485 374.566992355 l 2
 118.251721135 499.188583438 127.340138309 653.071396795 142.787656575 776.651542928 c 2
 152.785172691 856.631671856 l 1
 232.909887689 865.395312559 l 2
 483.310128632 892.782838912 760.209045887 887.724455354 1005.342058 901.342956027 c 0
 1079.67314652 905.472460945 1146.39621221 913.226771089 1205.20256942 924.252963068 c 2
 1337.51881537 949.062259185 l 1
 1325.59940935 814.968941396 l 2
 1319.05560691 741.351163868 1314.88306613 668.298311105 1305.36617279 582.646271012 c 2
 1281.3280801 369.737450029 l 1
 1191.96117585 368.018855717 l 2
EndSplineSet
EndChar

StartChar: period
Encoding: 46 46 17
Width: 902
Flags: HW
LayerCount: 2
Fore
SplineSet
410 363 m 0
 559.893097216 363 697.620742041 291.493350201 721.135514528 136.967702432 c 1
 717.177315182 24.1590210412 668.155643405 -55.5572311726 625.717237277 -124.519641131 c 1
 576.618877151 -140.885761172 522.345940315 -158 455 -158 c 0
 316.076561035 -158 183.046256086 -96.6347568142 163.028342005 40.8467663137 c 1
 141.379174182 62.4959341369 l 1
 145.693909885 88.3843483524 l 2
 162.411229775 188.688267696 206.150472979 265.064502495 255.601969979 331.969469024 c 1
 301.838482826 350.464074163 353.638341329 363.000000001 410 363 c 0
EndSplineSet
EndChar

StartChar: slash
Encoding: 47 47 18
Width: 1578
Flags: HW
LayerCount: 2
Fore
SplineSet
-143.818324735 -79.7834204776 m 2
 342.319153653 457.526424056 808.049318648 1044.89053295 1293.50459801 1679.00197442 c 2
 1321.08438099 1715.02724118 l 1
 1728.17275733 1472.83542234 l 1
 993.607391183 615.842495159 l 1
 759.884452236 311.740296215 540.793382615 23.1871875067 328.979388408 -276.88263762 c 1
 208.231384954 -344.276872106 l 1
 -187.163435377 -127.691174345 l 1
 -143.818324735 -79.7834204776 l 2
EndSplineSet
EndChar

StartChar: zero
Encoding: 48 48 19
Width: 1882
Flags: HW
LayerCount: 2
Fore
SplineSet
944.368469869 1518.25292969 m 1
 1040.29174749 1551.31542969 1139.26003989 1568 1240.19282367 1568 c 0
 1697.16113281 1568 1819.12988281 1239.19726562 1819.12988281 867.6796875 c 0
 1819.12988281 817.748108352 1816.48967454 769.601027934 1813.80957031 722.794921875 c 1
 1751.11656669 472.256618477 1600.95517954 265.979881568 1421.38076475 112.46875 c 0
 1324.56608189 30.755859375 1221.11632673 -26.98828125 1112.35745125 -82.9755859375 c 0
 988.878171139 -146.540039062 861.030049181 -188 663.573697009 -188 c 0
 182.017111009 -188 82.0913058118 159.522234044 66 532.090820312 c 1
 89.6034440517 710.261593882 168.324407483 868.251562734 254.913085938 998.642578125 c 1
 409.183218325 1219.09179688 640.774334835 1419.51269531 944.368469869 1518.25292969 c 1
1304.86698249 600.473632812 m 0
 1324.86250866 641.401367188 1334.84539729 684.098632812 1334.84539729 729.540039062 c 0
 1334.84539729 830.24609375 1267.61176861 884 1140.10044696 884 c 0
 1025.90601825 884 925.971948315 848.625 843.872357782 807.5234375 c 0
 705.711984122 738.35546875 585.411588941 633.5078125 528.753702429 506.47265625 c 0
 511.767067338 468.384765625 503.643486408 431.905273438 503.643486408 396.459960938 c 0
 503.643486408 294.732421875 575.004778162 242 709.268042895 242 c 0
 799.872638051 242 889.689949206 272.512695312 966.22011635 306.331054688 c 0
 1114.70549125 371.9453125 1242.16900213 472.142578125 1304.86698249 600.473632812 c 0
EndSplineSet
EndChar

StartChar: one
Encoding: 49 49 20
Width: 1150
Flags: HW
LayerCount: 2
Fore
SplineSet
668.98565782 -148 m 2
 641.513682161 -148 616.47748342 -147 593.951600413 -147 c 0
 459.832265581 -147 352.224609375 -153.49609375 250.266601562 -160 c 2
 179.614257812 -164.471679688 l 1
 197.74609375 -133.875976562 l 1
 279.765625 171.533203125 348.548828125 488.4921875 409.067382812 827.760742188 c 1
 386.815429688 818.60546875 365.336914062 810.068359375 341.892578125 801.86328125 c 2
 295.12890625 785.49609375 l 1
 168 1082.70605469 l 1
 189.837890625 1106 l 2
 269.620117188 1191.42089844 348.95703125 1275.00585938 428.079993139 1361.85351562 c 1
 595.265504974 1489.87597656 l 1
 1108.82421875 1492.34960938 l 1
 1094.80957031 1469.68457031 l 1
 969.580078125 917.639648438 849.362013428 419.102539062 734.183118195 -148 c 1
 668.98565782 -148 l 2
EndSplineSet
EndChar

StartChar: two
Encoding: 50 50 21
Width: 2034
Flags: HW
LayerCount: 2
Fore
SplineSet
1332.98439258 924.237304688 m 0
 1332.98439258 930.590877683 1325.56733334 935.967533476 1288.88075734 938.403320312 c 1
 1029.02422207 937.936523438 835.956572737 858.326171875 765.862634912 716.283203125 c 2
 749.663865549 683.456054688 l 1
 708.977282033 687.4765625 l 2
 556.142933843 702.580078125 403.063453926 713.29296875 253.340820312 731.032226562 c 2
 204.5859375 737.114257812 l 1
 209.248046875 783.352539062 l 2
 217.432617188 864.516601562 217.018554688 952.186523438 217.018554688 1062.1328125 c 2
 217.018554688 1076.52636719 l 1
 384.973229222 1318.25790822 698.275487133 1455.8887205 1044.45167178 1523.76074219 c 1
 1153.09363013 1546.3125 1268.99972907 1563 1384.91850724 1563 c 0
 1424.00645152 1563 1464.9064687 1560.96582031 1500.01419224 1555.796875 c 1
 1680.09667969 1547.71582031 1839.71484375 1513.65136719 1880.66308594 1349.14648438 c 0
 1891.22949219 1306.69433594 1896.01855469 1257.71484375 1896.01855469 1201.51367188 c 0
 1896.01855469 1058.65287007 1860.39082346 918.509434382 1820.88671875 807.692382812 c 1
 1700.50638417 601.447469044 1521.56067382 443.135503893 1311.57340424 310.885742188 c 1
 1868.67675781 370.162109375 l 1
 1796.30859375 -72.041015625 l 1
 1756.49316406 -75.3564453125 l 1
 1207.01521365 -118.311523438 668.456585074 -162.8125 124.493164062 -205.803710938 c 1
 58 -211.66015625 l 1
 69.8251953125 -149.612304688 l 2
 90.658203125 -40.2998046875 113.467773438 58.755859375 137.556640625 162.036132812 c 1
 76.8935546875 162.036132812 l 1
 154.6953125 235.518554688 l 1
 157.952148438 249.501953125 l 1
 173.483398438 253.263671875 l 1
 253.018554688 328.383789062 l 1
 252.799804688 275.467773438 l 1
 314.058448717 295.306640625 384.437669154 322.326171875 451.977799299 349.37890625 c 0
 654.339322177 430.428710938 863.787476464 531.201171875 1037.82994537 637.818359375 c 0
 1142.23915504 701.77734375 1240.01184586 771.205078125 1300.30157125 848.798828125 c 0
 1324.34349924 879.7421875 1332.98439258 904.717773438 1332.98439258 924.237304688 c 0
EndSplineSet
EndChar

StartChar: three
Encoding: 51 51 22
Width: 1992
Flags: HW
LayerCount: 2
Fore
SplineSet
1353.42942853 410.318359375 m 0
 1353.42942853 428.838112043 1148.02187699 428.862304688 1092.2083901 428.862304688 c 0
 982.099971071 428.862304688 882.637952153 417.231445312 773.651543876 402.943359375 c 2
 709.590022598 394.544921875 l 1
 709.590022598 447.40625 l 2
 709.590022598 475.891601562 710.673927322 503.984375 710.673927322 532.176757812 c 0
 710.673927322 605.565429688 701.64068229 671.654296875 678.313443712 723.236328125 c 2
 654.153165079 776.661132812 l 1
 723.532593908 783.512695312 l 2
 782.610693859 789.345703125 855.264065374 810.420898438 920.075005153 830.728515625 c 0
 1036.31320177 867.150390625 1161.73283352 915.0703125 1244.48747728 968.041015625 c 0
 1259.037628 977.354492188 1268.84252005 984.635742188 1273.06064536 988.912109375 c 1
 1259.30860418 991.823242188 1236.28197981 994 1204.93448137 994 c 0
 1047.56400579 994 865.807790915 967.077148438 795.034316655 913.556640625 c 0
 783.216156263 904.620117188 782.211639092 899.986328125 782.211639092 893 c 0
 782.211639092 888.717773438 783.047854651 884.215820312 785.634830378 878.41796875 c 2
 805.77915733 833.284179688 l 1
 364.948543458 644.551757812 l 1
 272.71484375 1015.02050781 l 1
 292.863768196 1098.12636375 311.478466159 1174.9375895 327.140625 1254.81347656 c 2
 331.782540811 1277.69238281 l 1
 353.718909459 1289.26855469 l 2
 705.268164212 1474.79785156 1029.36308613 1570 1326.33181044 1570 c 0
 1557.14318207 1570 1755.56542969 1515.390625 1822.59765625 1341.80957031 c 0
 1832.14453125 1317.08886719 1841.015625 1289.52636719 1848.47949219 1262.08300781 c 2
 1885.16015625 1136.45214844 l 1
 1835.93952393 1030.15335323 1736.51900612 927.300139514 1635.24253972 851.100585938 c 1
 1726.9234723 805.537637444 1828.62117881 734.330939143 1849.08886719 634.275390625 c 1
 1868.66657466 557.233826304 1881.47173251 481.753663322 1893.18457031 401.5234375 c 1
 1855.29207764 277.131017944 1765.30359575 184.731286834 1671.73925781 111.4375 c 1
 1478.7273327 -29.5302734375 1216.7992158 -129.725585938 917.086857657 -176.2109375 c 0
 812.1735601 -193.43359375 703.225257848 -202 590.36050298 -202 c 0
 412.710212351 -202 257.665039062 -172.571289062 137.419921875 -122.013671875 c 2
 84 -99.552734375 l 1
 370.206116469 388.6875 l 1
 420.923119336 334.240234375 l 2
 486.302473994 264.051757812 594.561692286 224 760.533544616 224 c 0
 900.410179021 224 1039.08435662 253.896484375 1149.48598035 288.16015625 c 0
 1226.80522298 312.15625 1295.84910708 342.482421875 1335.01045773 378.108398438 c 0
 1349.97871623 391.724609375 1353.42942853 401.37109375 1353.42942853 410.318359375 c 0
EndSplineSet
EndChar

StartChar: four
Encoding: 52 52 23
Width: 1870
Flags: HW
LayerCount: 2
Fore
SplineSet
908.412575308 1425.16894531 m 1
 1417.29980469 1170.63378906 l 1
 1180.75488281 -91.388671875 l 1
 645.849950323 163.849609375 l 1
 688.71720531 310.413085938 l 1
 368.413551729 175.09375 l 1
 188.633789062 248.716796875 l 1
 24 333.28515625 l 1
 224.46875 1383.93457031 l 1
 704.41901251 1160.84863281 l 1
 622.772918395 784.030273438 l 1
 789.846313211 847.860351562 l 1
 908.412575308 1425.16894531 l 1
EndSplineSet
EndChar

StartChar: five
Encoding: 53 53 24
Width: 1944
Flags: HW
LayerCount: 2
Fore
SplineSet
1889.18261719 1641.53222656 m 2
 1881.38867188 1500.88574219 1850.25292969 1350.85644531 1850.25292969 1214.75976562 c 0
 1850.25292969 1211.92871094 1851.25292969 1205.16992188 1851.25292969 1193.86328125 c 2
 1851.25292969 1153.66113281 l 1
 1809.65136719 1146.25195312 l 1
 1462.09758745 1086.84667969 1106.98931251 1029.68164062 737.422961207 977.98046875 c 1
 733.581279998 964.620117188 730.02804185 950.49609375 726.60159186 936.50390625 c 1
 876.53070268 978.108398438 1036.08620445 998.815429688 1228.58760926 1001.0546875 c 1
 1534.74086299 997.470703125 1758.36132812 932.458007812 1832.5546875 700.251953125 c 0
 1854.88671875 630.359375 1865.25292969 547.498046875 1865.25292969 451.104492188 c 2
 1865.25292969 443.653320312 l 1
 1821.48001494 311.718056136 1727.98603624 206.483256222 1627.78540983 120.485351562 c 1
 1425.42094283 -42.453125 1155.34314654 -167.78125 837.822277824 -228.337890625 c 1
 729.220823906 -250.143554688 616.68259766 -261 500.449553155 -261 c 0
 337.945170126 -261 213.795898438 -229.612304688 106.169921875 -171.955078125 c 2
 54 -144.0078125 l 1
 325.44702738 217.89453125 l 1
 365.571253342 201.770507812 l 2
 420.115519223 179.8515625 488.943527751 169 574.020495387 169 c 0
 741.632328076 169 899.287064034 211.084960938 1021.44322869 260.158203125 c 0
 1106.35854142 294.271484375 1181.10544383 337.067382812 1223.2096782 388.012695312 c 0
 1240.50463962 408.938476562 1246.97823169 427.14453125 1246.97823169 445.474609375 c 0
 1246.97823169 501.791992188 1187.39624963 523.837890625 1039.47039172 527.947265625 c 1
 797.364176377 527.75390625 584.393879906 460.381835938 393.965461487 323.416015625 c 2
 347.663482491 290.112304688 l 1
 313.053484865 333.352539062 l 1
 242.228515625 427.743164062 180.6953125 513.431640625 110.908203125 603.9921875 c 2
 95.2568359375 624.302734375 l 1
 104.173828125 647.921875 l 2
 191.4765625 879.153320312 242.625 1120.91894531 267.420898438 1406.23632812 c 2
 270.766601562 1444.73144531 l 1
 312.600217198 1449.74902344 l 1
 823.287071995 1507.70117188 1339.83999227 1614.30859375 1829.41308594 1691.22753906 c 1
 1892.55175781 1702.34082031 l 1
 1889.18261719 1641.53222656 l 2
EndSplineSet
EndChar

StartChar: six
Encoding: 54 54 25
Width: 1826
Flags: HW
LayerCount: 2
Fore
SplineSet
882.178259322 -149.452148438 m 0
 793.949138765 -169.805664062 704.013122261 -180 612.761973922 -180 c 0
 229.580078125 -180 88 45.4384765625 88 366.526367188 c 0
 88 546.41796875 144.3359375 696.01171875 203.016601562 827.651367188 c 0
 323.2265625 1097.32226562 519.151701103 1338.41113281 756.552212127 1522.13964844 c 1
 793.669459755 1568.27929688 829.434213846 1604.75292969 863.699162556 1649.29003906 c 1
 897.933154428 1696.26757812 l 1
 1384.1081454 1362.79296875 l 1
 1309.84376079 1330.34960938 l 2
 1182.87055744 1274.10546875 1077.87457345 1216.63867188 995.150432503 1159.04980469 c 1
 1065.94978632 1175.56738281 1140.92511071 1185 1224.89606496 1185 c 0
 1420.41838031 1185 1568.69140625 1144.83398438 1650.00292969 1026.73535156 c 0
 1735.36719904 902.750394603 1751.88839925 734.248185843 1777.15625 573.577148438 c 1
 1705.4730364 346.736274064 1549.11072942 177.338921073 1359.92551828 51.9501953125 c 0
 1225.52587647 -36.552734375 1065.37121371 -108.745117188 882.178259322 -149.452148438 c 0
551.40232045 381.875976562 m 0
 533.395048579 358.1953125 526.407343222 337.221679688 526.407343222 316 c 0
 526.407343222 267.95703125 577.529890923 243 705.675184168 243 c 0
 862.532410042 243 992.951429595 295.060546875 1093.05836829 355.5546875 c 0
 1160.1781284 396.114257812 1218.66520089 444.264648438 1253.21836843 498.633789062 c 0
 1267.40513962 520.956054688 1274.24126322 540.87109375 1276.17232937 558.077148438 c 1
 1273.37980917 602.87890625 1250.35646222 629.744140625 1140.77246148 629.999023438 c 1
 998.486298564 624.137695312 862.110756572 575.036132812 751.374947999 524.383789062 c 0
 668.202466653 486.33984375 594.351195692 438.356445312 551.40232045 381.875976562 c 0
EndSplineSet
EndChar

StartChar: seven
Encoding: 55 55 26
Width: 1866
Flags: HW
LayerCount: 2
Fore
SplineSet
1861.0625 1552.67773438 m 1
 1459.80219506 722.176757812 l 1
 1473.9772882 627.512695312 1470.99372818 533.479492188 1475.50089851 426.663085938 c 2
 1477.09029144 389.014648438 l 1
 1315.73826189 348.622070312 l 1
 1222.88609675 182.661132812 1128.59732411 11.2685546875 1037.11386183 -164.66796875 c 2
 1022.38173845 -193 l 1
 986.624641591 -193 l 2
 834.764407197 -193 690.47235689 -211.834960938 559.541605083 -233.215820312 c 2
 457.193400746 -249.928710938 l 1
 499.171199035 -167.11328125 l 2
 578.934745239 -9.75390625 659.651078392 144.125 725.920699849 304.008789062 c 1
 292.932617188 271.578125 l 1
 313.833984375 684.434570312 l 1
 359.886054757 688.4140625 l 2
 553.012149753 704.501953125 735.409311974 719.674804688 917.610187352 735.07421875 c 1
 963.465977066 812.056640625 1011.10744655 891.499023438 1057.6051473 970.19140625 c 1
 730.595509759 948.33984375 427.766289343 916.318359375 149.5390625 871.040039062 c 1
 88 860.749023438 l 1
 89.6806640625 919.858398438 l 2
 93.7119140625 1061.6328125 103.763671875 1232.63378906 119.807617188 1433.15039062 c 2
 123.052734375 1473.70605469 l 1
 165.844726562 1477.54785156 l 1
 542.988788605 1509.91503906 931.93806593 1531.05957031 1340.75475487 1543.95898438 c 0
 1373.61847755 1545.30371094 1407.12729429 1546 1439.68438509 1546 c 2
 1710.66210938 1546 l 2
 1733.02441406 1546 1755.38574219 1546.63867188 1777.75292969 1547.91699219 c 2
 1861.0625 1552.67773438 l 1
EndSplineSet
EndChar

StartChar: eight
Encoding: 56 56 27
Width: 2118
Flags: HW
LayerCount: 2
Fore
SplineSet
72 274.642578125 m 1
 139.876871492 505.345145491 317.788498126 644.357531744 540.73097826 754.087890625 c 1
 467.596144179 808.581054688 416.502219679 881.265625 389.774965508 964.16796875 c 0
 378.42158081 999.38671875 372.56707962 1034.70605469 372.56707962 1069.75390625 c 0
 372.56707962 1182.75683594 454.90470838 1267.20214844 517.874364025 1323.8984375 c 0
 659.943100457 1451.81445312 861.335619857 1547.609375 1092.43013006 1593.72949219 c 0
 1172.51058902 1610.58886719 1254.66354985 1619 1338.59776482 1619 c 0
 1544.30307196 1619 1711.19921875 1559.47558594 1806.9296875 1458.41503906 c 0
 1886.48144531 1374.43457031 1937.84765625 1246.27148438 1889.70800781 1098.60449219 c 0
 1850.07519531 977.036132812 1758.2421875 885.118164062 1647.1736647 819.33203125 c 1
 1764.60742188 764.721679688 1859.92382812 684.141601562 1906.31542969 565.22265625 c 0
 1923.01855469 522.405273438 1931.48046875 477.807617188 1931.48046875 432.353515625 c 0
 1931.48046875 296.829101562 1855.5234375 191.295898438 1783.62597656 114.5078125 c 1
 1611.24994732 -63.66796875 1342.9580386 -178.598632812 1025.54445893 -233.051757812 c 1
 907.37702963 -254.440429688 779.757767747 -265 642.70988868 -265 c 0
 253.681798233 -265 94.3928008076 -34.5601283106 72 274.642578125 c 1
988.277414227 1121.56054688 m 0
 958.575423419 1110.59570312 937.852515278 1098.01269531 934.256239132 1090.27929688 c 1
 947.283242952 1087.140625 976.031291964 1085 1004.70125282 1085 c 0
 1044.05451758 1085 1100.51330943 1092.74121094 1150.17948697 1100.16210938 c 0
 1247.94163698 1114.76953125 1354.17213091 1135.33007812 1409.08393308 1161.46386719 c 0
 1414.31689476 1163.95507812 1417.29374188 1166.01171875 1418.41441244 1166.91992188 c 1
 1417.77387852 1171.59082031 1421.98747319 1178 1344.000621 1178 c 0
 1204.80531765 1178 1073.69002793 1153.09082031 988.277414227 1121.56054688 c 0
1430.77977743 388.0703125 m 0
 1451.10169234 413.833007812 1459.62174328 438.270507812 1459.62174328 465 c 0
 1459.62174328 494.862304688 1407.96537301 515.762695312 1270.05219276 518 c 1
 1117.81827789 517.79296875 977.665867008 474.784179688 865.97131267 425.043945312 c 0
 782.69451555 387.958984375 712.249501861 339.818359375 672.258868912 280.125976562 c 0
 654.939127017 254.275390625 647.032173625 228.564453125 647.032173625 200 c 0
 647.032173625 161.350585938 690.138946087 140 821.00414266 140 c 0
 894.478765743 140 983.879151617 161.975585938 1060.01721396 184.1484375 c 0
 1209.39246918 227.649414062 1358.49441585 296.43359375 1430.77977743 388.0703125 c 0
EndSplineSet
EndChar

StartChar: nine
Encoding: 57 57 28
Width: 1892
Flags: HW
LayerCount: 2
Fore
SplineSet
1676.26953125 1417.92382812 m 0
 1753.48242188 1328.91601562 1809.86914062 1201.296875 1809.86914062 1052.78515625 c 0
 1809.86914062 1000.62304688 1804.86914062 954.1953125 1804.86914062 915.40234375 c 0
 1804.86914062 822.467773438 1779.23632812 758.625 1752.66113281 691.037109375 c 0
 1739.71582031 658.114257812 1723.18066406 618.483398438 1703.05078125 572.073242188 c 2
 1395.11107732 -107.46484375 l 1
 1360.75764531 -109.631835938 l 2
 1279.3775574 -114.765625 1176.58871639 -138.766601562 1053.16929336 -183.772460938 c 0
 1031.37837417 -191.520507812 999.947075681 -219.782226562 967.981383374 -249.703125 c 1
 899.058419859 -317.794921875 l 1
 873.454355939 -227.891601562 l 1
 852.562964187 -162.20703125 832.601971232 -96.10546875 812.319490363 -30.6025390625 c 2
 803.77131835 -2.99609375 l 1
 830.192940938 15.4521484375 l 2
 884.643625682 53.47265625 938.630175558 89.75390625 986.888492108 126.690429688 c 1
 1032.19167472 186.827148438 1072.35637336 246.80859375 1106.92484034 306.439453125 c 1
 971.875432343 249.338867188 820.194879723 209 639.461187551 209 c 0
 331.488540447 209 189.838867188 334.750976562 131.932617188 554.892578125 c 0
 112.329662309 629.416806914 96.509416957 718.591600982 84 817.002929688 c 1
 151.946870815 1048.67347768 312.321915992 1220.25356854 499.339296416 1347.90332031 c 0
 636.015305508 1440.59082031 799.467425516 1515.23242188 986.965138233 1557.890625 c 0
 1077.62047182 1579.29492188 1170.49215585 1590 1265.16608836 1590 c 0
 1456.1991036 1590 1594.4296875 1512.26464844 1676.26953125 1417.92382812 c 0
1170.47831697 981.6875 m 1
 1156.15826592 1082 l 1
 1156.15826592 980 l 1
 984.896757383 980 841.007496291 926.901367188 729.462900013 864.46484375 c 0
 658.97294905 825.0078125 596.709682188 777.412109375 562.21573228 725.102539062 c 0
 548.206523849 703.858398438 543.534303803 687.18359375 543.534303803 674 c 0
 543.534303803 620.198242188 578.730843191 596.200195312 693.447737427 596 c 1
 781.331036152 597.671875 871.145391419 622.93359375 947.88519517 651.303710938 c 0
 1079.02032813 699.782226562 1209.35387037 769.104492188 1273.73768003 855.73046875 c 0
 1290.86276635 878.772460938 1296.77835687 897.538085938 1296.77835687 914 c 0
 1296.77835687 953.205078125 1259.63372847 978.256835938 1170.47831697 981.6875 c 1
EndSplineSet
EndChar

StartChar: colon
Encoding: 58 58 29
Width: 812
Flags: HW
LayerCount: 2
Fore
SplineSet
345.859835514 1104.60862767 m 1
 389.925087141 1118.4810217 438.76636845 1128 490 1128 c 0
 587.475081293 1128 671.689402811 1096.9451621 728.443691728 1035.94819916 c 1
 764.074894245 1008.93803804 791.647807778 973.563373707 807.481088084 922.105212712 c 1
 800.035578144 802.977053668 754.605864451 719.47921262 707.075851186 643.990368023 c 1
 659.961503024 622.343235084 610.33471304 600 542 600 c 0
 421.246962217 600 326.550251313 659.39843734 269.276866199 724.236231809 c 0
 245.408920881 751.256547263 230.748216356 778.020734828 220.676021969 811.594716123 c 1
 225.747518115 929.08437683 268.914094843 1022.05226008 345.859835514 1104.60862767 c 1
286 209 m 0
 435.566589552 209 598.113053823 154.740872396 615.158437017 -19.1220361838 c 1
 607.952055089 -132.62255154 567.32892684 -204.807929882 519.991500877 -277.20634606 c 1
 464.80812746 -299.746033794 403.278547738 -315.999999999 342 -316 c 0
 203.117577012 -316 82.908414572 -241.002370398 60.764290834 -105.884920501 c 1
 53.6491503925 -91.2902646772 46 -72.959207361 46 -48 c 0
 46 -34.1513903227 49.8525412514 -16.4537471125 55.5543907202 -4.77853153408 c 0
 84.0291944869 66.2885592994 119.169961165 125.6585977 160.966721941 182.286467139 c 2
 173.457008763 199.20879122 l 1
 194.245083603 202.40695658 l 2
 223.159457382 206.855321777 253.735237289 209 286 209 c 0
EndSplineSet
EndChar

StartChar: semicolon
Encoding: 59 59 30
Width: 1054
Flags: HW
LayerCount: 2
Fore
SplineSet
680.452927427 1136.94165489 m 1
 813.908909026 1134.77862434 927.299252731 1087.68066021 969 964.391494364 c 1
 969 956 l 2
 969 844.676750085 923.05665711 764.656916099 880.941200182 696.219298589 c 1
 847.715149473 686.989840059 810.163093921 678.999999999 771 679 c 0
 737.570407681 679 700.860238239 684.010551624 666.13581328 692.392309374 c 1
 660.169333251 692.019404372 658.999966878 691.999999999 655 692 c 2
 641 692 l 2
 552.83195931 692 477.150293183 722.983901581 431.355978755 782.71984501 c 1
 413.700981978 792.297680762 401.968357167 798.943276372 389.760716476 806.267860786 c 2
 352.714036713 828.49586864 l 1
 392.964616331 930.670416901 l 1
 408.99813568 1003.74558103 447.110012448 1063.25871864 500.301308416 1114.17038763 c 1
 532.087217295 1130.06334208 569.537507199 1146 619 1146 c 0
 641.114580948 1146 662.410442306 1142.48540247 680.452927427 1136.94165489 c 1
-12.0106161293 -520.374842341 m 2
 160.165565147 -302.545885726 265.11764442 -87.2938625325 305.911264365 125.597841559 c 2
 314.013629841 167.882061388 l 1
 910.831025835 155.499957736 l 1
 885.799175294 88.2168944996 l 2
 778.369151794 -200.544060383 595.834928307 -486.504313786 339.863142605 -770.166978683 c 2
 310.256251756 -802.976725798 l 1
 -46.1871177666 -563.61329517 l 1
 -12.0106161293 -520.374842341 l 2
EndSplineSet
EndChar

StartChar: equal
Encoding: 61 61 31
Width: 1300
Flags: HW
LayerCount: 2
Fore
SplineSet
1098.66755286 211.437724153 m 2
 772.717793761 168.455338338 467.592599391 115.837359399 120.187290928 73.3767105872 c 2
 55.7662753298 65.503030903 l 1
 63.3493191795 129.958903626 l 2
 77.0643110836 246.53633481 78.9518330289 403.023769454 95.4473770652 526.740349725 c 2
 100.809624005 566.957201776 l 1
 141.202470986 570.773848735 l 2
 389.633811424 594.247676177 669.442702679 589.735618096 913.737465462 605.395538787 c 0
 989.701715574 610.265041999 1056.92089332 619.173995687 1115.16608814 631.835994561 c 2
 1185.00084157 647.017462699 l 1
 1176.65068082 576.041096374 l 2
 1170.42195355 523.096914586 1165.42333801 463.544748892 1160.75999991 402.921353517 c 1
 1137.78844549 216.59652318 l 1
 1098.66755286 211.437724153 l 2
1160.4951223 757.00240345 m 2
 921.881704377 754.685768324 716.962031312 724.131703092 490.449439576 692.975696051 c 0
 400.57478246 680.613754366 300.578226851 667.425830322 190.438968265 653.408106501 c 2
 129.369184886 645.635588616 l 1
 133.093406672 707.085248081 l 2
 140.694999879 832.511535994 150.478250566 985.275205706 165.370577116 1108.13689974 c 2
 170.316504798 1148.94080312 l 1
 211.239623856 1152.77734553 l 2
 458.444444219 1175.95279744 730.250090089 1168.45606249 972.55029188 1184.88319481 c 0
 1049.06013907 1190.07030309 1119.96455688 1199.77298838 1185.24726851 1213.85357325 c 2
 1249.82128147 1227.78130153 l 1
 1246.95186408 1161.78470156 l 2
 1243.4640931 1081.56596908 1235.82554999 1006.58634121 1224.60498641 925.631392821 c 1
 1205.61568836 757.440467198 l 1
 1160.4951223 757.00240345 l 2
EndSplineSet
EndChar

StartChar: question
Encoding: 63 63 32
Width: 1582
Flags: HW
LayerCount: 2
Fore
SplineSet
1017.27926721 1334.98399992 m 1
 848.476930436 1311.9457884 716.999969892 1251.37227491 594.289710008 1169.56543499 c 2
 556.185947212 1144.16292646 l 1
 367.52344428 1370.2326498 l 1
 189.201576254 1558.74411533 l 1
 227.693687507 1593.73694374 l 2
 377.603352458 1730.01845733 528.928234165 1832.05526692 682.141707681 1898.76045267 c 0
 834.916803514 1965.27478011 989.95272298 1999 1146 1999 c 0
 1308.10873703 1999 1428.16510549 1949.70624861 1530.21210016 1883.91279152 c 1
 1676.79566114 1737.32923054 1762.36280436 1564.73985013 1781.50905356 1296.69236145 c 1
 1722.86766579 1090.17269151 1591.65167912 935.846341528 1446.51537501 818.800934987 c 0
 1306.83065171 706.151964583 1128.07893635 608.754509752 912.921481677 572.829747031 c 1
 857.42031294 297.458563682 l 1
 805.5258864 310.549049656 l 2
 659.918243025 347.278905643 518.623902911 376.979995131 370.166844355 412.391770567 c 2
 313.580122461 425.889520744 l 1
 552.599554234 1050.65318399 l 1
 596.616545509 1039.41480324 l 2
 649.148438157 1026.00240512 720.356228496 1016 784 1016 c 0
 906.910404377 1016 1012.30302918 1055.08080037 1098.11702451 1100.5622179 c 0
 1152.6487661 1129.46404094 1200.43250117 1165.13895828 1226.16747041 1203.44216832 c 0
 1236.31216376 1218.54124679 1239 1229.47226749 1239 1238 c 0
 1239 1252.66251469 1216.30472839 1277.32646053 1176.46201769 1297.49998493 c 0
 1137.09597554 1317.43215817 1075.38056533 1334.33552454 1017.27926721 1334.98399992 c 1
544.522981079 -63.0470166208 m 1
 600.469093301 -102.23123849 636.853540693 -165.876096059 640.929509296 -243.319499511 c 2
 652.210722517 -457.662550696 l 1
 582.867556456 -336.31201009 l 1
 535.548209314 -388.974059971 464.287295484 -403 396 -403 c 0
 374.241854567 -403 355.599765953 -401.174889194 336.787510831 -398.487424177 c 2
 276.292837135 -389.845327933 l 1
 286.525726983 -359.146658387 l 1
 255.697796626 -348.363768006 227.703848976 -331.097298232 206.174219095 -309.99958068 c 1
 164.642166518 -309.791295562 132.330442177 -299.348156078 102.161837756 -280.492778314 c 1
 49.8028897224 -189.553552781 l 1
 57.9744305435 -95.580833339 90.0510817651 -29.8358754749 147.993462167 22.0073069898 c 2
 164.656822323 36.9166292347 l 1
 186.912533938 34.7628506913 l 2
 249.127607479 28.7420371228 308.000325614 27.7490156872 370.657141776 7.53713950584 c 0
 392.291599007 0.558282334726 416.350369708 -9.5218774238 439.660248406 -20.8564203681 c 1
 470.081565142 -26.2053692491 496.701735933 -35.2463884429 522.29658842 -49.253144238 c 1
 544.522981079 -63.0470166208 l 1
EndSplineSet
EndChar

StartChar: at
Encoding: 64 64 33
Width: 2240
Flags: HW
LayerCount: 2
Fore
SplineSet
1129.83177334 29.8230660562 m 1
 1064.2655151 -9.87634605105 978.78525771 -40.5590170995 904.39287246 -44.5002962739 c 1
 612.376714511 -436.718077048 l 1
 576.846843753 -424.028837491 l 2
 542.697789433 -411.832746663 509.806691458 -398.60396693 479.027456053 -383.518356066 c 1
 151.883859742 -281.064292269 17 48.1922895513 17 440 c 0
 17 640.650300211 76.768329528 809.543720504 149.245473729 949.016544219 c 0
 277.848139139 1196.49562303 475.122616036 1395.2214039 699.843035493 1544.02276273 c 0
 839.887991465 1636.75523357 999.478972181 1713.09368222 1180.31899398 1755.64427558 c 0
 1263.21586854 1775.14942254 1345.18820216 1785 1426 1785 c 0
 1642.90656914 1785 1828.12602544 1717.57411421 1979.67203194 1586.85670577 c 1
 2124.8733182 1389.43390428 2228 1130.05985519 2228 807 c 0
 2228 635.443191653 2178.68262404 490.43847162 2118.66204993 369.784868562 c 0
 1975.60083449 82.2026293613 1739.23411638 -139.631372983 1474.37289764 -299.651692639 c 2
 1444.92454274 -317.443407055 l 1
 1417.4 -296.8 l 2
 1321.11760868 -224.588206509 1227.03633426 -154.39301801 1129.99192778 -90.6209794646 c 2
 1098.73603514 -70.0813928718 l 1
 1108.93153696 -34.0972688051 l 2
 1115.14133876 -12.1803212832 1122.71353397 10.471923345 1129.83177334 29.8230660562 c 1
1324.37678847 1099.59716443 m 1
 1481.53742581 1073.98438304 1609.49016208 987.834316519 1645.14152726 829.023689858 c 1
 1640.3625885 637.866139665 1606.60670053 472.267266687 1569.46191826 316.493126727 c 1
 1671.98968323 421.257857137 1753.48625959 549.272243087 1795.92368254 699.374979805 c 0
 1812.74517545 758.873223258 1821 816.947641322 1821 874 c 0
 1821 1097.50063845 1700.42352015 1209 1472 1209 c 0
 1306.59596661 1209 1149.37579462 1148.31564474 1020.54650092 1081.26105335 c 0
 785.810624277 959.08295362 576.861769622 772.689049463 474.48526089 530.166057903 c 0
 442.686679956 454.837380739 427.000000001 377.891694478 427 298 c 0
 427 133.131448827 509.688693458 21.5922445249 618.415766292 -28.7143115625 c 0
 656.172435885 -46.1838154039 696.779428223 -55.0000000001 742 -55 c 0
 759.1584868 -55 775.254812378 -53.731532745 790.787510833 -51.5125758232 c 2
 847.197885815 -43.4539508266 l 1
 697.293252186 -30.5380375677 596.156594385 59.4689479797 550.870661918 177.766894016 c 0
 531.798022145 227.589299954 523.000000001 283.879833909 523 346 c 0
 523 478.577703629 574.643171151 590.294878252 627.36949597 677.40793665 c 0
 729.383203898 845.952323662 883.303178967 985.277039923 1065.8205008 1073.42461012 c 0
 1128.07134442 1103.488938 1192.69180029 1125.69303859 1259.38651014 1139.88340238 c 2
 1336.99890245 1156.39667733 l 1
 1324.37678847 1099.59716443 l 1
913 399 m 0
 913 386.791926634 923.950769503 370 989 370 c 0
 1075.00191408 370 1153.72944639 404.266346589 1197.69522675 443.186873475 c 0
 1212.56367207 456.349103752 1221.05203758 469.216702342 1225.94272045 483.073637149 c 2
 1276.70936343 625.03221288 l 1
 1274.28382923 656.76351693 1264.31659828 668 1219 668 c 0
 1182.14964704 668 1139.28205671 651.61090868 1101.53798231 632.499984934 c 0
 1025.3711738 593.934512267 959.633081747 538.084505093 927.466504065 466.979438637 c 0
 917.766234761 445.536738072 913 423.42421179 913 399 c 0
EndSplineSet
EndChar

StartChar: A
Encoding: 65 65 34
Width: 2042
Flags: HW
LayerCount: 2
Fore
SplineSet
1806.22558594 -159.813476562 m 2
 1785.04980469 -157.999023438 1756.9375 -157 1722.58105469 -157 c 0
 1637.38285394 -157 1542.74931816 -161 1447.62058363 -161 c 0
 1407.73285069 -161 1375.15614788 -160.013671875 1348.77469759 -157.791015625 c 2
 1303.10999704 -153.942382812 l 1
 1298.9587564 -111.6171875 l 2
 1292.3536479 -44.2763671875 1287.78939043 20.9033203125 1279.79245734 80.0556640625 c 1
 1087.44251013 44.99609375 882.463941043 26.21484375 647.830341805 1.515625 c 1
 549.185696109 -187.724609375 l 1
 506.492188091 -178.731445312 l 2
 403.473989131 -157.030273438 247.395770335 -162.6640625 126.359375 -150.231445312 c 0
 101.306640625 -147.653320312 79.794921875 -143.830078125 60.4541015625 -137.3828125 c 2
 -2 -116.564453125 l 1
 33.763671875 -61.2939453125 l 1
 241.041992188 240.466796875 479.671380605 535.573242188 688.420835535 837.962890625 c 0
 797.873457472 996.512695312 896.962728433 1156.32421875 958.085005454 1329.40527344 c 0
 983.400198001 1401.09082031 995.561015097 1466.39941406 995.561015097 1525.31738281 c 0
 995.561015097 1549.16308594 992.587715335 1572.328125 988.617696377 1595.43457031 c 2
 976.680245528 1669.19921875 l 1
 1055.17240911 1652.74316406 l 2
 1110.2890842 1641.18847656 1188.09429121 1633.23046875 1286.67045197 1629.96777344 c 2
 1400.81692594 1626.18945312 l 1
 1381.2196986 1604.99804688 l 1
 1439.24540297 1604.85351562 1486.1912986 1601.88183594 1530.64644985 1595.37597656 c 2
 1572.06824533 1589.31445312 l 1
 1576.74629314 1550.68847656 l 1
 1616.41276707 1242.28222656 1669.96191406 926.505859375 1719.28222656 584.958984375 c 1
 1751.39453125 583.771484375 1779.35449219 582.125976562 1808.58105469 582.125976562 c 2
 1859.58105469 582.125976562 l 1
 1859.58105469 534.106445312 l 2
 1859.58105469 520.7734375 1860.58105469 506.15625 1860.58105469 487.970703125 c 0
 1860.58105469 381.283203125 1852.35058594 255.438476562 1820.96386719 166.782226562 c 0
 1815.27832031 150.720703125 1807.41601562 135.041015625 1796.97753906 122.603515625 c 1
 1814.09960938 46.421875 1833.75683594 -23.7939453125 1858.81152344 -92.4208984375 c 1
 1884.27734375 -166.50390625 l 1
 1806.22558594 -159.813476562 l 2
1167.03675434 817.481445312 m 1
 1095.92094499 711.20703125 1029.44841418 608.99609375 965.994488554 509.084960938 c 1
 1047.3946278 524.422851562 1128.35540986 541.297851562 1211.40234837 557.833007812 c 1
 1167.03675434 817.481445312 l 1
EndSplineSet
EndChar

StartChar: B
Encoding: 66 66 35
Width: 2106
Flags: HW
LayerCount: 2
Fore
SplineSet
262.331054688 897.098632812 m 1
 259.049804688 968.142578125 l 2
 252.291992188 1114.453125 231.001953125 1283.53515625 231.001953125 1440.87597656 c 2
 231.001953125 1478.30371094 l 1
 269.5625 1487.43261719 l 1
 552.763809717 1550.70410156 824.950865869 1606.89257812 1140.95417914 1631.30175781 c 0
 1219.59165107 1637.75488281 1294.96364817 1641 1367.09751417 1641 c 0
 1516.42640149 1641 1653.10262294 1627.05332291 1767.21386719 1589.02148438 c 1
 1773.32421875 1584.72753906 l 1
 1907.85267187 1496.06501745 1985.16909385 1389.63811818 2003.51953125 1257.99121094 c 1
 1987.08199594 1159.28068318 1933.84234234 1071.09177741 1841.88671875 980.772460938 c 0
 1778.55566406 918.568359375 1690.58354999 854.51953125 1585.2207168 791.372070312 c 1
 1816.67682268 762.435022795 1974.915069 662.103552266 1997.49414062 436.189453125 c 1
 1986.55232071 386.752196506 1962.92151859 345.544419243 1922.58300781 298.98046875 c 0
 1830.45214844 192.630859375 1690.91483004 112.790039062 1541.85668325 44.3818359375 c 1
 1255.82632747 -95.58203125 900.558439894 -194.3671875 497.138207351 -225.913085938 c 1
 263.9375 -234.943359375 l 1
 84 -32.513671875 l 1
 93.83203125 -4.2451171875 l 1
 195.611328125 271.192382812 254.374023438 602.478515625 317.336914062 920.6328125 c 1
 262.331054688 897.098632812 l 1
1299.81716392 906.645507812 m 0
 1310.18254879 916.495117188 1317.74309586 925.311523438 1322.6092318 932.124023438 c 1
 1297.66962781 935.06640625 1265.61328685 934 1237.86674168 934 c 0
 1098.49879946 934 972.261115983 916.735351562 829.921118399 892.86328125 c 1
 764.903989353 629.904296875 l 1
 916.560844144 689.374023438 1055.32301712 750.200195312 1174.44711868 818.8359375 c 0
 1231.69862253 851.821289062 1273.72070893 881.849609375 1299.81716392 906.645507812 c 0
1356.24414852 275.955078125 m 1
 1282.54993603 296.405683785 1201.20180502 298 1073.09750675 298 c 0
 926.691703775 298 808.230162322 292.100585938 663.234665872 277.55078125 c 1
 649.799419139 207.5546875 638.448607554 141.98046875 628.868829668 79.513671875 c 1
 812.527337911 104.16796875 990.685545535 140.3671875 1144.35006264 186.978515625 c 0
 1230.06851432 212.98046875 1309.08879877 241.705078125 1356.24414852 275.955078125 c 1
EndSplineSet
EndChar

StartChar: C
Encoding: 67 67 36
Width: 2130
Flags: HW
LayerCount: 2
Fore
SplineSet
1340.19912213 684 m 1
 1344.38487259 738.633789062 l 2
 1349.82760518 809.673828125 1360.43862925 876.970703125 1378.52345953 936.405273438 c 1
 1345.31713433 946.639648438 1308.41947164 952 1267.01657553 952 c 0
 1224.64894564 952 1175.75234111 946.841796875 1121.29044824 936.279296875 c 1
 942.926780174 879.453125 797.102189289 780.09765625 687.987761262 665.309570312 c 0
 625.696964746 599.780273438 573.306997407 529.026367188 543.078672356 451.239257812 c 0
 530.414577482 418.651367188 524.760252905 390.734375 524.760252905 367.8828125 c 0
 524.760252905 247.778320312 616.031819717 187 786.480690362 187 c 0
 937.153042296 187 1055.08415242 232.760742188 1158.08755237 294.416015625 c 0
 1286.30810864 371.166015625 1395.51576284 478.102539062 1489.61553943 600.681640625 c 2
 1512.37005828 630.323242188 l 1
 2050.36132812 475.037109375 l 1
 2016.77929688 418.838867188 l 2
 1941.54003906 292.9296875 1828.79980469 188.546875 1704.35627009 104.560546875 c 0
 1512.0662876 -24.0458984375 1272.78717095 -127.623046875 999.781129014 -175.133789062 c 0
 916.290281534 -189.6640625 834.788608262 -197 755.374572796 -197 c 0
 430.374512887 -197 209.404296875 -78.5576171875 112.997070312 137.981445312 c 0
 77.626953125 217.422851562 61 310.897460938 61 417.71484375 c 0
 61 630.037109375 152.196289062 810.634765625 246.493164062 950.54296875 c 1
 366.143773963 1122.10253906 539.011287707 1279.09082031 731.46572536 1392.21386719 c 0
 897.47221169 1489.79003906 1111.19583432 1580 1371.06117567 1580 c 0
 1654.75680306 1580 1893.78808594 1503.12402344 2003.80371094 1318.61914062 c 0
 2041.10058594 1256.0703125 2059 1183.12402344 2059 1103 c 0
 2059 976.967773438 2021.42480469 875.483398438 1977.24316406 780.4921875 c 2
 1966.55273438 757.508789062 l 1
 1941.77832031 752.15234375 l 2
 1794.883075 720.659179688 1613.68491224 702.071289062 1449.2685083 687.237304688 c 0
 1426.23640589 685.159179688 1411.17671259 684 1398.949419 684 c 2
 1340.19912213 684 l 1
EndSplineSet
EndChar

StartChar: D
Encoding: 68 68 37
Width: 1962
Flags: HW
LayerCount: 2
Fore
SplineSet
254.69140625 787.034179688 m 1
 244.358398438 865.611328125 l 2
 225.73046875 1007.25878906 216.854492188 1148.79101562 211.9921875 1312.30957031 c 2
 210.950195312 1347.36425781 l 1
 246.137695312 1358.94042969 l 1
 473.931360871 1430.96191406 686.534058605 1484.73535156 876.350618771 1520.49511719 c 0
 1068.06012916 1556.5078125 1237.02995474 1575.39160156 1394.38447729 1578 c 1
 1560.82157137 1578 1697.99975721 1566.33789062 1798.37988281 1506.83300781 c 0
 1956.44054892 1411.87781885 1930.52942844 1236.41326985 1961.49707031 1045.25976562 c 1
 1877.83149904 849.602141577 1746.53159031 679.705471465 1594.09230942 531.297851562 c 1
 1340.42431062 287.87890625 1027.48152639 71.8955078125 696.742053979 -100.758789062 c 1
 589.278858085 -160.264648438 484.485640502 -211.801757812 382.291666338 -255.325195312 c 2
 351.45703125 -268.606445312 l 1
 110 -72.421875 l 1
 117.331054688 -41.3046875 l 1
 185.072265625 229.178710938 242.795898438 513.37109375 305.348632812 819.938476562 c 1
 254.69140625 787.034179688 l 1
1314.14365814 814.104492188 m 0
 1332.63819355 846.87109375 1341.84534297 873.591796875 1344.07824298 889.68359375 c 1
 1342.84513318 957.469726562 1309.8594462 980 1193.82888217 980 c 0
 1070.42394151 980 968.856023947 958.995117188 849.746908416 931.025390625 c 1
 787.385125528 709.779296875 727.766167337 475.090820312 679.538694313 243.904296875 c 1
 840.199809215 334.97265625 987.300939365 447.604492188 1110.61930896 567.6328125 c 0
 1191.19902216 646.0625 1265.83700426 728.5234375 1314.14365814 814.104492188 c 0
EndSplineSet
EndChar

StartChar: E
Encoding: 69 69 38
Width: 1954
Flags: HW
LayerCount: 2
Fore
SplineSet
1553.26240054 895.744140625 m 2
 1553.26240054 805.154296875 1541.37080109 716.931640625 1541.37080109 633.170898438 c 0
 1541.37080109 612.03515625 1542.39695829 593.999023438 1544.94440408 580.641601562 c 2
 1552.87072943 539.091796875 l 1
 1506.79500442 526.688476562 l 2
 1212.16436995 447.375976562 895.084963216 390.208007812 543.066593072 345.141601562 c 1
 538.474269103 282.754648262 559.454435992 212.416558717 577.982330703 194.420898438 c 1
 613.649739039 196.801757812 658.965347604 204.2421875 713.26511023 217.282226562 c 0
 882.387851479 257.89453125 1042.41981122 315.4375 1223.10160098 382.361328125 c 0
 1334.12716454 423.485351562 1460.55564324 471.408203125 1602.33847406 526.114257812 c 2
 1664.32385849 550.030273438 l 1
 1678.52114449 492.142578125 l 2
 1694.640625 422.299804688 1728.19824219 343.509765625 1759.3359375 269.346679688 c 0
 1774.12792969 234.114257812 1790.52832031 199.489257812 1808.54296875 165.458007812 c 2
 1831.75878906 121.602539062 l 1
 1784.92285156 100.456054688 l 1
 1529.02946607 -9.8935546875 1293.12204964 -92.373046875 1084.75829706 -146.858398438 c 1
 876.507506224 -204.513671875 692.873930949 -234 532.746956651 -234 c 0
 294.930664062 -234 203.653320312 -66.498046875 161.311523438 76.890625 c 0
 124.4609375 201.688476562 116.047851562 346.463867188 115.927734375 493.6875 c 1
 107.728515625 568.213867188 97.900390625 637.134765625 83.021484375 704.0703125 c 2
 76 735.65625 l 1
 167.408203125 794.888671875 l 1
 216.422851562 908.885742188 269.927734375 1014.99316406 269.927734375 1159.14550781 c 2
 269.927734375 1160.62207031 l 1
 284.453125 1385.32519531 l 1
 323.699099273 1392.25 l 1
 710.662767133 1455.640625 1088.41319028 1524.99414062 1495.99501664 1591.20507812 c 0
 1622.70748328 1611.37109375 1735.59472656 1633.98925781 1853.453125 1651.44921875 c 2
 1927.93261719 1662.48339844 l 1
 1910.54980469 1589.22558594 l 1
 1879.91601562 1467.29003906 1871.92773438 1309.93945312 1871.92773438 1156.42773438 c 2
 1871.92773438 1117.46582031 l 1
 1831.58691406 1109.32226562 l 1
 1490.76710466 1043.41503906 1152.98719349 990.315429688 773.256244717 946.151367188 c 1
 748.41838425 890.491210938 727.005270641 840.329101562 705.58159986 790.86328125 c 1
 943.899218851 839.982421875 1182.4036998 900.329101562 1482.07327285 974.216796875 c 2
 1543.80000655 989.436523438 l 1
 1551.75483626 933.83203125 l 2
 1552.75671196 926.833984375 1553.26240054 919.790039062 1553.26240054 912.745117188 c 2
 1553.26240054 895.744140625 l 2
EndSplineSet
EndChar

StartChar: F
Encoding: 70 70 39
Width: 1834
Flags: HW
LayerCount: 2
Fore
SplineSet
18.244140625 -98.4892578125 m 1
 94.34765625 197.436523438 166.92578125 498.037109375 230.288085938 821.680664062 c 1
 222.747070312 903.00390625 208.688476562 977.76953125 208.688476562 1073.44921875 c 0
 208.688476562 1166.68164062 213.284179688 1259.92285156 218.78125 1345.61425781 c 2
 221.192382812 1383.18945312 l 1
 261.066111174 1390.06933594 l 1
 769.144625316 1472.59960938 1286.35317514 1568.50878906 1793.21777344 1645.29199219 c 1
 1855.64160156 1655.8046875 l 1
 1852.62988281 1592.57421875 l 2
 1846.91601562 1479.19433594 1827.36523438 1349.46972656 1816.45507812 1242.08789062 c 0
 1812.55371094 1203.69335938 1810.68847656 1172.92871094 1810.68847656 1150.79199219 c 2
 1810.68847656 1113.79882812 l 1
 1772.86425781 1104.24121094 l 1
 1455.69754584 1027.02246094 1099.24393219 988.2890625 736.139446006 943.370117188 c 1
 694.286146071 779.927734375 l 1
 795.480982446 801.162109375 892.349953641 825.45703125 1000.36460041 851.436523438 c 2
 1487.60357317 968.745117188 l 1
 1493.74340867 911.520507812 l 2
 1496.11909738 889.375 1497.22775211 864.372070312 1497.22775211 836.16015625 c 0
 1497.22775211 766.149414062 1491.82174046 679.065429688 1491.82174046 612.233398438 c 0
 1491.82174046 578.19140625 1492.5006595 546.872070312 1497.12533353 527.67578125 c 2
 1507.62271005 484.103515625 l 1
 1458.7437067 471.524414062 l 2
 1192.35931522 402.973632812 900.102089874 356.8984375 580.219300324 319.423828125 c 1
 538.061912234 155.182617188 508.606539791 7.9208984375 488.134438263 -154.581054688 c 1
 479.947287031 -223.360351562 l 1
 411.33739703 -195.770507812 l 2
 385.318854256 -185.307617188 357.113622006 -176.907226562 328.922115958 -172 c 1
 236.708007812 -172 l 1
 200.279296875 -170.598632812 171.536132812 -170 143.688476562 -170 c 0
 112.459960938 -170 83.2353515625 -167.05078125 56.0068359375 -160.64453125 c 2
 6 -148.877929688 l 1
 18.244140625 -98.4892578125 l 1
EndSplineSet
EndChar

StartChar: G
Encoding: 71 71 40
Width: 2232
Flags: HW
LayerCount: 2
Fore
SplineSet
1583.65308095 693.854492188 m 1
 1512.39769496 697.042220059 1443.33042568 704.056866466 1376.8042499 717.072265625 c 2
 1331.60140381 725.915039062 l 1
 1333.62204362 769.231445312 l 2
 1336.97487056 841.116210938 1348.00987263 909.727539062 1365.64757266 969.772460938 c 1
 1354.29122335 970.630859375 1344.86191756 971 1333.57004568 971 c 0
 1242.65581369 971 1168.42355965 951.46484375 1088.29057979 925.334960938 c 0
 909.571592388 866.416992188 762.678461954 764.872070312 654.888819669 645.98828125 c 0
 593.899400081 578.721679688 543.819147554 506.631835938 513.780979642 426.401367188 c 0
 501.14652105 392.65625 495.066922323 362.653320312 494.414868201 338.708007812 c 0
 494.817332229 220.887695312 585.211584863 167 748.930207564 167 c 0
 880.618905256 167 1020.11952249 215.547590204 1118.75825066 272.609375 c 1
 1026.04593001 267.866210938 938.456446071 266 844.772803978 266 c 2
 763.203641112 266 l 1
 916.484198056 610.319335938 l 1
 950.662441666 611.935546875 l 2
 1221.77968217 624.756835938 1461.83959521 636.283203125 1711.44632938 657.787109375 c 0
 1860.28106275 670.609375 1982.00292969 693.908203125 2112.66699219 720.942382812 c 2
 2209.73925781 741.026367188 l 1
 2169.64160156 650.370117188 l 2
 2067.45703125 419.345703125 1995.25976562 195.375976562 1983.96777344 -120.8203125 c 2
 1982.43945312 -163.612304688 l 1
 1938.47347963 -169.513671875 l 2
 1778.56630567 -190.405273438 1629.95828329 -209.958007812 1481.29722302 -237.064453125 c 2
 1411.79366132 -249.73828125 l 1
 1416.76778392 -183.416992188 l 2
 1420.9057797 -128.24609375 1426.41548104 -74.07421875 1432.81954689 -24.650390625 c 1
 1285.95657526 -100.434570312 1116.5296191 -156.178710938 928.962662839 -184.359375 c 0
 855.235828744 -195.436523438 782.060172776 -201 709.528251261 -201 c 0
 679.704314847 -201 649.067130707 -199.909179688 621.231595382 -197.998046875 c 1
 186.565429688 -197.076171875 45 72.369140625 45 439.137695312 c 0
 45 485.875699539 47.3318252973 530.183615292 52.8076171875 574.176757812 c 1
 133.809130937 850.428189033 309.46062856 1075.33201622 518.974533531 1245.59667969 c 0
 666.832745665 1365.75683594 846.48041621 1466.05273438 1058.35744771 1523.65625 c 0
 1159.68062662 1551.203125 1264.05816432 1565 1370.84216651 1565 c 2
 1397.46510996 1565 l 2
 1405.81181871 1565 1414.63066873 1564.69238281 1423.10841229 1564.19433594 c 0
 1429.45216053 1564.74804688 1435.75119055 1565 1442.19165495 1565 c 2
 1460.2952565 1565 l 2
 1634.73169385 1565 1801.59411179 1517.15234375 1905.43503078 1434.38085938 c 0
 1983.99121094 1370.72851562 1985.25390625 1287.33496094 1994.65039062 1207.45898438 c 0
 1999.57324219 1165.61914062 2002 1121.80273438 2002 1076 c 0
 2002 1033.13877089 1999.26629198 986.868659304 1994.96289062 941.685546875 c 1
 1962.43664509 869.999651123 1933.19676717 799.308617654 1912.7823392 734.528320312 c 2
 1896.4945056 682.841796875 l 1
 1842.43745089 700.970703125 l 2
 1818.82102813 708.891601562 1793.28380159 713 1764.86172954 713 c 0
 1763.37666848 713 1753.98376124 712.322265625 1745.06923502 712.043945312 c 2
 1583.65308095 693.854492188 l 1
EndSplineSet
EndChar

StartChar: H
Encoding: 72 72 41
Width: 2078
Flags: HW
LayerCount: 2
Fore
SplineSet
1501.94451234 1506 m 2
 1631.86356461 1476.52441406 1837.84375 1499.5703125 1989.51660156 1470 c 2
 2041.43652344 1460.015625 l 1
 1857.5859375 710.560546875 l 2
 1838.49023438 630.287109375 1820.67382812 543.805664062 1804.13964844 451.021484375 c 2
 1753.34128225 174.375976562 l 1
 1736.18316993 72.5869140625 1720.01895669 -26.7578125 1704.16265317 -128 c 1
 1696.696366 -132.05078125 l 1
 1072.82937097 -82.7529296875 l 1
 1091.29976521 -59.7294921875 l 1
 1108.80872705 7.939453125 1125.34159411 85.2587890625 1143.73134533 160.860351562 c 1
 1001.98080951 137.70703125 811.582631797 112.41796875 572.404850867 84.8017578125 c 1
 565.360630427 15.7373046875 561.875176126 -48.8486328125 557.061730223 -124 c 1
 552.094329458 -138.646484375 l 1
 489.262941285 -124 l 2
 389.94110878 -100.982421875 211.616210938 -122.575195312 88.744140625 -90 c 2
 40 -77.001953125 l 1
 52.466796875 -64.79296875 l 1
 177.599609375 419.272460938 274.740234375 931.619140625 382.150154892 1504 c 1
 392.389724211 1518.35742188 l 1
 450.129081493 1504 l 2
 542.625581763 1481.00097656 726.581743434 1510.59277344 857.659122766 1478 c 2
 907.356171282 1465.64257812 l 1
 897.180487994 1457.81933594 l 1
 862.211787984 1299.70019531 823.037083024 1153.79296875 783.240274743 992.7734375 c 2
 692.103185435 616.190429688 l 1
 885.080892582 649.923828125 1076.56094358 686.79296875 1287.25602765 728.690429688 c 1
 1445.37186061 1518.66015625 l 1
 1501.94451234 1506 l 2
EndSplineSet
EndChar

StartChar: I
Encoding: 73 73 42
Width: 1598
Flags: HW
LayerCount: 2
Fore
SplineSet
1235.12367434 -134.393554688 m 1
 1178.66245223 -133.998046875 l 2
 790.101954437 -131.278320312 418.86231117 -136.375 84.2265625 -167.7578125 c 1
 22 -173.840820312 l 1
 28.544921875 -111.661132812 l 2
 35.7734375 -46.90234375 37.904296875 17.4794921875 42.33203125 98.908203125 c 2
 43.740234375 124.80078125 l 1
 67.44921875 137.924804688 l 2
 178.930664062 199.63671875 306.51708573 241.14453125 441.967155217 277.588867188 c 1
 503.107282584 502.067382812 553.499124479 740.053710938 608.545195 999.836914062 c 1
 234.90625 994.060546875 l 1
 370.616263939 1403.01367188 l 1
 405.804077741 1407.72265625 l 2
 802.579750409 1460.8203125 1172.07593551 1511.44335938 1543.04882812 1578.96582031 c 1
 1544.77636719 1579.31933594 l 1
 1560.71096442 1581.44691624 1576.2250435 1585.66446734 1600.32226562 1579.90332031 c 0
 1639.01269531 1571.22070312 1655.20117188 1528.80273438 1647.7421875 1500.79492188 c 0
 1636.31347656 1457.88183594 1615.99707031 1425.91210938 1603.70410156 1390.88378906 c 0
 1583.89648438 1334.43847656 1570.26464844 1267.98632812 1570.26464844 1186.671875 c 2
 1570.26464844 1149.38378906 l 1
 1531.75195312 1140.25390625 l 2
 1407.46875 1110.79296875 1275.86480473 1082.84863281 1132.13411363 1059.2265625 c 1
 1038.35108494 658.571289062 l 1
 1007.7595633 541.884765625 984.877881903 437.107421875 961.207620962 328.920898438 c 1
 1276.87225532 334.350585938 l 1
 1276.87225532 285.502929688 l 2
 1276.87225532 278.631835938 1277.97090219 273.349609375 1277.97090219 258.364257812 c 0
 1276.30791133 218.5625 1272.52916692 184.408203125 1265.10149869 149.823242188 c 1
 1241.10507696 17.4833984375 l 2
 1237.21153254 -7.6884765625 1235.12367434 -40.7119140625 1235.12367434 -83 c 2
 1235.12367434 -134.393554688 l 1
EndSplineSet
EndChar

StartChar: J
Encoding: 74 74 43
Width: 2007
Flags: HW
LayerCount: 2
Fore
SplineSet
691.446423038 446 m 0
 691.446423038 335.516306798 783.075467981 270 899.786929429 270 c 0
 978.155359644 270 1038.08478582 295.204101562 1091.5845281 331.295898438 c 0
 1252.79638887 440.051757812 1328.58378461 661.377929688 1336.47388876 935.5078125 c 1
 1250.49231228 930.8828125 1160.67060816 927.438476562 1067.95149843 924.078125 c 2
 1018.97149585 922.302734375 l 1
 1010.74478134 963.465820312 l 2
 978.113815961 1126.74316406 953.184410329 1283.98632812 933.872988943 1449.83398438 c 2
 928.527701695 1495.74121094 l 1
 982.266053843 1501.51757812 l 2
 1261.39380086 1531.5234375 1564.45603556 1540.6875 1771.27148438 1605.17871094 c 1
 1824.27832031 1623.58398438 l 1
 1837.55273438 1569.06445312 l 1
 1872.89707116 1432.58542862 1889.8873405 1296.00139845 1893.01660156 1139.89941406 c 1
 1875.53497404 667.895470872 1797.85010951 217.945494432 1496.82504964 -33.779296875 c 1
 1338.89347624 -178.267923294 1134.06323387 -286 863.790925707 -286 c 0
 552.152583469 -286 328.702148438 -144.001953125 229.74609375 56.9716796875 c 0
 193.7109375 130.155273438 176 211.515625 176 299 c 0
 176 365.85546875 188.124023438 435.228515625 211.522460938 506.838867188 c 0
 235.2578125 579.486328125 272.770507812 654.055664062 323.388671875 731.0234375 c 2
 370.58203125 802.783203125 l 1
 411 727 l 1
 447.515528226 662.079476686 579.458166304 593.304836625 668.843463669 557.794921875 c 2
 721.491027825 536.879882812 l 1
 697.05908117 489.284179688 l 2
 692.493536901 480.388671875 691.446423038 472.986328125 691.446423038 446 c 0
EndSplineSet
EndChar

StartChar: K
Encoding: 75 75 44
Width: 2158
Flags: HW
LayerCount: 2
Fore
SplineSet
1223.27801557 509.178710938 m 1
 1382.81148865 461.702148438 l 1
 1545.38346654 411.637695312 1695.60260561 362.65234375 1857.25751508 316.6484375 c 1
 1924.25195312 297.072265625 l 1
 1598.37461561 -134.552734375 l 1
 795.271459808 189.0703125 l 1
 422.895877774 -133.85546875 l 1
 2 -96.349609375 l 1
 16.6748046875 -38.466796875 l 1
 143.186523438 430.2890625 252.273267418 940.788085938 345.814246796 1456.52539062 c 2
 359.011288221 1529.29101562 l 1
 429.12174185 1489.13085938 l 2
 479.619838839 1460.20410156 596.724584326 1460.328125 691.841547354 1479.25585938 c 0
 725.67939446 1485.98925781 755.262918463 1491.18652344 780.94083437 1494.84667969 c 0
 800.361657991 1497.61523438 825.277605582 1503.81835938 857.389573631 1496.30175781 c 0
 897.020253639 1487.02441406 918.507343803 1446.08496094 908.37274881 1412.52050781 c 1
 833.028447233 1109.5234375 l 1
 794.375210189 966.221679688 761.334723371 831.875976562 721.889330741 685.98046875 c 1
 973.499180169 902.107421875 1236.33453005 1122.94433594 1499.34163508 1321.43457031 c 0
 1604.29444323 1400.640625 1713.22988906 1484.55273438 1826.54248894 1541.33398438 c 1
 1891.50653361 1575.99023438 l 1
 1906.05273438 1511.19628906 l 2
 1937.70898438 1366.80273438 2014.15722656 1236.265625 2103.49707031 1133.76855469 c 2
 2142.78222656 1088.69726562 l 1
 2088.41796875 1060.88183594 l 2
 1956.44238281 993.354492188 1806.0318008 896.73046875 1662.92228415 805.546875 c 0
 1519.94392597 714.446289062 1365.04576015 608.966796875 1223.27801557 509.178710938 c 1
EndSplineSet
EndChar

StartChar: L
Encoding: 76 76 45
Width: 1771
Flags: HW
LayerCount: 2
Fore
SplineSet
1631.64550781 459.620117188 m 1
 1639.45703125 409.740234375 l 2
 1657.22558594 296.284179688 1670.39257812 193.640625 1683.68847656 81.2763671875 c 2
 1686.68066406 55.9814453125 l 1
 1576.43359375 -32.0166015625 l 1
 1346.69544419 -83.4325360434 1093.69465007 -137.803876324 837.413670891 -174.86328125 c 0
 799.118007615 -180.400375124 770.565923493 -183.231707282 743.776882092 -184.09765625 c 1
 483.749501433 -158.84920705 261.590306796 -79.5270033344 158.51171875 94.0595703125 c 0
 124.442382812 151.432617188 108 217.262695312 108 288.916992188 c 0
 108 363.33203125 132.66015625 435.118164062 150.04296875 500.3046875 c 0
 236.627929688 825.013671875 352.169921875 1147.42871094 474.682114538 1448.77050781 c 0
 489.116457015 1484.2265625 500.803812859 1512.16894531 509.89613386 1532.90722656 c 1
 509.89613386 1532.90722656 496.539463659 1598 578.042740292 1598 c 2
 582.062457885 1598 l 1
 1034.96824201 1539.06933594 l 1
 1048.21822266 1527.79394531 l 2
 1072.52296552 1507.11230469 1069.11644345 1487.56933594 1069.11644345 1477.02832031 c 0
 1069.11644345 1408.46191406 1049.72696384 1338.78125 1035.64825322 1273.11328125 c 0
 968.299124271 958.969726562 882.785829095 636.080078125 787.865532614 339.004882812 c 1
 908.864420525 346.888671875 1137.94090575 376.254882812 1160.61189744 379.55078125 c 0
 1304.12228154 400.416015625 1451.72753906 425.830078125 1578.99804688 449.732421875 c 2
 1631.64550781 459.620117188 l 1
EndSplineSet
EndChar

StartChar: M
Encoding: 77 77 46
Width: 2544
Flags: HW
LayerCount: 2
Fore
SplineSet
2140.28938195 -158 m 2
 2033.47082371 -134.206054688 1848.96557344 -152.943359375 1714.14011823 -122 c 2
 1660.05307858 -109.559570312 l 1
 1675.03791607 -94.537109375 l 1
 1735.36735145 116.852539062 1788.05872933 333.263671875 1836.44990452 559.077148438 c 1
 1617.8662169 329.267578125 1412.96845443 84.5302734375 1207.03629662 -178 c 2
 1157.68689053 -240.594726562 l 1
 1117.18593886 -178 l 1
 960.767867 76.88671875 827.514075142 338.501953125 716.215195611 619.532226562 c 1
 643.057199585 318.702148438 594.971711378 63.7431640625 570.310903196 -152 c 1
 563.597111385 -167.327148438 l 1
 503.018597731 -152 l 2
 407.528984212 -127.991210938 231.741210938 -148.521484375 110.153320312 -114 c 2
 62 -100.2421875 l 1
 74.8798828125 -87.767578125 l 1
 169.181640625 262.41796875 244.84765625 624.564453125 316.889192403 1016.44433594 c 1
 282.38671875 1192.25 l 1
 252.447265625 1221.30371094 265.21875 1286.8828125 265.21875 1286.8828125 c 1
 295.8359375 1289.94140625 l 1
 296.723760467 1366.93942976 308.791289969 1426.33191741 320.342323098 1502 c 1
 327.395767108 1504.31640625 l 1
 376.215109916 1502 l 2
 404.780889144 1500.60058594 434.90700999 1500 466.278522235 1500 c 0
 617.76752021 1500 763.015151706 1509.58496094 923.575951155 1522 c 2
 968.031277824 1525.41113281 l 1
 979.766775941 1522 l 1
 1068.72786249 1217.66308594 1170.4423745 951.723632812 1311.06970683 730 c 1
 1543.23021918 987.741210938 1776.28617824 1224.20996094 2037.42622796 1450 c 1
 2052.90407576 1449.89746094 l 1
 2546.12207031 1452.32421875 l 1
 2357.96289062 674.993164062 l 1
 2296.23708698 390.731445312 2242.10270188 123.598632812 2205.96370785 -158 c 1
 2198.75587648 -171.052734375 l 1
 2140.28938195 -158 l 2
EndSplineSet
EndChar

StartChar: N
Encoding: 78 78 47
Width: 2150
Flags: HW
LayerCount: 2
Fore
SplineSet
318.540427116 981.818359375 m 1
 301.740011178 1017.76957036 289.664197778 1049.49696365 276.048828125 1085.44140625 c 1
 335.252758519 1552.56445312 l 1
 386.493898898 1549.92285156 l 2
 528.095692679 1542.62207031 663.540750736 1534.89550781 795.318875762 1525.86425781 c 2
 826.738559263 1523.7109375 l 1
 840.405365678 1497.125 l 2
 1022.36323278 1143.15917969 1208.99521441 824.54296875 1419.57538619 528.987304688 c 1
 1484.59072397 826.305664062 1546.02775235 1131.79296875 1611.02432278 1485.64746094 c 2
 1621.31091967 1541.6484375 l 1
 1679.64507837 1526.98339844 l 2
 1722.85274732 1516.12011719 1808.9469549 1517.55371094 1883.55554 1517.55371094 c 0
 1955.5625 1517.55371094 2036.29003906 1519.41113281 2103.37109375 1505.08886719 c 2
 2153.18945312 1494.45214844 l 1
 1971.82714844 750.80078125 l 1
 1908.62890625 481.430664062 1852.73536929 229.66796875 1819.17412183 -40.541015625 c 1
 1815.78974179 -69.548828125 l 1
 1474.31768128 -213.349609375 l 1
 1272.77607715 12.048828125 l 1
 1274.3681746 13.5400390625 l 1
 1080.26574226 225.678710938 908.42452321 441.794921875 745.774095929 680.541015625 c 1
 672.371834833 387.6015625 613.717588441 114.201171875 580.712063274 -176.395507812 c 2
 574.182065671 -233.88671875 l 1
 514.096286993 -220.64453125 l 2
 434.039955211 -203.000976562 293.67578125 -206.123046875 191.708007812 -199.388671875 c 0
 154.359375 -196.922851562 124.796875 -193.106445312 100.057617188 -186.038085938 c 2
 52 -172.306640625 l 1
 64.7578125 -123.982421875 l 1
 162.067382812 223.475585938 242.728515625 586.995117188 318.540427116 981.818359375 c 1
EndSplineSet
EndChar

StartChar: O
Encoding: 79 79 48
Width: 2168
Flags: HW
LayerCount: 2
Fore
SplineSet
34 525.989257812 m 1
 41.1168811497 563.011238057 45.4330802645 595.832545093 56.041015625 638.473632812 c 0
 99.82421875 822.681640625 196.803710938 983.041015625 309.748175262 1110.86523438 c 1
 492.440601011 1307.78710938 746.05098061 1472.41210938 1062.43763174 1547.27148438 c 1
 1160.15659365 1571.71679688 1258.97383784 1584 1358.45860403 1584 c 0
 1607.19711607 1584 1792.12991251 1503.23535156 1915.12402344 1383.67285156 c 1
 2064.54589844 1231.41210938 2126.74414062 1016.13964844 2126.74414062 745.067382812 c 2
 2126.74414062 740.362304688 l 1
 2086.49114352 547.147918589 1990.96773978 384.108277487 1878.25172278 252.266601562 c 1
 1693.76846068 49.9091796875 1435.9130584 -119.120117188 1114.22482244 -196.228515625 c 1
 1015.10510734 -221.348632812 915.519169855 -234 815.896727257 -234 c 0
 347.651951491 -234 150.97265625 2.2060546875 72.970703125 332.444335938 c 0
 58.1245624512 395.300232191 45.3137679026 459.790670357 34 525.989257812 c 1
553.906860627 546.564453125 m 0
 531.413455433 497.4296875 520.05097949 444.938476562 520.05097949 388.151367188 c 0
 520.05097949 251.129882812 628.535819562 186 824.441008781 186 c 0
 1062.98520837 186 1255.59137874 259.072265625 1397.74123038 347.73046875 c 0
 1501.04860298 412.163085938 1585.24085748 493.838867188 1633.5183427 595.303710938 c 0
 1655.90744758 642.361328125 1667.12077408 691.842773438 1667.12077408 744.786132812 c 0
 1667.12077408 887.604492188 1556.11499548 954 1362.73074479 954 c 0
 1123.83296714 954 931.598105887 883.91015625 789.087375171 796.471679688 c 0
 684.707795362 732.428710938 601.617995152 650.784179688 553.906860627 546.564453125 c 0
EndSplineSet
EndChar

StartChar: P
Encoding: 80 80 49
Width: 1882
Flags: HW
LayerCount: 2
Fore
SplineSet
565.845577728 -195.454101562 m 1
 504.313752238 -180.278320312 l 2
 407.472003518 -156.393554688 227.803710938 -181 105.096679688 -148.278320312 c 2
 56 -135.185546875 l 1
 68.9111328125 -86.041015625 l 1
 151.924804688 211.393554688 220.913085938 524.01171875 285.094726562 856.364257812 c 1
 235.2890625 825.521484375 l 1
 194.44140625 1390.23632812 l 1
 236.09375 1399.84765625 l 1
 514.848338646 1460.48144531 799.451113607 1519.10839844 1107.59383739 1549.18261719 c 0
 1189.67111565 1557.69238281 1265.73089287 1562 1335.93049623 1562 c 0
 1538.90685675 1562 1741.90039062 1531.30371094 1850.29980469 1429.04492188 c 0
 1884.65039062 1396.63867188 1905.23730469 1355.24316406 1905.23730469 1310.12207031 c 0
 1905.23730469 1215.3828125 1884.35058594 1119.66601562 1843.56640625 1023.81347656 c 0
 1802.87402344 928.173828125 1741.33886719 827.643554688 1659.48242188 721.465820312 c 1
 1655.81151781 717.061523438 l 1
 1531.70200893 622.745552419 1422.00044765 551.571652259 1277.30869581 477.600585938 c 0
 1059.81388655 366.412109375 850.771454167 266.647460938 617.899759879 149.432617188 c 1
 598.272928953 53.4130859375 587.211454842 -33.6845703125 573.286414695 -136.958984375 c 2
 565.845577728 -195.454101562 l 1
1294.18494063 894.946289062 m 0
 1322.92302204 923.966796875 1334.49237789 946.291992188 1336.81321792 957.059570312 c 1
 1335.89881962 960.5546875 1282.9270715 984 1179.15236755 984 c 0
 1059.29966949 984 946.958552835 970.290039062 827.551439163 952.244140625 c 1
 719.909020465 531.731445312 l 1
 876.862426417 613.447265625 1024.27800346 695.53515625 1151.94849021 782.126953125 c 0
 1214.93110469 824.84375 1262.54422536 862.995117188 1294.18494063 894.946289062 c 0
EndSplineSet
EndChar

StartChar: Q
Encoding: 81 81 50
Width: 2204
Flags: HW
LayerCount: 2
Fore
SplineSet
2140.2578125 754.779296875 m 1
 2092.19785753 525.911480857 1987.23497513 352.038503301 1837.35213371 203.215820312 c 1
 2057.92871094 120.291992188 l 1
 1687.4421224 -234.828125 l 1
 1359.42674228 -116.55859375 l 1
 1184.12630564 -194.63671875 1007.56683102 -234 829.247623952 -234 c 0
 262.980134996 -234 88.5676997176 103.376235038 50 546.708007812 c 1
 72.3090026562 756.198391837 164.830096235 928.506219977 274.580078125 1065.33203125 c 1
 459.982321089 1283.41210938 731.030144476 1462.7578125 1066.22631782 1545.14160156 c 1
 1170.77028058 1572.30957031 1275.65012588 1586 1380.41209936 1586 c 0
 1933.95702372 1586 2135.71638487 1218.1865718 2140.2578125 754.779296875 c 1
529.09797746 319 m 0
 529.09797746 169.884649449 662.897010794 80.7379782423 815.845701903 72.0009765625 c 1
 866.984340482 72.1298828125 913.707479681 76.75 957.737299863 84.8583984375 c 1
 787.985183845 328.271484375 l 1
 863.996863462 344.694335938 l 2
 980.191794927 369.797874582 1100.65438815 395.74653084 1219.94473647 418.65625 c 1
 1297.5192443 379.920464053 1372.8577732 342.683201703 1450.22246931 311.2109375 c 1
 1548.17604108 380.998046875 1626.22074888 475.227539062 1662.9435591 594.162109375 c 0
 1674.75056063 632.401367188 1680.56174585 670.514648438 1680.56174585 709 c 0
 1680.56174585 874.145350929 1547.16532789 952 1371.86691369 952 c 0
 1233.3070202 952 1100.96199686 916.775390625 993.286607415 872.333984375 c 0
 802.483418166 793.583007812 641.058477095 669.708007812 565.084349563 496.159179688 c 0
 541.173059157 441.537109375 529.09797746 382.919921875 529.09797746 319 c 0
EndSplineSet
EndChar

StartChar: R
Encoding: 82 82 51
Width: 1964
Flags: HW
LayerCount: 2
Fore
SplineSet
1491.63675575 -207.845703125 m 1
 1451.11329893 -191.983398438 l 2
 1197.00766003 -92.521484375 939.106601059 -0.814453125 689.941434033 107.228515625 c 1
 673.036382304 102.770507812 657.271115345 97.23828125 638.656386464 90.8642578125 c 1
 625.107484711 17.4453125 616.442170932 -52.37109375 605.887047657 -129.424804688 c 2
 598.514262447 -183.251953125 l 1
 541.018335953 -173.099609375 l 2
 443.932269933 -155.956054688 304.658203125 -164.965820312 193.127929688 -152.16796875 c 0
 170.166992188 -149.532226562 150.131835938 -145.604492188 131.811523438 -138.85546875 c 2
 88 -122.71484375 l 1
 100.220703125 -77.6513671875 l 1
 186.141601562 220.559570312 256.2734375 531.955078125 321.23046875 867.456054688 c 1
 272.86328125 839.002929688 l 1
 264.6953125 915.880859375 l 2
 261.803710938 943.099609375 260.442382812 974.05859375 260.442382812 1009.1328125 c 0
 260.442382812 1041.18945312 259.056640625 1081.85058594 256.579101562 1124.0859375 c 1
 228.494140625 1397.23242188 l 1
 270.528320312 1407.58789062 l 1
 541.860006961 1470.69335938 826.792504894 1527.15234375 1132.25798315 1555.70996094 c 0
 1214.38674424 1563.8671875 1289.62201964 1568 1358.17027681 1568 c 0
 1546.76146642 1568 1734.66796875 1567.765625 1842.70703125 1469.97363281 c 0
 1948.3165235 1374.38057427 1958.32960291 1220.13523812 1977.79101562 1075.94140625 c 1
 1924.842122 959.090956545 1833.80808457 852.681526481 1683.11111626 733.262695312 c 1
 1551.50179125 634.124023438 1379.30369828 527.63671875 1167.28582339 413.508789062 c 1
 1824.46777344 208.64453125 l 1
 1491.63675575 -207.845703125 l 1
1322.71475394 905.737304688 m 0
 1358.64746951 940.590820312 1365.72108755 963.091796875 1365.72108755 966 c 0
 1365.72108755 971.739257812 1327.75529933 994 1211.46881096 994 c 0
 1094.60189616 994 981.253355773 976.866210938 860.85647908 959.659179688 c 1
 823.162469484 823.40625 789.291268507 689.7109375 753.006715493 540.561523438 c 1
 902.738829009 620.8125 1048.42902556 703.483398438 1170.86634874 786.640625 c 0
 1236.35235607 831.1171875 1287.13387581 871.224609375 1322.71475394 905.737304688 c 0
EndSplineSet
EndChar

StartChar: S
Encoding: 83 83 52
Width: 1982
Flags: HW
LayerCount: 2
Fore
SplineSet
1894.74316406 1104.81445312 m 2
 1732.05859375 1017.57324219 1550.1896081 949.999023438 1341.22795871 892.923828125 c 1
 1504.9484223 871.549963353 1651.41654921 839.41837745 1774.43164062 784.221679688 c 1
 1849.64789624 692.492611659 1901.4220404 600.478296005 1929.56835938 499.916015625 c 1
 1906.51432762 368.047464333 1830.05197147 273.499499497 1745.09863281 197.6328125 c 1
 1637.15828269 104.452148438 1491.22475386 28.451171875 1336.77314128 -29.3447265625 c 1
 1167.38031802 -106.52734375 1002.23017801 -184 736.616042301 -184 c 0
 535.940290008 -184 353.870075848 -154.21484375 173.8671875 -127.428710938 c 2
 74 -112.354492188 l 1
 145.416992188 -40.9375 l 2
 247.950195312 61.595703125 333.761656877 181.908203125 438.383904346 321.994140625 c 2
 466.881649009 360.153320312 l 1
 510.631945552 337.510742188 l 2
 581.654674501 300.752929688 652.572919459 275 749.584721896 275 c 0
 930.517221489 275 1092.7502529 307.513671875 1207.51905681 354.096679688 c 0
 1277.35618255 382.443020115 1324.18681262 406.097060044 1356.6683707 448.6171875 c 1
 1328.64973205 468.512106553 1300.8963369 481.246915448 1252.9769806 499.345703125 c 1
 1167.13335586 516.598632812 1049.04533829 529.318359375 897.057014957 537.129882812 c 0
 741.953168987 545.100585938 548.537470969 549.125 317.479492188 549.125 c 2
 278.185546875 549.125 l 1
 218.932617188 757.895507812 l 1
 213.579001086 830.153579249 206.053656544 910.052483992 200.600585938 983.53515625 c 2
 198.625976562 1010.13671875 l 1
 222.068359375 1025.51367188 l 1
 454.06811231 1171.109375 735.502601793 1303.72851562 1025.63775815 1407.3671875 c 0
 1124.62420248 1442.72558594 1225.22962096 1473.6953125 1320.62667082 1498.3984375 c 1
 1474.52103544 1543.67285156 1616.19077312 1579.81738281 1768.99707031 1614.44921875 c 1
 1815.97558594 1626.30761719 l 1
 1830.22363281 1579.99804688 l 1
 1874.88671875 1443.49511719 1877.45898438 1275.62890625 1917.86230469 1161.64257812 c 2
 1931.09570312 1124.30859375 l 1
 1894.74316406 1104.81445312 l 2
1175.91106648 919.431640625 m 1
 1199.60149217 917.161132812 1221.57690286 914.90625 1244.20032537 912.405273438 c 1
 1253.19122555 954.001953125 l 2
 1254.02182051 957.84375 1254.9674534 963.576171875 1255.31995494 966.33203125 c 1
 1227.39845532 954.245117188 1199.80940476 937.357421875 1175.91106648 919.431640625 c 1
EndSplineSet
EndChar

StartChar: T
Encoding: 84 84 53
Width: 1724
Flags: HW
LayerCount: 2
Fore
SplineSet
1723.89941406 1534.453125 m 2
 1716.28613281 1390.91113281 1680.96289062 1243.67871094 1680.96289062 1106.98046875 c 0
 1680.96289062 1105.49316406 1681.96289062 1099.20800781 1681.96289062 1088.12597656 c 2
 1681.96289062 1051.11035156 l 1
 1644.00195312 1041.64550781 l 2
 1483.43847656 1001.61621094 1295.99757481 968.96484375 1098.04897449 945.077148438 c 1
 962.077781963 419.670898438 l 2
 912.65420777 228.048828125 877.192753219 48.8330078125 846.927425384 -143.83984375 c 1
 838.567463337 -200.293945312 l 1
 778.096643796 -186.477539062 l 2
 701.927388367 -169.073242188 563.244336987 -172.088867188 456.282982086 -165.379882812 c 0
 416.817849392 -162.905273438 385.651774112 -159.115234375 359.444618038 -151.745117188 c 2
 308.493085547 -137.416015625 l 1
 321.826925832 -90.244140625 l 1
 413.935030168 216.491210938 490.303027027 531.58984375 564.183550515 869.063476562 c 1
 401.716706292 842.236328125 257.530273438 816.604492188 119.02734375 784.862304688 c 2
 50 769.041992188 l 1
 56.154296875 835.6640625 l 2
 68.7734375 972.26171875 82.623046875 1105.60644531 98.1298828125 1285.32617188 c 2
 101.26953125 1321.71484375 l 1
 139.362304688 1328.58691406 l 1
 533.585918463 1396.01855469 939.119941403 1469.03320312 1378.02863389 1544.99804688 c 1
 1379.2830556 1545.22949219 l 1
 1483.94899444 1559.92156224 1571.09202 1575.4739569 1666.53808594 1587.59375 c 2
 1726.93945312 1595.26367188 l 1
 1723.89941406 1534.453125 l 2
EndSplineSet
EndChar

StartChar: U
Encoding: 85 85 54
Width: 2040
Flags: HW
LayerCount: 2
Fore
SplineSet
1384.117022 1566.73925781 m 1
 1447.70731271 1552.58300781 l 2
 1516.97417641 1537.1640625 1618.27697776 1530 1710 1530 c 0
 1770.03027344 1530 1834.97949219 1534.51464844 1883.78710938 1541.48730469 c 2
 1948.7734375 1550.77148438 l 1
 1941.703125 1485.50683594 l 2
 1867.49378954 800.491993184 1740.70365807 91.294710852 1156.51760044 -108.337890625 c 0
 1066.59434772 -139.067382812 966.917950528 -154 858.383987267 -154 c 0
 589.516144136 -154 398.320717147 -45.9140625 281.53515625 101.458007812 c 1
 167.03125 250.721679688 103 460.662109375 103 707 c 0
 103 1043.88769531 209.10546875 1333.26367188 344.732421875 1570.32617188 c 1
 365.56557089 1604.52734375 l 1
 406.6956425 1594.2265625 l 2
 488.648458698 1573.703125 587.812644188 1555 699.410372701 1555 c 0
 740.98189687 1555 779.682923296 1557.03222656 817.800978877 1561.58105469 c 2
 907.809776234 1572.3203125 l 1
 876.663080332 1493.49707031 l 2
 826.018544346 1365.33007812 791.353957353 1193.45703125 772.658758287 1025.76953125 c 0
 765.633537171 962.756835938 762.134655999 901.171875 762.134655999 841 c 0
 762.134655999 665.845703125 796.692576225 519.518554688 876.419119707 459.568359375 c 0
 898.329107269 443.09375 925.390782836 434 964.366396978 434 c 0
 996.613555959 434 1033.28896992 447.0390625 1076.57983564 483.298828125 c 0
 1117.57789392 517.637695312 1160.77687837 577.272460938 1201.4940123 663.423828125 c 0
 1304.73899369 881.868164062 1355.51131858 1169.9609375 1379.7669189 1506.39257812 c 2
 1384.117022 1566.73925781 l 1
EndSplineSet
EndChar

StartChar: V
Encoding: 86 86 55
Width: 1766
Flags: HW
LayerCount: 2
Fore
SplineSet
570.195683008 -398.303710938 m 1
 480.954881821 31.2197265625 l 2
 475.015779144 56.7859809393 470.371076262 74.1640433246 462.334866711 94.935546875 c 1
 92 1561.34863281 l 1
 657.189406011 1518.5234375 l 1
 662.496041193 1476.93457031 l 2
 696.575486291 1209.80566406 730.430542607 951.421875 764.41427685 687.34765625 c 1
 1321.69923763 1603.78125 l 1
 1831.88574219 1352.54882812 l 1
 570.195683008 -398.303710938 l 1
EndSplineSet
EndChar

StartChar: W
Encoding: 87 87 56
Width: 2420
Flags: HW
LayerCount: 2
Fore
SplineSet
1953.03746584 1551.17773438 m 2
 1980.95898185 1546.37011719 2024.35692458 1546 2069.08642792 1546 c 0
 2126.54362908 1546 2190.80818887 1548 2248.02832031 1548 c 0
 2296.92089844 1548 2349.51171875 1548.49414062 2395.4296875 1538.92773438 c 2
 2445.37109375 1529.08984375 l 1
 2048.24250206 -234.515625 l 1
 1776.97648027 -174.669921875 l 2
 1703.80872052 -158.52734375 1630.6492121 -141.041992188 1557.49898645 -122.213867188 c 2
 1534.74693733 -116.357421875 l 1
 1419.92845689 92.3701171875 l 1
 1142.18203597 464.0390625 l 1
 366.736216617 -274.102539062 l 1
 36 -34.3828125 l 1
 193.208984375 627.583984375 l 1
 255.498046875 900.046875 305.340030213 1163.04296875 343.708778898 1439.04589844 c 2
 350.707981279 1489.3984375 l 1
 406.801647871 1480.32226562 l 2
 436.241411143 1475.55957031 482.4695648 1474.51660156 528.131469989 1474.51660156 c 0
 579.827170334 1474.51660156 638.465345071 1476.39648438 692.894303051 1476.39648438 c 0
 739.410222324 1476.39648438 788.53253482 1476.30859375 831.825272919 1468.97070312 c 2
 887.474398364 1459.53710938 l 1
 679.708655654 699.41796875 l 1
 1320.09854247 1359.63769531 l 1
 1735.54854587 604.588867188 l 1
 1797.62237389 884.694335938 1841.97644108 1178.68457031 1889.97760224 1510.70996094 c 2
 1897.21712501 1560.78710938 l 1
 1953.03746584 1551.17773438 l 2
EndSplineSet
EndChar

StartChar: X
Encoding: 88 88 57
Width: 2048
Flags: HW
LayerCount: 2
Fore
SplineSet
2 71.4013671875 m 1
 38.478515625 102.515625 l 2
 243.983398438 277.802734375 444.121657324 443.719726562 645.093420967 617.200195312 c 1
 612.565601865 669.645507812 l 1
 493.741399632 898.648483448 352.425108782 1134.95981744 216.5546875 1345.78125 c 1
 189.362304688 1390.16992188 l 1
 742.9492741 1630.77929688 l 1
 767.464898661 1586.43066406 l 2
 823.834136556 1484.45605469 873.027153316 1361.22363281 922.030223559 1253.46972656 c 0
 967.330380395 1153.85839844 1013.8620586 1046.31152344 1063.92966427 956.475585938 c 1
 1187.30827596 1080.74316406 1313.00799234 1222.65332031 1433.96843877 1349.4609375 c 0
 1495.95049186 1414.43847656 1563.41594603 1487.34960938 1622.48826897 1544.46679688 c 2
 1662.59098816 1583.24121094 l 1
 1701.70535926 1543.59277344 l 1
 1768.24091044 1480.44628906 1857.19335938 1440.05664062 1947.02734375 1379.57617188 c 0
 1979.1875 1357.92480469 2011.56738281 1332.015625 2044.42480469 1301.90820312 c 2
 2080.01855469 1269.29296875 l 1
 2046.03613281 1235.20410156 l 2
 1832.43552734 1021.05566406 1578.68681102 788.3828125 1334.96455724 583.333984375 c 1
 1453.92325961 404.999023438 1573.22950149 233.216796875 1705.83826149 45.876953125 c 1
 1737.73049032 -2.2451171875 l 1
 1683.25758661 -26.908203125 l 2
 1634.10422901 -49.1630859375 1595.40314812 -69.40625 1554.05012165 -99.255859375 c 2
 1438.24641004 -184.2421875 l 1
 1384.6302829 -202.16462548 1336.16853404 -220.169856485 1279.81849142 -243.604492188 c 2
 1239.53313135 -260.358398438 l 1
 1213.60334454 -226.997070312 l 2
 1194.00232517 -201.779296875 1173.25953938 -173.936523438 1151.18399699 -141.963867188 c 2
 1002.86499023 66.2099609375 l 2
 969.811165392 112.603515625 933.359176501 162.3984375 901.191420851 213.53125 c 1
 681.273014029 25.5751953125 l 1
 580.641019503 -62.7470703125 491.087498996 -137.02734375 414.004697854 -220.373046875 c 2
 375.672029718 -261.821289062 l 1
 334.250121536 -223.0625 l 2
 269.024366398 -162.029296875 173.97265625 -93.7236328125 100.23828125 -29.4423828125 c 0
 72.9521484375 -5.654296875 50.9736328125 15.7841796875 33.8193359375 36.056640625 c 2
 2 71.4013671875 l 1
EndSplineSet
EndChar

StartChar: Y
Encoding: 89 89 58
Width: 1936
Flags: HW
LayerCount: 2
Fore
SplineSet
656.388694861 1559.54003906 m 2
 755.555797244 1349.23359279 883.930854127 1119.34644995 1006.39039561 922.877929688 c 1
 1193.91063057 1126.70898438 1379.27496732 1365.58203125 1570.53348791 1568.66601562 c 2
 1610.13294236 1610.71386719 l 1
 1651.32315666 1570.01757812 l 1
 1716.95141898 1508.62304688 1806.57421875 1466.52050781 1896.61328125 1411.19726562 c 0
 1929.98632812 1390.69140625 1963.95019531 1366.62011719 1998.65429688 1339.01855469 c 2
 2040.71386719 1305.56542969 l 1
 2002.36425781 1268.32910156 l 2
 1792.93531854 1065.11035156 1585.81524788 866.432617188 1360.96448434 660.081054688 c 1
 1218.4167045 537.895507812 l 1
 962.59321897 276.232421875 738.615280234 23.501953125 515.504933541 -247.034179688 c 1
 464.678063589 -312.123046875 l 1
 423.349704359 -241.421875 l 2
 411.608431576 -221.334960938 399.710175914 -210.178710938 378.570861452 -190.549804688 c 1
 227.102539062 -114.659179688 l 1
 172.205078125 -88.6708984375 128.640625 -62.1494140625 79.6123046875 -32.732421875 c 2
 24 0.634765625 l 1
 69.5390625 46.8115234375 l 1
 255.0546875 223.20703125 439.278233796 396.975585938 632.786842307 580.173828125 c 1
 459.65984423 833.44921875 293.19519953 1067.71777344 121.73828125 1300.94726562 c 1
 88.0634765625 1347.17578125 l 1
 142.018554688 1371.14257812 l 2
 280.885648726 1432.49414062 420.351331374 1499.83789062 578.242617785 1582.73242188 c 1
 631.414811946 1612.50195312 l 1
 656.388694861 1559.54003906 l 2
EndSplineSet
EndChar

StartChar: Z
Encoding: 90 90 59
Width: 2220
Flags: HW
LayerCount: 2
Fore
SplineSet
187.40625 -243.659179688 m 1
 172.573242188 -205.462890625 l 1
 119.37109375 -75.91796875 64.982421875 38.4052734375 10.5732421875 170.887695312 c 2
 -4 206.372070312 l 1
 1178.5431948 943.717773438 l 1
 903.384715045 905.084960938 645.455263638 862.1640625 388.156205758 808.965820312 c 2
 320.98715339 795.078125 l 1
 328.656595687 1398.42871094 l 1
 373.881110239 1404.75390625 l 2
 811.856344394 1466.01660156 1247.21357912 1522.890625 1701.15912822 1567.67089844 c 1
 1810.57802569 1579.79589844 1918.15654732 1587.33203125 2025.83300781 1591.94921875 c 2
 2070.71289062 1593.95898438 l 1
 2122.92382812 1310.41796875 l 1
 2178.53027344 1214.9765625 l 1
 2242.26757812 1057.84765625 l 1
 1021.91839786 330.369140625 l 1
 1951.43883713 445.352539062 l 1
 1995.16305656 19.9130859375 l 1
 187.40625 -243.659179688 l 1
EndSplineSet
EndChar

StartChar: backslash
Encoding: 92 92 60
Width: 1368
Flags: HW
LayerCount: 2
Fore
SplineSet
485.1203724 1727.5107792 m 2
 743.559230669 1103.35655545 1005.78259457 537.87003465 1306.41717885 5.06220706185 c 2
 1333.02665717 -42.0971653948 l 1
 910.969595917 -247.978658687 l 1
 888.384213259 -202.807893371 l 2
 618.254576246 337.451380655 347.674748718 904.943745108 57.9163233331 1516.15292365 c 2
 36.6749977528 1560.9588448 l 1
 464.020135105 1778.46984285 l 1
 485.1203724 1727.5107792 l 2
EndSplineSet
EndChar

StartChar: a
Encoding: 97 97 61
Width: 2038
Flags: HW
LayerCount: 2
Fore
SplineSet
1808.50878906 -159.77734375 m 2
 1789.46582031 -157.9921875 1764.50097656 -157 1734.26855469 -157 c 0
 1643.39453125 -157 1541.61128434 -161 1440.59067363 -161 c 0
 1404.90237861 -161 1375.3753031 -160.009765625 1350.96642257 -157.747070312 c 2
 1307.12146522 -153.682617188 l 1
 1301.81995077 -113.13671875 l 2
 1292.89629668 -44.904296875 1289.57020742 20.779296875 1282.17316192 80.001953125 c 1
 1090.04383397 44.994140625 883.65878422 26.166015625 648.386169941 1.5009765625 c 1
 549.329395263 -188.538085938 l 1
 505.912183315 -178.477539062 l 2
 429.278328362 -160.71875 305.802137558 -164.279296875 202.454101562 -156.857421875 c 0
 158.180664062 -153.537109375 106.111328125 -152.373046875 61.140625 -137.3828125 c 2
 0 -117.002929688 l 1
 33.888671875 -62.1826171875 l 1
 227.995117188 232.716796875 414.17975849 493.192382812 599.491499005 759.690429688 c 0
 721.762417049 935.528320312 822.107695737 1078.42285156 910.106303548 1242.578125 c 0
 941.929086535 1301.94335938 964.75551978 1353.63378906 978.751012222 1396.85742188 c 0
 992.762308065 1440.12890625 999.342844483 1478.88378906 999.342844483 1513 c 0
 999.342844483 1540.71875 996.173735686 1566.77929688 989.985123626 1591.44824219 c 2
 969.413309007 1673.44042969 l 1
 1057.34238185 1652.37792969 l 2
 1115.07115427 1638.54980469 1191.56909997 1630.64453125 1285.64464247 1629.99902344 c 2
 1397.78768722 1629.22851562 l 1
 1377.24853296 1604.99902344 l 1
 1379.09647739 1605 l 2
 1437.31620882 1605 1488.52344419 1601.93261719 1533.32187343 1595.37597656 c 2
 1574.74153542 1589.31445312 l 1
 1579.41828873 1550.68847656 l 1
 1619.12486198 1241.96191406 1670.83105469 926.272460938 1719.97753906 584.958984375 c 1
 1752.07128906 583.772460938 1780.046875 582.125976562 1809.26855469 582.125976562 c 2
 1853.50097656 582.125976562 l 1
 1859.75585938 540.897460938 l 2
 1861.46191406 529.653320312 1862.26855469 518.125 1862.26855469 506.331054688 c 2
 1862.26855469 473.84765625 l 2
 1862.26855469 369.165039062 1853.12109375 249.568359375 1822.01757812 164.0546875 c 0
 1816.69238281 149.412109375 1808.38183594 133.49609375 1799.58300781 122.966796875 c 1
 1816.89453125 45.9404296875 1836.36035156 -23.564453125 1861.49902344 -92.4208984375 c 1
 1887.18847656 -167.153320312 l 1
 1808.50878906 -159.77734375 l 2
1162.23166527 848.573242188 m 1
 1100.91552069 730.666992188 1033.99127567 617.0390625 967.615935467 508.880859375 c 1
 1049.29528977 524.2578125 1131.01889359 541.291992188 1213.79500396 557.7734375 c 1
 1162.23166527 848.573242188 l 1
EndSplineSet
EndChar

StartChar: b
Encoding: 98 98 62
Width: 2108
Flags: HW
LayerCount: 2
Fore
SplineSet
1589.311504 784.359375 m 1
 1811.76290704 757.150040514 2000.92382812 664.390861383 2000.92382812 428.232421875 c 2
 2000.92382812 426.725585938 l 1
 1997.84267299 380.175977422 1974.63315768 338.076105466 1938.46972656 294.66015625 c 0
 1848.95410156 187.19140625 1710.25258909 106.270507812 1562.10359862 37.1630859375 c 0
 1272.22634679 -98.0576171875 908.701596621 -195.889648438 498.954958796 -225.908203125 c 1
 427.733770374 -228.783203125 357.596901645 -231.374023438 289.921875 -233.9609375 c 2
 265.609375 -234.9140625 l 1
 88 -32.2890625 l 1
 97.75390625 -4.2451171875 l 1
 199.2421875 270.509765625 256.888671875 604.1328125 319.305664062 921.005859375 c 1
 263.49609375 897.118164062 l 1
 260.952148438 968.999023438 l 2
 255.59765625 1120.265625 234.923828125 1278.83886719 234.923828125 1441.42773438 c 2
 234.923828125 1479.07617188 l 1
 273.75 1488.06347656 l 1
 637.179952549 1567.16699219 982.073545248 1642 1424.89456299 1642 c 0
 1554.40608569 1642 1669.4649205 1633.43261719 1768.3359375 1588.8125 c 1
 1888.61425781 1532.42578125 2006.92382812 1423.046875 2006.92382812 1260.45605469 c 0
 2006.92382812 1210.98339844 1992.22753906 1161.9453125 1965.26171875 1114.83886719 c 0
 1883.75752156 972.461675036 1735.25274655 871.803127239 1589.311504 784.359375 c 1
1344.59390618 1110.5625 m 0
 1356.11230509 1121.2578125 1364.24312521 1131.08691406 1368.74867861 1137.96289062 c 1
 1344.67699178 1141.02441406 1310.88639294 1140 1282.73614959 1140 c 0
 1143.36373316 1140 1017.121997 1122.73535156 874.777429788 1098.86328125 c 1
 809.861281674 836.3203125 l 1
 961.071818825 896.033203125 1098.85719509 955.9375 1218.02824134 1023.5234375 c 0
 1275.67492514 1056.21679688 1318.1137886 1085.97460938 1344.59390618 1110.5625 c 0
1395.548518 334.018554688 m 1
 1321.68321824 354.435182183 1239.60036854 355 1111.49987891 355 c 0
 967.650305418 355 833.36083474 347.5546875 701.106435454 334.465820312 c 1
 687.051296393 265.653320312 676.007221619 204.05859375 665.409074633 136.560546875 c 1
 850.593209292 161.490234375 1026.78516803 197.469726562 1181.24130225 244.009765625 c 0
 1268.43070201 270.28125 1347.4345924 299.157226562 1395.548518 334.018554688 c 1
EndSplineSet
EndChar

StartChar: c
Encoding: 99 99 63
Width: 2090
Flags: HW
LayerCount: 2
Fore
SplineSet
1300.19912213 684 m 1
 1304.38487259 738.633789062 l 2
 1309.82760518 809.673828125 1320.43862925 876.970703125 1338.52345953 936.405273438 c 1
 1305.31713433 946.639648438 1268.41947164 952 1227.01657553 952 c 0
 1184.64894564 952 1135.75234111 946.841796875 1081.29044824 936.279296875 c 1
 902.926780174 879.453125 757.102189289 780.09765625 647.987761262 665.309570312 c 0
 585.696964746 599.780273438 533.306997407 529.026367188 503.078672356 451.239257812 c 0
 490.414577482 418.651367188 484.760252905 390.734375 484.760252905 367.8828125 c 0
 484.760252905 247.778320312 576.031819717 187 746.480690362 187 c 0
 897.153042296 187 1015.08415242 232.760742188 1118.08755237 294.416015625 c 0
 1246.30810864 371.166015625 1355.51576284 478.102539062 1449.61553943 600.681640625 c 2
 1472.37005828 630.323242188 l 1
 2010.94238281 474.86328125 l 1
 1976.54394531 418.44921875 l 2
 1859.44238281 226.403320312 1660.96451333 83.173828125 1445.9964784 -18.94140625 c 0
 1301.62998678 -87.51953125 1137.66295394 -144.177734375 959.781129014 -175.133789062 c 0
 876.290281534 -189.6640625 794.788608262 -197 715.374572796 -197 c 0
 390.374512887 -197 169.404296875 -78.5576171875 72.9970703125 137.981445312 c 0
 37.626953125 217.422851562 21 310.897460938 21 417.71484375 c 0
 21 630.037109375 112.196289062 810.634765625 206.493164062 950.54296875 c 1
 326.143773963 1122.10253906 499.011287707 1279.09082031 691.46572536 1392.21386719 c 0
 857.47221169 1489.79003906 1071.19583432 1580 1331.06117567 1580 c 0
 1614.75680306 1580 1853.78808594 1503.12402344 1963.80371094 1318.61914062 c 0
 2001.10058594 1256.0703125 2019 1183.12402344 2019 1103 c 0
 2019 976.967773438 1981.42480469 875.483398438 1937.24316406 780.4921875 c 2
 1926.55273438 757.508789062 l 1
 1901.77832031 752.15234375 l 2
 1754.883075 720.659179688 1573.68491224 702.071289062 1409.2685083 687.237304688 c 0
 1386.23640589 685.159179688 1371.17671259 684 1358.949419 684 c 2
 1300.19912213 684 l 1
EndSplineSet
EndChar

StartChar: d
Encoding: 100 100 64
Width: 1970
Flags: HW
LayerCount: 2
Fore
SplineSet
1839.45996094 1474.80957031 m 0
 1918.60839844 1406.16894531 1937.66992188 1307.84667969 1937.92773438 1196.66210938 c 1
 1943.73694811 1140.19483924 1950.62002911 1100.58645488 1959.39453125 1045.43847656 c 1
 1878.04999359 850.671428587 1747.25366633 683.333355054 1596.98674542 536.161132812 c 1
 1343.32596241 291.728515625 1030.17916687 74.6240234375 698.385579086 -98.7451171875 c 1
 589.821336075 -158.922851562 483.75107513 -211.126953125 380.110387739 -255.315429688 c 2
 349.263671875 -268.692382812 l 1
 110 -72.2451171875 l 1
 117.290039062 -41.3046875 l 1
 184.497070312 226.427734375 242.638671875 509.625 302.067382812 815.118164062 c 1
 243.930664062 775.55859375 l 1
 243.930664062 869.384765625 l 2
 243.930664062 1016.81445312 230.315429688 1173.17578125 210.443359375 1303.73828125 c 2
 204.524414062 1342.62304688 l 1
 244.002929688 1355.66015625 l 1
 470.145040882 1427.50292969 682.330965493 1481.26367188 871.925340455 1516.84765625 c 1
 1061.65697946 1554.79003906 1233.13355668 1575.234375 1390.14567145 1578 c 1
 1581.54876414 1578 1739.81445312 1561.22753906 1839.45996094 1474.80957031 c 0
1321.07757287 826.801757812 m 0
 1338.16166678 859.298828125 1344.17805535 883.341796875 1344.17805535 896 c 0
 1344.17805535 954.115234375 1305.0356298 980 1193.88871104 980 c 0
 1070.52529249 980 968.358609736 959.284179688 848.327539786 931.181640625 c 1
 824.702286308 840.475585938 804.053550799 762.09765625 782.739612622 669.694335938 c 1
 752.303950878 553.073242188 l 2
 724.644190427 446.336914062 701.694698389 347.53125 680.318463454 246.275390625 c 1
 847.124895598 343.560546875 997.567342114 459.528320312 1125.13948739 584.509765625 c 0
 1204.89939901 662.650390625 1276.60191133 742.205078125 1321.07757287 826.801757812 c 0
EndSplineSet
EndChar

StartChar: e
Encoding: 101 101 65
Width: 1954
Flags: HW
LayerCount: 2
Fore
SplineSet
1553.26240054 895.744140625 m 2
 1553.26240054 805.154296875 1541.37080109 716.931640625 1541.37080109 633.170898438 c 0
 1541.37080109 612.03515625 1542.39695829 593.999023438 1544.94440408 580.641601562 c 2
 1552.87072943 539.091796875 l 1
 1506.79500442 526.688476562 l 2
 1212.16436995 447.375976562 895.084963216 390.208007812 543.066593072 345.141601562 c 1
 538.474269103 282.754648262 559.454435992 212.416558717 577.982330703 194.420898438 c 1
 613.649739039 196.801757812 658.965347604 204.2421875 713.26511023 217.282226562 c 0
 882.387851479 257.89453125 1042.41981122 315.4375 1223.10160098 382.361328125 c 0
 1334.12716454 423.485351562 1460.55564324 471.408203125 1602.33847406 526.114257812 c 2
 1664.32385849 550.030273438 l 1
 1678.52114449 492.142578125 l 2
 1694.640625 422.299804688 1728.19824219 343.509765625 1759.3359375 269.346679688 c 0
 1774.12792969 234.114257812 1790.52832031 199.489257812 1808.54296875 165.458007812 c 2
 1831.75878906 121.602539062 l 1
 1784.92285156 100.456054688 l 1
 1529.02946607 -9.8935546875 1293.12204964 -92.373046875 1084.75829706 -146.858398438 c 1
 876.507506224 -204.513671875 692.873930949 -234 532.746956651 -234 c 0
 294.930664062 -234 203.653320312 -66.498046875 161.311523438 76.890625 c 0
 124.4609375 201.688476562 116.047851562 346.463867188 115.927734375 493.6875 c 1
 107.728515625 568.213867188 97.900390625 637.134765625 83.021484375 704.0703125 c 2
 76 735.65625 l 1
 167.408203125 794.888671875 l 1
 216.422851562 908.885742188 269.927734375 1014.99316406 269.927734375 1159.14550781 c 2
 269.927734375 1160.62207031 l 1
 284.453125 1385.32519531 l 1
 323.699099273 1392.25 l 1
 710.662767133 1455.640625 1088.41319028 1524.99414062 1495.99501664 1591.20507812 c 0
 1622.70748328 1611.37109375 1735.59472656 1633.98925781 1853.453125 1651.44921875 c 2
 1927.93261719 1662.48339844 l 1
 1910.54980469 1589.22558594 l 1
 1879.91601562 1467.29003906 1871.92773438 1309.93945312 1871.92773438 1156.42773438 c 2
 1871.92773438 1117.46582031 l 1
 1831.58691406 1109.32226562 l 1
 1490.76710466 1043.41503906 1152.98719349 990.315429688 773.256244717 946.151367188 c 1
 748.41838425 890.491210938 727.005270641 840.329101562 705.58159986 790.86328125 c 1
 943.899218851 839.982421875 1182.4036998 900.329101562 1482.07327285 974.216796875 c 2
 1543.80000655 989.436523438 l 1
 1551.75483626 933.83203125 l 2
 1552.75671196 926.833984375 1553.26240054 919.790039062 1553.26240054 912.745117188 c 2
 1553.26240054 895.744140625 l 2
EndSplineSet
EndChar

StartChar: f
Encoding: 102 102 66
Width: 1822
Flags: HW
LayerCount: 2
Fore
SplineSet
1848.38964844 1655.67675781 m 1
 1848.38964844 1595 l 2
 1848.38964844 1440.69824219 1806.38964844 1287.30371094 1806.38964844 1150.90429688 c 2
 1806.38964844 1114.13574219 l 1
 1768.85839844 1104.42578125 l 1
 1453.9992377 1025.84375 1098.82338816 984.38671875 734.108415492 943.013671875 c 1
 690.772275148 778.85546875 l 1
 790.734094428 799.176757812 888.465509018 825.546875 996.519274513 851.544921875 c 2
 1482.72216341 968.048828125 l 1
 1491.56461494 913.939453125 l 2
 1495.40475326 890.44140625 1496.44237172 865.265625 1496.44237172 840.037109375 c 0
 1496.44237172 771.228515625 1489.95699244 684.263671875 1489.95699244 618.934570312 c 0
 1489.95699244 582.975585938 1491.43689182 548.82421875 1496.95854204 529.51953125 c 2
 1509.84907781 484.4453125 l 1
 1458.79043831 471.5390625 l 2
 1190.84948456 403.810546875 896.770678966 357.372070312 577.281304467 319.62890625 c 1
 538.503085302 155.442382812 503.380280923 5.708984375 486.653829093 -153.659179688 c 2
 479.435889069 -226.453125 l 1
 408.081939125 -195.056640625 l 2
 310.344191157 -152.049804688 201.057617188 -140.676757812 71.42578125 -161.36328125 c 2
 -6 -173.717773438 l 1
 14.0927734375 -97.9306640625 l 1
 96.580078125 196.0078125 161.529296875 500.131835938 227.271484375 828.247070312 c 1
 259.533608973 983.346679688 193.856445312 1157.34667969 218.771484375 1348.58789062 c 2
 223.32421875 1383.53515625 l 1
 261.584567947 1390.05078125 l 1
 767.051482207 1473.24511719 1286.60277402 1566.33300781 1788.6171875 1645.24023438 c 1
 1848.38964844 1655.67675781 l 1
EndSplineSet
EndChar

StartChar: g
Encoding: 103 103 67
Width: 2232
Flags: HW
LayerCount: 2
Fore
SplineSet
1434.27413052 -17.8388671875 m 1
 1220.88406141 -120.954562694 955.608054213 -222 680.637932195 -222 c 0
 428.83663504 -222 234.484375 -153.822265625 121.234375 -17.6044921875 c 1
 23.9814453125 92.06640625 -18.3359375 247.602539062 8.9169921875 435.221679688 c 0
 37.7939453125 634.016601562 133.299804688 810.318359375 238.600585938 952.063476562 c 1
 436.640226971 1203.50195312 725.442673572 1414.51367188 1098.09273291 1513.8203125 c 1
 1220.58774367 1548.63769531 1348.43254331 1566 1481.00122521 1566 c 0
 1736.48218895 1566 1922.12422268 1501.13574219 1977.99316406 1284.10449219 c 0
 1993.69140625 1219.85253906 2000.95019531 1143.46582031 2000.95019531 1054 c 2
 2000.95019531 1003 l 2
 2000.95019531 981.833606575 2000.30644088 962.081124663 1999.44726562 942.31640625 c 1
 1966.13454711 873.129002903 1937.01173823 808.204362673 1912.17926202 733.733398438 c 2
 1897.59657207 690.001953125 l 1
 1849.82526169 698.990234375 l 2
 1818.21542064 704.938476562 1784.2472714 708 1747.78898955 708 c 0
 1689.80491767 708 1629.82894729 703 1562.8444836 703 c 0
 1499.15147907 703 1439.29072533 706.709960938 1379.04072618 716.787109375 c 2
 1330.82723302 724.8515625 l 1
 1334.47160802 770.795898438 l 2
 1339.79752319 837.9375 1350.28846541 902.310546875 1366.21846346 959.01953125 c 1
 1349.12176718 961.063476562 1332.693535 962 1314.12601007 962 c 0
 1231.93917774 962 1159.9412332 945.749023438 1089.02798586 924.208984375 c 1
 860.783820767 847.859375 679.336295553 706.671875 569.634483855 534.03125 c 0
 531.019263452 473.26171875 498.882124618 409.1953125 498.882124618 338.939453125 c 0
 498.882124618 221.471679688 588.308921527 167 750.789296524 167 c 0
 880.271495823 167 1015.38786254 187.58942266 1120.78625916 221.654296875 c 1
 1028.34203185 216.89453125 940.188845918 215 846.45024788 215 c 2
 765.036716427 215 l 1
 917.870033243 558.967773438 l 1
 951.558963769 560.905273438 l 2
 1204.18961314 575.435546875 1411.27958781 588.118164062 1622.60247655 596.8828125 c 1
 1803.33794217 614.677734375 l 1
 1917.6556854 627.8515625 2015.14648438 648.295898438 2116.30957031 669.877929688 c 2
 2215.95214844 691.134765625 l 1
 2173.25683594 598.627929688 l 1
 2069.38148834 383.026812751 2001.87051674 172.545498298 1983.87890625 -121.704101562 c 1
 1981.65625 -163.559570312 l 1
 1938.27427414 -169.487304688 l 2
 1780.59044055 -190.680664062 1630.33444732 -210.44140625 1481.5783464 -237.099609375 c 2
 1412.41514642 -249.493164062 l 1
 1417.36115806 -183.416992188 l 2
 1421.6802251 -125.725585938 1427.50645036 -69.06640625 1434.27413052 -17.8388671875 c 1
EndSplineSet
EndChar

StartChar: h
Encoding: 104 104 68
Width: 2030
Flags: HW
LayerCount: 2
Fore
SplineSet
1501.07124491 1506 m 2
 1633.73818092 1478.51074219 1839.41992188 1503.67285156 1990.94824219 1470 c 2
 2040.984375 1458.88085938 l 1
 2029.61425781 1447.37402344 l 1
 1936.89453125 1046.41796875 1834.62597656 628.766601562 1757.54152322 219 c 0
 1733.42978335 91.970703125 1715.76019933 -23.74609375 1704.49087777 -128 c 1
 1698.25504686 -140.44140625 l 1
 1638.2113475 -128 l 2
 1547.9719409 -108.368164062 1413.00715252 -112.961914062 1295.07935799 -105 c 0
 1242.07060593 -101.912109375 1180.94605714 -100.254882812 1129.12288798 -88 c 1
 1076.8074715 -74.341796875 l 1
 1145.27383666 160.834960938 l 1
 1005.30174099 137.682617188 814.946561397 112.45703125 572.403740163 84.755859375 c 1
 565.376124208 15.845703125 561.878026251 -48.88671875 557.067617893 -124 c 1
 552.100109327 -138.646484375 l 1
 489.267357615 -124 l 2
 389.943369672 -100.982421875 211.616210938 -122.575195312 88.744140625 -90 c 2
 40 -77.001953125 l 1
 52.466796875 -64.79296875 l 1
 177.599609375 419.272460938 274.740234375 931.619140625 382.152246708 1504 c 1
 392.392038242 1518.35742188 l 1
 450.132648557 1504 l 2
 542.631156146 1481.00097656 726.591309952 1510.59277344 857.671533867 1478 c 2
 906.74230739 1465.79882812 l 1
 897.326768279 1459.08886719 l 1
 839.830080773 1178.24246249 755.380423819 887.802153178 690.823782011 615.788085938 c 1
 884.642497514 649.322265625 1076.74044208 686.764648438 1287.27671434 728.685546875 c 1
 1445.2284051 1517.57128906 l 1
 1501.07124491 1506 l 2
EndSplineSet
EndChar

StartChar: i
Encoding: 105 105 69
Width: 990
Flags: HW
LayerCount: 2
Fore
SplineSet
689.663911252 1478 m 0
 743.041350929 1478 784.482597246 1479.87439317 827.741210938 1482.41796875 c 1
 861.505456975 1480.3874647 894.428984202 1473.18360355 942.702148438 1468 c 2
 1000.05273438 1462.26464844 l 1
 813.38671875 684.817382812 l 1
 749.209835237 405.606445312 681.035172241 146.516601562 639.795137131 -132 c 1
 631.284582616 -146.126953125 l 1
 557.752222466 -132 l 1
 465.164200833 -113.127929688 304.32421875 -114.435546875 207.203125 -107.5 c 0
 170.53125 -105.353515625 140.944335938 -101.969726562 116.065429688 -96 c 2
 68 -82.740234375 l 1
 80.169921875 -71.103515625 l 1
 202.23828125 407.423828125 303.15234375 926.360351562 427.754360035 1492 c 1
 440.391205503 1508.41796875 l 1
 512.113944982 1492 l 1
 540.855651937 1484.24511719 602.500939227 1478 689.663911252 1478 c 0
EndSplineSet
EndChar

StartChar: j
Encoding: 106 106 70
Width: 2007
Flags: HW
LayerCount: 2
Fore
SplineSet
691.446423038 446 m 0
 691.446423038 335.516306798 783.075467981 270 899.786929429 270 c 0
 978.155359644 270 1038.08478582 295.032226562 1091.5845281 330.877929688 c 0
 1252.79638887 438.891601562 1328.58378461 658.708007812 1336.47388876 930.96875 c 1
 1250.49231228 926.375 1160.67060816 922.954101562 1067.95149843 919.6171875 c 2
 1018.97149585 917.853515625 l 1
 1010.74478134 958.735351562 l 2
 978.113815961 1120.89941406 953.184410329 1277.0703125 933.872988943 1441.78710938 c 2
 928.527701695 1487.38085938 l 1
 982.266053843 1493.59863281 l 2
 1261.39380086 1525.89648438 1564.45603556 1535.76074219 1771.27148438 1605.17871094 c 1
 1824.27832031 1623.58398438 l 1
 1837.55273438 1569.06445312 l 1
 1872.89707116 1432.58542862 1889.8873405 1296.00139845 1893.01660156 1139.89941406 c 1
 1875.53497404 667.895470872 1797.85010951 217.945494432 1496.82504964 -33.779296875 c 1
 1338.89347624 -178.267923294 1134.06323387 -286 863.790925707 -286 c 0
 552.152583469 -286 328.702148438 -144.001953125 229.74609375 56.9716796875 c 0
 193.7109375 130.155273438 176 211.515625 176 299 c 0
 176 365.85546875 188.124023438 435.228515625 211.522460938 506.838867188 c 0
 235.2578125 579.486328125 272.770507812 654.055664062 323.388671875 731.0234375 c 2
 370.58203125 802.783203125 l 1
 411 727 l 1
 447.515528226 662.079476686 579.458166304 593.304836625 668.843463669 557.794921875 c 2
 721.491027825 536.879882812 l 1
 697.05908117 489.284179688 l 2
 692.493536901 480.388671875 691.446423038 472.986328125 691.446423038 446 c 0
EndSplineSet
EndChar

StartChar: k
Encoding: 107 107 71
Width: 2158
Flags: HW
LayerCount: 2
Fore
SplineSet
1223.27801557 507.66796875 m 1
 1382.81148865 460.302734375 l 1
 1545.38346654 410.35546875 1695.60260561 361.485351562 1857.25751508 315.588867188 c 1
 1924.25195312 296.05859375 l 1
 1598.37461561 -134.552734375 l 1
 795.271459808 189.0703125 l 1
 422.895877774 -133.85546875 l 1
 2 -96.349609375 l 1
 16.6748046875 -38.466796875 l 1
 143.186523438 430.056640625 252.273267418 940.302734375 345.814246796 1455.78320312 c 2
 359.011288221 1528.51367188 l 1
 429.12174185 1485.76074219 l 2
 479.619838839 1454.96679688 596.724584326 1455.09765625 691.841547354 1475.24707031 c 0
 725.67939446 1482.41601562 755.262918463 1487.94824219 780.94083437 1491.84570312 c 0
 800.361657991 1494.79296875 825.277605582 1501.39648438 857.389573631 1493.39453125 c 0
 897.020253639 1483.51855469 918.507343803 1439.93457031 908.37274881 1404.203125 c 1
 833.028447233 1081.64355469 l 1
 794.375210189 929.088867188 761.334723371 786.069335938 721.889330741 630.75390625 c 1
 973.499180169 860.834960938 1236.33453005 1095.93164062 1499.34163508 1307.23632812 c 0
 1604.29444323 1391.55664062 1713.22988906 1480.88671875 1826.54248894 1541.33398438 c 2
 1891.50653361 1575.99023438 l 1
 1906.05273438 1507.33300781 l 1
 1937.70898438 1363.27832031 2014.15722656 1233.04785156 2103.49707031 1130.79101562 c 2
 2142.78222656 1085.82617188 l 1
 2088.41796875 1058.07519531 l 2
 1956.44238281 990.70703125 1806.0318008 894.309570312 1662.92228415 803.33984375 c 0
 1519.94392597 712.453125 1365.04576015 607.221679688 1223.27801557 507.66796875 c 1
EndSplineSet
EndChar

StartChar: l
Encoding: 108 108 72
Width: 1797
Flags: HW
LayerCount: 2
Fore
SplineSet
1631.64550781 459.389648438 m 1
 1639.45703125 409.532226562 l 2
 1657.22558594 296.130859375 1670.39257812 193.534179688 1683.68847656 81.2236328125 c 2
 1686.68066406 55.9404296875 l 1
 1576.43359375 -32.0166015625 l 1
 1346.69544419 -83.4325360434 1093.69465007 -137.803876324 837.413670891 -174.86328125 c 0
 799.118007615 -180.400375124 770.565923493 -183.231707282 743.776882092 -184.09765625 c 1
 483.749501433 -158.84920705 261.590306796 -79.5270033344 158.51171875 94.0595703125 c 0
 124.442382812 151.432617188 108 217.262695312 108 288.916992188 c 0
 108 363.33203125 132.66015625 435.118164062 150.04296875 500.3046875 c 0
 236.627929688 825.013671875 352.169921875 1147.42871094 474.682114538 1448.77050781 c 0
 489.116457015 1484.2265625 500.803812859 1512.16894531 509.89613386 1532.90722656 c 1
 509.89613386 1532.90722656 496.539463659 1598 578.042740292 1598 c 2
 582.062457885 1598 l 1
 1034.96824201 1539.06933594 l 1
 1048.21822266 1527.0625 l 2
 1071.93503057 1506.88973843 1071.23433766 1483.77491241 1068.40949044 1468.75683594 c 0
 1011.11612151 1164.19335938 914.571772903 852.612304688 839.973142549 558.147460938 c 0
 821.325101468 484.53515625 801.371999261 407.012695312 783.895387945 338.580078125 c 1
 901.916667355 345.890625 1138.06591573 376.08203125 1160.61189744 379.358398438 c 0
 1304.12228154 400.212890625 1451.72753906 425.615234375 1578.99804688 449.506835938 c 2
 1631.64550781 459.389648438 l 1
EndSplineSet
EndChar

StartChar: m
Encoding: 109 109 73
Width: 2536
Flags: HW
LayerCount: 2
Fore
SplineSet
2133.70224604 -158 m 2
 2026.88118706 -134.206054688 1842.37161733 -152.943359375 1707.54300571 -122 c 2
 1653.45469982 -109.559570312 l 1
 1668.43988813 -94.537109375 l 1
 1728.5010663 104.877929688 1782.19207274 310.83203125 1828.26954542 524.99609375 c 1
 1610.85822905 303.904296875 1405.2495883 71.1083984375 1195.88615896 -178 c 1
 1146.42031895 -239.447265625 l 1
 1106.35894804 -178 l 1
 950.942814161 75.2216796875 816.675156421 337.203125 707.370461242 616.758789062 c 1
 644.672285164 357.620117188 593.398012169 109.467773438 559.38156267 -152 c 1
 551.989322654 -165.994140625 l 1
 492.990354403 -152 l 2
 404.84339882 -130.134765625 268.954101562 -134.458007812 159.389648438 -123 c 0
 137.094726562 -121.194335938 117.736328125 -118.508789062 100.106445312 -114 c 1
 54 -99.4404296875 l 1
 66.08203125 -88.5126953125 l 1
 157.772460938 262.741210938 236.736328125 625.19921875 306.260642412 1017.33105469 c 1
 292.517578125 1126.3984375 283.752929688 1220.1640625 270.813476562 1328.08203125 c 1
 269.767578125 1331.28515625 l 1
 320.593271517 1504.12402344 l 1
 365.370772167 1502 l 2
 393.93722015 1500.60058594 424.064046281 1500 455.436292967 1500 c 0
 608.153672552 1500 752.201484098 1509.60351562 914.914135585 1522 c 2
 959.029813577 1525.3359375 l 1
 970.950855609 1522 l 1
 1061.53307155 1220.00097656 1164.03427097 954.578125 1301.12316651 730.94921875 c 1
 1532.55627148 987.254882812 1770.5859883 1224.5703125 2028.52390707 1450 c 1
 2044.04122961 1449.89648438 l 1
 2537.2578125 1452.32324219 l 1
 2351.20996094 674.76171875 l 1
 2286.60386553 393.479492188 2232.56908185 126.092773438 2199.44398293 -158 c 1
 2192.81134653 -171.196289062 l 1
 2133.70224604 -158 l 2
EndSplineSet
EndChar

StartChar: n
Encoding: 110 110 74
Width: 2140
Flags: HW
LayerCount: 2
Fore
SplineSet
333.403699268 983.365234375 m 1
 317.11821177 1009.93073942 290.42983046 1042.40379148 274.124023438 1085.44042969 c 1
 333.328638636 1552.56445312 l 1
 384.564817555 1549.92285156 l 2
 526.150019733 1542.62207031 661.578165066 1534.89550781 793.341892045 1525.86425781 c 2
 824.421163739 1523.73339844 l 1
 838.201044768 1497.55078125 l 2
 1036.67073843 1120.42578125 1231.40408062 797.516601562 1420.82167056 530.546875 c 1
 1482.91245087 827.701171875 1544.21613707 1133.17773438 1608.95176215 1485.64746094 c 2
 1622.30838462 1558.375 l 1
 1690.21115137 1520.95898438 l 2
 1753.41002156 1486.13463347 1977.94286697 1504 2090.14355469 1504 c 2
 2153.98242188 1504 l 1
 1971.87988281 749.544921875 l 1
 1896.07744481 439.975585938 1843.11070132 176.484375 1817.0990648 -40.3466796875 c 1
 1813.81828967 -69.4951171875 l 1
 1472.26113869 -213.349609375 l 1
 1270.74210686 12.048828125 l 1
 1272.33506027 13.5400390625 l 1
 1078.33355924 225.591796875 906.299803174 441.991210938 743.906125785 680.389648438 c 1
 671.02850714 386.869140625 614.979065192 113.514648438 578.696632186 -176.927734375 c 2
 571.643017793 -233.383789062 l 1
 512.490027213 -220.717773438 l 2
 400.0210527 -196.63671875 249.711914062 -188 116.143554688 -188 c 2
 50 -188 l 1
 66.8203125 -124.030273438 l 1
 164.407226562 225.811523438 255.465820312 588.436523438 333.403699268 983.365234375 c 1
EndSplineSet
EndChar

StartChar: o
Encoding: 111 111 75
Width: 2214
Flags: HW
LayerCount: 2
Fore
SplineSet
857.196120498 -234 m 0
 309.707146498 -234 117.823303659 98.5383677235 78 525.548828125 c 1
 82.0112175469 567.231433105 90.0120660145 598.667051999 97.16796875 637.020507812 c 1
 163.930664062 923.427734375 345.972053881 1140.33300781 562.577482823 1297.67285156 c 0
 713.086287158 1407 893.155521318 1496.04882812 1102.50252497 1546.22851562 c 1
 1201.72777496 1571.375 1302.3924023 1584 1404.0426902 1584 c 0
 1774.67192466 1584 1994.03515625 1410.07617188 2095.40722656 1175.70996094 c 0
 2142.92578125 1065.85058594 2170.20410156 935.619140625 2170.20410156 789.533203125 c 0
 2170.20410156 771.960976241 2170.46831364 752.267998706 2167.35644531 736.323242188 c 0
 2130.34179688 546.693359375 2035.14355469 385.53515625 1926.06445312 256.280273438 c 1
 1742.2536007 52.228515625 1482.02147904 -118.16796875 1159.30473547 -195.719726562 c 1
 1059.08756675 -221.18359375 958.239366652 -234 857.196120498 -234 c 0
1708.43970653 744.786132812 m 0
 1708.43970653 887.03515625 1596.55106504 954 1404.0426902 954 c 0
 1168.03174286 954 977.351794446 883.565429688 834.229707729 797.53515625 c 0
 728.849555072 734.19140625 643.982615546 651.350585938 595.643526586 547.248046875 c 0
 572.87424593 498.213867188 561.343581814 445.504882812 561.343581814 388.151367188 c 0
 561.343581814 248.892578125 673.170684711 186 865.74059815 186 c 0
 1105.60761652 186 1297.96579547 259.953125 1440.52777665 349.415039062 c 0
 1543.00935712 413.725585938 1627.78033815 495.729492188 1675.31212417 596.50390625 c 0
 1697.39300697 643.3203125 1708.43970653 692.409179688 1708.43970653 744.786132812 c 0
EndSplineSet
EndChar

StartChar: p
Encoding: 112 112 76
Width: 1880
Flags: HW
LayerCount: 2
Fore
SplineSet
561.845577728 -195.454101562 m 1
 500.313752238 -180.278320312 l 2
 403.472003518 -156.393554688 223.803710938 -181 101.096679688 -148.278320312 c 2
 52 -135.185546875 l 1
 64.9111328125 -86.041015625 l 1
 148.155273438 211.837890625 218.551757812 523.181640625 283.377929688 856.893554688 c 1
 231.208984375 825.456054688 l 1
 190.4375 1388.40136719 l 1
 232.166992188 1397.95800781 l 1
 452.546472043 1445.75976562 657.682121852 1484.49414062 842.391634139 1514.15234375 c 1
 1028.26156644 1545.89941406 1191.91246478 1562 1334.09295318 1562 c 0
 1539.66468439 1562 1745.67089844 1533.40527344 1850.78027344 1422.35058594 c 0
 1882.92773438 1388.38476562 1901.23730469 1346.48242188 1901.23730469 1301.63183594 c 0
 1901.23730469 1208.50976562 1879.89941406 1114.06738281 1838.38183594 1019.140625 c 0
 1797.06933594 924.6796875 1735.94140625 825.670898438 1655.45960802 721.4375 c 1
 1651.7956795 717.049804688 l 1
 1528.79368873 623.588368785 1418.75873806 551.708148587 1275.09420104 477.684570312 c 0
 1058.17696206 365.91796875 849.719491177 266.286132812 616.013646016 149.33984375 c 1
 596.017254577 52.828125 583.137542739 -34.23828125 569.286414695 -136.958984375 c 2
 561.845577728 -195.454101562 l 1
1294.68935535 899.078125 m 0
 1324.72089856 930.002929688 1332.57036386 951.657226562 1332.98215986 958.983398438 c 1
 1320.11723045 970.3203125 1246.04780057 984 1177.3148245 984 c 0
 1055.41792885 984 945.595103126 970.389648438 823.66125143 952.1796875 c 1
 717.776884889 532.268554688 l 1
 875.74183076 615.215820312 1024.99570739 697.909179688 1153.19519362 785.517578125 c 0
 1216.12923728 828.526367188 1263.49000091 866.950195312 1294.68935535 899.078125 c 0
EndSplineSet
EndChar

StartChar: q
Encoding: 113 113 77
Width: 2218
Flags: HW
LayerCount: 2
Fore
SplineSet
2156.54882812 756.111328125 m 1
 2108.06515238 525.088064794 1996.7953098 354.204688216 1848.17613914 204.02734375 c 1
 2074.29199219 120.646484375 l 1
 1703.59464827 -234.708984375 l 1
 1371.37770957 -116.499023438 l 1
 1195.82452742 -194.705078125 1019.52044053 -234 841.163880723 -234 c 0
 275.8609078 -234 100.4071704 103.630780572 62 546.885742188 c 1
 85.8002801917 756.880229582 178.387351366 928.78455352 288.528320312 1066.69140625 c 1
 473.159031247 1284.69042969 743.823683587 1464.10351562 1078.75848023 1545.67480469 c 1
 1182.91105193 1572.49414062 1287.54962586 1586 1392.22783087 1586 c 0
 1965.425083 1586 2125.64985771 1207.8779904 2156.54882812 756.111328125 c 1
541.068977638 319 m 0
 541.068977638 170.283900114 674.364112619 81.9726302225 827.995931968 72.001953125 c 1
 878.592309749 72.12890625 925.750169628 76.7763671875 969.630121781 84.8583984375 c 1
 799.907923427 328.271484375 l 1
 875.905739498 344.694335938 l 2
 993.61644053 370.129751582 1114.23467116 395.989202598 1236.88754392 418.672851562 c 1
 1311.75829823 379.388998129 1391.43164504 340.907215135 1462.30810051 311.412109375 c 1
 1560.84348767 381.825195312 1638.02502162 475.3359375 1674.70776053 594.162109375 c 0
 1686.51156569 632.401367188 1692.32273396 670.514648438 1692.32273396 709 c 0
 1692.32273396 874.138285401 1558.962784 952 1383.68420374 952 c 0
 1245.14958178 952 1112.82869644 916.775390625 1005.1729456 872.333984375 c 0
 814.404556381 793.583007812 653.008014205 669.708007812 577.048786293 496.159179688 c 0
 553.140814073 441.537109375 541.068977638 382.919921875 541.068977638 319 c 0
EndSplineSet
EndChar

StartChar: r
Encoding: 114 114 78
Width: 1962
Flags: HW
LayerCount: 2
Fore
SplineSet
262.325195312 824.234375 m 1
 253.255859375 900.96875 l 2
 235.971679688 1047.20507812 235.35546875 1209.69726562 223.1015625 1355.60644531 c 2
 219.721679688 1395.86328125 l 1
 261.346679688 1405.83789062 l 1
 477.128304791 1454.95996094 679.415725564 1493.75976562 863.203911655 1522.21484375 c 1
 1047.69943691 1552.60058594 1210.36954929 1568 1351.91632503 1568 c 0
 1506.09027613 1568 1638.44560871 1551.27458989 1761.90625 1521.16308594 c 1
 1772.00585938 1511.0625 l 1
 1889.61454158 1400.04270881 1968.82162228 1264.72262073 1985.72949219 1071.67675781 c 1
 1961.87578378 1012.97584418 1929.34560982 961.213558871 1878.98046875 904.666015625 c 0
 1761.8359375 773.140625 1600.95444329 667.354492188 1423.72493323 562.104492188 c 0
 1344.39979389 514.99609375 1255.23821937 464.518554688 1159.93900404 412.676757812 c 1
 1817.18066406 207.766601562 l 1
 1480.86362201 -207.717773438 l 1
 1440.57476246 -192.022460938 l 2
 1184.75060916 -92.36328125 939.576541567 0.40234375 688.449036063 106.548828125 c 1
 629.163067691 89.625 l 1
 616.844629941 16.65625 605.590358692 -52.48828125 600.544251662 -126.231445312 c 2
 596.486524795 -185.516601562 l 1
 533.936480933 -172.822265625 l 2
 430.834430512 -151.897460938 251.043945312 -176.375976562 129.2890625 -139.849609375 c 2
 82 -125.662109375 l 1
 94.64453125 -77.9375 l 1
 177.572265625 216.291015625 246.442382812 524.400390625 310.853515625 853.478515625 c 1
 262.325195312 824.234375 l 1
1357.08032192 963.592773438 m 1
 1357.08032192 963.592773438 1336.93483956 994 1199.93945447 994 c 0
 1084.60317334 994 972.508863356 976.822265625 852.028584509 959.77734375 c 1
 818.89311323 821.93359375 784.001925112 687.909179688 745.558252382 541.415039062 c 1
 894.542615162 620.900390625 1036.16938759 701.961914062 1158.37380564 784.697265625 c 0
 1223.18901895 828.579101562 1273.89428967 868.12109375 1309.99911179 902.233398438 c 0
 1341.60833042 932.096679688 1354.82673094 955.146484375 1357.08032192 963.592773438 c 1
EndSplineSet
EndChar

StartChar: s
Encoding: 115 115 79
Width: 2052
Flags: HW
LayerCount: 2
Fore
SplineSet
1070.95373174 944.08203125 m 1
 1147.26712436 936.244140625 1223.15199759 929.645507812 1300.42586471 921.264648438 c 1
 1300.42586471 944 l 2
 1300.42586471 966.658203125 1307.05841605 1008.44824219 1306.9212054 1041.63769531 c 1
 1223.95520758 1021.36425781 1138.23971959 982.576171875 1070.95373174 944.08203125 c 1
1942.96582031 1103.79199219 m 2
 1786.60742188 1019.78027344 1612.69512087 953.899414062 1413.44627044 898.106445312 c 1
 1624.9163672 870.107421875 1825.59082031 820.927734375 1924.63378906 675.392578125 c 0
 1958.92089844 625.010742188 1975.20507812 564.99609375 1976.70214844 495.891601562 c 1
 1976.70214844 431.025390625 1956.1484375 369.462890625 1917.53710938 310.830078125 c 0
 1791.76757812 119.84375 1540.75874772 -3.662109375 1296.33382118 -85.13671875 c 1
 1149.94062095 -136.92578125 970.721357833 -184 783.804577711 -184 c 0
 582.073270131 -184 400.57736583 -153.549804688 222.215820312 -127.447265625 c 2
 122 -112.577148438 l 1
 193.639648438 -40.9375 l 2
 296.171875 61.595703125 382.003266783 181.908203125 486.631658561 321.994140625 c 2
 516.6976766 362.249023438 l 1
 561.412513861 336.120117188 l 2
 626.403917594 298.141601562 716.800399408 277 830.278877588 277 c 0
 986.171276111 277 1130.02396854 308.923828125 1243.68398695 349.0625 c 0
 1311.78901679 373.114257812 1371.27088552 401.579101562 1405.888075 433.485351562 c 0
 1417.64174968 444.319335938 1418.23386638 449.524414062 1418.23386638 449.524414062 c 1
 1417.69030114 525.216796875 1238.12801142 541.729492188 1045.35761423 541.729492188 c 0
 910.836300911 541.729492188 761.962754455 534.350585938 621.684926979 534.350585938 c 0
 529.929004344 534.350585938 444.22618195 537.34765625 362.227539062 547.772460938 c 2
 329.698242188 552.217773438 l 1
 267.19140625 754.014648438 l 1
 261.810524493 825.916325042 254.289365016 905.362667053 248.822265625 978.479492188 c 2
 246.848632812 1004.88476562 l 1
 270.291015625 1020.1484375 l 1
 581.415714516 1212.32421875 967.227763797 1374.90820312 1373.04934653 1489.48925781 c 1
 1524.94891538 1534.61816406 1670.45974564 1577.55761719 1821.21972656 1614.44921875 c 1
 1869.89648438 1626.73632812 l 1
 1882.94824219 1578.25878906 l 1
 1922.09765625 1441.24707031 1929.72070312 1278.32714844 1966.66210938 1158.98925781 c 2
 1977.93261719 1122.57910156 l 1
 1942.96582031 1103.79199219 l 2
EndSplineSet
EndChar

StartChar: t
Encoding: 116 116 80
Width: 1718
Flags: HW
LayerCount: 2
Fore
SplineSet
1723.98144531 1595.24511719 m 1
 1721.09179688 1534.57421875 l 2
 1713.56738281 1385.61328125 1679.14941406 1228.5703125 1679.14941406 1088.1484375 c 2
 1679.14941406 1051.13378906 l 1
 1641.18847656 1041.66992188 l 2
 1479.2734375 1001.30371094 1298.18505023 969.043945312 1097.38385473 945.034179688 c 1
 959.429642214 419.815429688 l 1
 906.92220145 208.521484375 870.453389369 22.673828125 848.808611537 -142.715820312 c 1
 841.76567302 -199.802734375 l 1
 780.212334581 -186.561523438 l 2
 673.284532877 -163.816158582 474.793703807 -181.971253995 360.182719328 -152.038085938 c 2
 307.892132276 -138.379882812 l 1
 321.494094378 -90.244140625 l 1
 413.547960733 216.38671875 487.978991243 531.434570312 561.624861764 869.046875 c 1
 400.564512418 842.349609375 256.498046875 816.469726562 116.01953125 784.82421875 c 2
 44 768.600585938 l 1
 53.578125 837.720703125 l 2
 72.1103515625 971.463867188 79.873046875 1105.15722656 99.41015625 1286.29882812 c 2
 103.247070312 1321.86816406 l 1
 140.549804688 1328.59765625 l 1
 536.267932962 1396.17382812 936.811693293 1468.72851562 1378.58863789 1545.20898438 c 1
 1483.40722656 1560.40917969 1569.04101562 1575.5703125 1663.72460938 1587.59375 c 2
 1723.98144531 1595.24511719 l 1
EndSplineSet
EndChar

StartChar: u
Encoding: 117 117 81
Width: 1917
Flags: HW
LayerCount: 2
Fore
SplineSet
275.118164062 1532.98632812 m 1
 325.001953125 1523.00976562 l 1
 446.139609131 1500.34960938 584.281088169 1494.50683594 750.076708997 1489.97753906 c 2
 819.884164938 1488.0703125 l 1
 801.889429398 1431.296875 l 2
 728.167399293 1198.70017632 613.937234325 955.573237994 613.937234325 648.413085938 c 0
 613.937234325 545.173828125 640.784218799 467.421875 687.460579851 436.127929688 c 0
 699.611369312 427.981445312 714.857321079 423 739.760560574 423 c 0
 862.653969322 423 943.56990134 463.458984375 1013.43879445 521.04296875 c 0
 1043.41907465 545.752929688 1073.22881373 579.7265625 1099.73895303 620.0859375 c 1
 1214.37329932 857.912109375 1284.61611176 1157.09277344 1340.13306987 1488.12597656 c 1
 1351.29133124 1561.02734375 l 1
 1421.39961747 1525.77246094 l 2
 1443.74474027 1514.53515625 1509.89562528 1504.19335938 1567.20485396 1497.0390625 c 0
 1659.546875 1486.13964844 1773.80273438 1479.24121094 1850.35839844 1429.90136719 c 0
 1875.06260522 1413.97973414 1898 1388.03442727 1898 1348.62011719 c 0
 1898 883.178710938 1749.45507812 517.4375 1508.31732554 260.357421875 c 1
 1366.78620948 114.451171875 1192.36396243 -10.3818359375 973.317143991 -76.6455078125 c 1
 878.346929471 -107.237304688 785.87975004 -123 696.373206695 -123 c 0
 406.115410735 -123 222.739257812 2.4072265625 143.520507812 192.353515625 c 0
 114.004882812 263.123046875 100 344.095703125 100 434.588867188 c 0
 100 597.672851562 125.595703125 762.869140625 151.647460938 915.16796875 c 0
 183.640625 1102.20410156 225.485351562 1299.67871094 265.015625 1483.12792969 c 1
 275.118164062 1532.98632812 l 1
EndSplineSet
EndChar

StartChar: v
Encoding: 118 118 82
Width: 1764
Flags: HW
LayerCount: 2
Fore
SplineSet
565.349693551 -399.30859375 m 1
 479.807069566 27.0595703125 l 1
 467.583048062 55.150390625 465.034648556 76.4619140625 459.709174297 97.0908203125 c 2
 90 1561.34863281 l 1
 655.235020034 1518.5234375 l 1
 660.542412995 1476.93457031 l 2
 694.661823576 1209.53027344 725.525536792 950.788085938 758.42924594 687.37109375 c 1
 1317.73380313 1603.74511719 l 1
 1827.88574219 1352.54199219 l 1
 565.349693551 -399.30859375 l 1
EndSplineSet
EndChar

StartChar: w
Encoding: 119 119 83
Width: 2420
Flags: HW
LayerCount: 2
Fore
SplineSet
1950.10525732 1551.30566406 m 2
 1982.9504771 1546.12402344 2033.39580805 1545 2081.73576877 1545 c 0
 2136.32375864 1545 2197.66503906 1547 2251.80566406 1547 c 0
 2297.74707031 1547 2347.09960938 1546.62792969 2389.54394531 1539.24609375 c 2
 2441.38769531 1530.22949219 l 1
 2048.46658664 -233.919921875 l 1
 1995.15460999 -222.806640625 l 2
 1842.89642165 -191.068359375 1702.36579537 -160.638671875 1557.01994702 -122.111328125 c 2
 1535.59489081 -116.431640625 l 1
 1524.64717191 -98.0947265625 l 2
 1487.99763786 -36.708984375 1452.6499055 30.083984375 1419.6437657 92.572265625 c 1
 1138.10903694 464.311523438 l 1
 362.043368214 -274.333007812 l 1
 36 -34.2470703125 l 1
 188.956054688 625.469726562 l 2
 251.575195312 898.55078125 300.569858353 1161.13574219 343.588111562 1435.34375 c 2
 351.328777032 1484.6875 l 1
 406.581077745 1475.17773438 l 2
 436.23574871 1470.07324219 481.029279807 1469 526.86879102 1469 c 0
 578.571567495 1469 637.215567045 1471 691.650889206 1471 c 0
 738.906702883 1471 787.560251329 1470.69140625 831.211869224 1463.17773438 c 2
 887.645281606 1453.46386719 l 1
 676.222166734 644.43359375 l 1
 1320.09616702 1346.56152344 l 1
 1735.48540441 543.443359375 l 1
 1797.35193047 840.322265625 1841.92883846 1153.75878906 1887.7796966 1507.21679688 c 2
 1894.63427043 1560.05859375 l 1
 1950.10525732 1551.30566406 l 2
EndSplineSet
EndChar

StartChar: x
Encoding: 120 120 84
Width: 1988
Flags: HW
LayerCount: 2
Fore
SplineSet
2025.20117188 1269.87402344 m 1
 1986.81445312 1233.9375 l 2
 1766.51020995 1028.46972656 1514.2404441 791.893554688 1277.96748421 583.64453125 c 1
 1392.90115964 405.043945312 1513.31805309 232.66015625 1645.5121267 45.876953125 c 1
 1676.16388929 -0.3837890625 l 1
 1624.8449337 -26 l 2
 1579.04988984 -48.859375 1535.83628867 -73.23046875 1492.26479146 -100.3515625 c 1
 1377.51162919 -184.586914062 l 1
 1322.30860062 -201.806723411 1278.2256735 -219.213240821 1219.58764635 -243.604492188 c 2
 1179.31129708 -260.358398438 l 1
 1153.3873101 -226.997070312 l 2
 1133.79067498 -201.779296875 1113.05252882 -173.936523438 1090.98192417 -141.963867188 c 2
 942.696092571 66.2099609375 l 2
 909.715397037 112.510742188 872.306389941 163.733398438 840.845970077 213.849609375 c 1
 627.338538387 33.36328125 l 1
 523.764671619 -56.412109375 439.181207873 -132.977539062 353.020079876 -221.372070312 c 2
 312.03211221 -263.421875 l 1
 271.854888674 -220.692382812 l 2
 194.307683303 -138.218220212 51.85308032 -56.1658491084 -26.1806640625 36.056640625 c 1
 -58 71.3701171875 l 1
 -21.521484375 102.458007812 l 2
 183.983398438 277.590820312 384.077736247 443.36328125 585.00454765 616.69140625 c 1
 552.829379101 668.534179688 l 1
 426.280254963 896.034179688 296.395289151 1138.72265625 157.13671875 1343.70996094 c 1
 126.487304688 1391.19921875 l 1
 181.013671875 1412.69140625 l 1
 334.864419844 1469.62011719 470.540415149 1529.79492188 635.208077925 1607.8828125 c 1
 684.682251512 1632.8671875 l 1
 709.823666941 1585.80761719 l 2
 727.887505245 1551.99511719 750.621730577 1504.27636719 778.632575034 1441.76269531 c 2
 867.310453146 1244.77539062 l 2
 910.689073812 1148.10998423 957.22663293 1045.27521775 1005.05556764 957.19140625 c 1
 1162.08115834 1118.76855469 1324.12251098 1299.09082031 1479.70921346 1460.19726562 c 0
 1513.58204056 1495.27246094 1541.84435135 1523.44335938 1564.94377674 1545.0625 c 2
 1606.82074569 1584.25488281 l 1
 1645.07388663 1541.94335938 l 1
 1673.53444887 1512.47265625 1713.37881864 1483.14355469 1753.51847874 1460.21972656 c 1
 1867.63476562 1400.88085938 l 1
 1907.51367388 1370.33822672 1946.04318773 1335.26107983 1984.49511719 1303.49902344 c 2
 2025.20117188 1269.87402344 l 1
EndSplineSet
EndChar

StartChar: y
Encoding: 121 121 85
Width: 1958
Flags: HW
LayerCount: 2
Fore
SplineSet
78.0390625 1347.34277344 m 1
 131.586914062 1371.12890625 l 2
 269.030672544 1432.14257812 409.335844041 1499.70996094 564.849178634 1582.55761719 c 1
 616.437797142 1611.86621094 l 1
 642.575486137 1561.06933594 l 2
 750.0373523 1352.23093255 871.559381779 1120.80097727 993.484455958 923.173828125 c 1
 1182.14231066 1128.6640625 1369.25705031 1364.83886719 1562.12968195 1568.74316406 c 2
 1603.15727965 1612.11816406 l 1
 1644.14928311 1568.71289062 l 2
 1666.15803868 1545.40787934 1694.04512564 1525.87995654 1728.62593381 1509.46582031 c 1
 1868.23046875 1429.76953125 l 1
 1911.3805338 1399.19705067 1946.27821241 1371.09177183 1990.26953125 1336.07910156 c 2
 2031.89550781 1302.94921875 l 1
 1348.16536848 658.450195312 l 1
 1205.64079134 536.547851562 l 1
 952.164776103 275.109375 729.418107003 22.4599609375 506.688188135 -247.034179688 c 1
 472.32613559 -291.024414062 l 1
 427.500422955 -256.1796875 l 2
 390.833119833 -227.67578125 331.024325333 -197.557617188 273.769941101 -166.63671875 c 1
 204.361328125 -126.686523438 130.768554688 -80.9912109375 65.5595703125 -28.82421875 c 2
 22 6.0234375 l 1
 60.6025390625 46.29296875 l 1
 242.068359375 223.8046875 427.397827788 398.249023438 619.714561132 580.15234375 c 1
 447.011301706 832.64453125 279.613678033 1067.22265625 111.091796875 1301.22949219 c 2
 78.0390625 1347.34277344 l 1
EndSplineSet
EndChar

StartChar: z
Encoding: 122 122 86
Width: 2268
Flags: HW
LayerCount: 2
Fore
SplineSet
183.403320312 -243.651367188 m 1
 168.573242188 -205.462890625 l 1
 115.182617188 -75.458984375 62.849609375 38.7294921875 8.5732421875 170.887695312 c 2
 -6 206.372070312 l 1
 1176.59680369 943.760742188 l 1
 901.139195279 905.168945312 641.148776736 862.126953125 384.030332716 808.965820312 c 2
 316.86241737 795.078125 l 1
 324.531729841 1398.42871094 l 1
 369.755478843 1404.75488281 l 2
 807.769955684 1466.0234375 1242.97777728 1522.88183594 1697.08256915 1567.67871094 c 1
 1808.09838144 1579.69726562 1913.53613491 1587.24121094 2021.79785156 1591.94726562 c 2
 2066.37890625 1593.97363281 l 1
 2120.89941406 1310.22265625 l 1
 2174.49902344 1214.94140625 l 1
 2240.74902344 1058.15039062 l 1
 1020.02546194 330.44140625 l 1
 1946.96923616 445.328125 l 1
 1993.4184992 19.9453125 l 1
 183.403320312 -243.651367188 l 1
EndSplineSet
EndChar

StartChar: copyright
Encoding: 169 169 88
Width: 2014
Flags: HW
LayerCount: 2
Fore
SplineSet
14.5969312219 554.802976958 m 1
 20.7136572062 597.620058848 27.4749068751 633.434690164 38.5335991927 672.506338632 c 1
 84.3796344526 878.460523427 183.273926025 1057.15513425 296.252461238 1202.32308452 c 0
 469.326766499 1424.70906334 710.339997127 1616.35010773 1014.8190381 1704.48877748 c 0
 1107.88235978 1731.42816008 1201.77192356 1745 1296 1745 c 0
 1668.62064716 1745 1859.83908651 1519.95158659 1948.07649374 1244.03461475 c 0
 1989.59911637 1114.19403289 2010.67038407 963.701316754 2015.12679637 806.241415363 c 1
 1975.59343682 582.725882553 1878.5431172 393.345776904 1761.63687685 239.183701721 c 0
 1639.74611635 78.4486329204 1480.37097292 -63.0582585727 1301.46158264 -163.473805686 c 0
 1151.07472821 -247.880656791 965.352405323 -319 746 -319 c 0
 194.54321994 -319 65.9738991466 92.4102656329 14.5969312219 554.802976958 c 1
1689 976.000000001 m 0
 1689 1159.0160858 1554.95967894 1234 1325 1234 c 0
 1173.75923422 1234 1036.3980352 1179.11846756 922.355674123 1115.4669172 c 0
 712.65848453 998.426625331 536.366452208 819.52281971 450.929464598 584.571103783 c 0
 423.655657518 509.568134312 410.000000001 431.032402184 410 348 c 0
 410 102.534196351 528.149312376 12 796 12 c 0
 934.984402159 12 1065.54052622 69.4226341842 1173.06889732 132.91557712 c 0
 1385.9377172 258.609546954 1561.81021178 453.591795561 1646.65335246 706.235814473 c 0
 1674.79315487 790.029892773 1689 879.697147838 1689 976.000000001 c 0
1173.07375922 580 m 1
 1160.5 580 l 2
 1149.66105737 580 1138.44270558 580.372818611 1126.81870741 581.099318496 c 2
 1069.17598916 584.701988382 l 1
 1079.88425566 641.455800824 l 2
 1085.2374844 669.827913138 1088.08954109 694.272751053 1088.8210793 713.439051955 c 1
 1055.8698951 705.612669869 1026.00229197 692.069806362 997.338459964 676.914217024 c 0
 916.573122935 634.210705492 844.539561629 571.60322553 810.03797555 494.638148891 c 0
 799.794300433 471.786873629 795 449.402936606 795 426 c 0
 795 389.466984301 801.175465505 376.000000001 864 376 c 0
 917.846003191 376 968.419910463 391.205832779 1018.78392487 423.811437482 c 0
 1071.38510979 457.865383787 1123.68925245 511.374776307 1173.07375922 580 c 1
1264.89265596 582.120164653 m 1
 1525.70838247 512.419410155 l 1
 1483.72777654 452.677778647 l 2
 1381.54407919 307.262517044 1232.36576066 189.358838014 1037.21694383 139.11093907 c 0
 977.355192712 123.697434291 915.822120087 116.000000001 853 116 c 0
 622.393224753 116 510 268.587265083 510 491 c 0
 510 597.922816927 558.431318997 688.751178297 600.830501604 756.155007056 c 0
 683.496308498 887.572443656 808.387475547 1006.68655015 965.715187431 1067.10951196 c 0
 1017.19122234 1086.87929349 1070.28867598 1097 1124 1097 c 0
 1326.15569617 1097 1473 1024.34387398 1473 799 c 0
 1473 691.102954798 1441.80670151 608.808876767 1325.14715407 588.738416991 c 0
 1307.50005592 585.702357095 1287.33698978 583.556513628 1264.89265596 582.120164653 c 1
EndSplineSet
EndChar

StartChar: registered
Encoding: 174 174 89
Width: 2016
Flags: HW
LayerCount: 2
Fore
SplineSet
1108 1773 m 0
 1261.02691717 1773 1390.3345804 1723.31018559 1500.18122615 1636.03476842 c 1
 1732.89834253 869.3149832 l 1
 1724.54092196 835.885300948 1720.74850312 807.873659325 1709.31359357 764.992748506 c 0
 1638.45671761 493.374723986 1505.07521692 278.372721927 1325.84202686 101.718426681 c 0
 1115.56109065 -106.49417245 882.073638315 -215 630 -215 c 0
 457.092475868 -215 313.983648146 -153.309526551 197.05787889 -41.5970081533 c 1
 -1.9097251862 617.48318035 l 1
 41.91348094 982.1548599 195.426930539 1242.07061371 412.132634616 1456.25648402 c 0
 622.463893927 1664.51891127 855.916068976 1773 1108 1773 c 0
673.112268619 835.371209333 m 1
 587.934878372 744.368711338 496.616885172 613.974148669 455.691494189 495.809287378 c 0
 433.613702349 432.063550376 423 371.950090415 423 314.999999999 c 0
 423 175.776721471 467.537704415 123 594 123 c 0
 652.022166352 123 717.515098223 140.622709496 790.606542253 179.023311328 c 1
 600.637704165 263.739144529 l 1
 648.746385354 527.445989564 l 1
 604.50953725 521.126439835 l 1
 673.112268619 835.371209333 l 1
855.956170271 217.716771869 m 1
 862.044332254 221.710054704 869.707750855 226.879272154 874.895357395 230.453798712 c 1
 858.859957101 232.719670492 l 1
 855.956170271 217.716771869 l 1
1174.91578708 539.454692332 m 1
 1150.66290183 515.656825517 1122.4846457 491.582599855 1093.05143366 469.150622468 c 1
 1121.87325533 464.858010729 l 1
 1141.45194777 490.752663712 1158.72795075 515.080728635 1174.91578708 539.454692332 c 1
1237.09950073 645.006757372 m 1
 1276.0210045 721.534309389 1309 829.634134719 1309 913 c 0
 1309 1054.58551911 1258.42865324 1105 1138 1105 c 0
 997.432757534 1105 857.136470646 1002.74863887 766.564000615 925.033609298 c 1
 848.870893061 941.414031384 928.585220724 955 1018 955 c 0
 1062.624278 955 1106.68762611 950.672473816 1150.00192289 942.00961446 c 2
 1183.92992707 935.224013625 l 1
 1237.09950073 645.006757372 l 1
EndSplineSet
EndChar

StartChar: quoteleft
Encoding: 8216 8216 93
Width: 754
Flags: HW
LayerCount: 2
Fore
SplineSet
777.286552269 941.852617746 m 2
 672.793994318 922.502144051 575.550953394 878.180718892 463.613548782 825.806336917 c 2
 423.058196841 806.830897017 l 1
 398.992735294 844.588776341 l 2
 326.099944049 958.95505226 259.744117771 1077.08382245 210.220256516 1210.7280577 c 1
 155.493481885 1292.81821965 l 1
 151.884475966 1314.47225516 148.999999999 1338.15680408 149 1362 c 0
 149 1376.01158854 148.487158141 1389.79525439 147.595919383 1402.37622942 c 1
 124.846596171 1476.47316747 105.961539576 1553.84094756 97.2531032993 1640.92531033 c 2
 91.8073607205 1695.38273612 l 1
 687.863759865 1712.76771443 l 1
 678.388613721 1652.12677911 l 2
 672.496698797 1614.41852359 669 1575.55684402 669 1534 c 0
 669 1327.0480241 727.869254622 1172.07772793 812.772674219 1016.42145866 c 2
 846.459428256 954.662409595 l 1
 777.286552269 941.852617746 l 2
EndSplineSet
EndChar

StartChar: quoteright
Encoding: 8217 8217 94
Width: 840
Flags: HW
LayerCount: 2
Fore
SplineSet
24.655359351 1039.86001825 m 2
 88.2635787632 1127.93293744 144.913712495 1219.08221977 192.125083912 1316.2821021 c 2
 206.073777178 1345 l 1
 225.112098586 1345 l 1
 280.741102158 1454.14995111 318.770075954 1562.13333048 339.95908272 1669.84411488 c 2
 348.297835475 1712.23277471 l 1
 947.45672474 1694.82981942 l 1
 919.110847792 1626.46623384 l 2
 832.200788676 1416.85962068 707.645423878 1223.93072968 582.609307657 1047.50990817 c 0
 533.452920463 978.152265959 481.958573908 909.157901575 428.129524285 840.525863306 c 2
 406.372190966 812.785263324 l 1
 372.733656199 823.338529133 l 2
 260.039808393 858.693461778 159.955710869 908.081615605 43.8507415312 964.06079725 c 2
 -10.9916264749 990.502653253 l 1
 24.655359351 1039.86001825 l 2
EndSplineSet
EndChar

StartChar: quotedblleft
Encoding: 8220 8220 95
Width: 1364
Flags: HW
LayerCount: 2
Fore
SplineSet
1266.17736542 1646.87684265 m 2
 1262.04021582 1624.1225199 1259.81438763 1598.99231931 1257.01161703 1573.30534442 c 1
 1257.4040344 1533.56350693 1266.02020329 1513.02747956 1282.48969745 1475.97111771 c 1
 1289.79177581 1321.96364678 1326.64285091 1175.34576957 1400.00548893 1022.01124686 c 2
 1424.18466652 971.474587389 l 1
 982.191725101 808.902471004 l 1
 961.163423731 847.696061461 l 2
 859.930769873 1034.45285392 771.354015401 1235.5701484 716.443253319 1461.45305605 c 0
 701.380859436 1523.41426725 690.337791711 1582.12252115 683.393828289 1637.67422854 c 2
 676.405367882 1693.58191181 l 1
 1277.38960767 1708.54417504 l 1
 1266.17736542 1646.87684265 l 2
656.79055353 1607.38267695 m 2
 654.075459497 1577.5166426 650 1551.30812882 650 1528 c 0
 650 1510.13951661 660.773417799 1473.12919658 674.730061178 1441.30804968 c 1
 678.71295015 1283.98393528 715.156514463 1135.70534277 791.731951415 980.574069634 c 2
 816.756974165 929.876825271 l 1
 371.675410102 764.560815762 l 1
 350.831178044 804.319258392 l 2
 282.428422184 934.791181607 219.299676131 1059.14494304 165.964183223 1202.8544656 c 1
 122.147689618 1330.65257195 91.5912245352 1452.73492968 75.3335985565 1594.1762757 c 2
 68.9642003583 1649.59004002 l 1
 661.975339124 1664.41531849 l 1
 656.79055353 1607.38267695 l 2
EndSplineSet
EndChar

StartChar: quotedblright
Encoding: 8221 8221 96
Width: 1438
Flags: HW
LayerCount: 2
Fore
SplineSet
825.714113517 1299 m 1
 878.375684353 1398.57375399 914.194630137 1499.06236357 937.92922762 1621.69111723 c 2
 946.129313342 1664.0582268 l 1
 1545.58287811 1649.13407166 l 1
 1517.11084779 1580.46623384 l 2
 1430.39654045 1371.3317279 1308.70438824 1181.01392598 1183.60930766 1004.50990816 c 0
 1134.43441673 935.126157964 1082.59303467 865.781862861 1028.08872585 796.473914619 c 2
 1006.4534559 768.962398498 l 1
 972.519172154 779.403716572 l 2
 859.046765705 814.428299886 759.69636527 863.787271741 644.364532724 917.816598699 c 2
 588.601786724 943.939686915 l 1
 624.655359351 993.860018245 l 2
 689.413697634 1083.52540972 747.487366888 1171.52707001 793.883319016 1269.77732158 c 2
 807.682917161 1299 l 1
 825.714113517 1299 l 1
364.191975577 822.904802052 m 2
 247.919139139 855.6065373 143.086379575 906.992747023 35.3807947305 960.290356018 c 2
 -17.674915059 986.544727872 l 1
 16.1396004314 1035.13257537 l 2
 83.5237809506 1131.95644641 138.810629678 1225.0672577 182.121351583 1314.27441626 c 2
 196.067830646 1343 l 1
 215.381250902 1343 l 1
 273.135509327 1454.45084423 309.583222181 1559.81572889 327.748031705 1664.70285484 c 2
 335.258696124 1708.07088488 l 1
 941.258083194 1693.10793705 l 1
 910.69784554 1623.49850684 l 2
 784.263587614 1335.50936378 603.628765539 1072.39612289 417.824309281 840.140552575 c 2
 396.717472137 813.757006145 l 1
 364.191975577 822.904802052 l 2
EndSplineSet
EndChar

StartChar: ellipsis
Encoding: 8230 8230 97
Width: 1918
Flags: HW
LayerCount: 2
Fore
SplineSet
1436 442 m 0
 1585.69573009 442 1706.10542015 378.475688665 1751.76978476 248.507881707 c 1
 1742.64183214 144.781147354 1712.84658884 57.1818323179 1663.90874499 -25.450920401 c 1
 1618.28192939 -46.9730032355 1566.69870118 -62 1510 -62 c 0
 1363.67248497 -62 1246.17892916 8.92377149442 1202.52409565 132.612466461 c 1
 1208.50111942 242.760475904 1244.64021264 333.579357342 1306.23336508 419.169841916 c 1
 1345.27560171 432.183920795 1386.54767983 442 1436 442 c 0
964.999999995 -53 m 0
 829.942982133 -53 680.722013763 -15.7418834708 642.766466956 124.693639718 c 2
 640.36765287 133.569251835 l 1
 649.742493316 234.348786626 680.404237495 322.32794436 738.165150059 405.169253168 c 2
 751.055430516 423.656629088 l 1
 773.403701612 426.57162097 l 2
 803.501902745 430.497473293 835.351592987 434 871 434 c 0
 1006.16080056 434 1153.05416693 392.142282821 1191.17447503 253.522980636 c 2
 1193.8782499 243.691072042 l 1
 1181.81213055 148.670382235 1157.23073447 64.4276531501 1114.9040261 -14.1790909732 c 2
 1103.89982927 -34.6154565146 l 1
 1081.26210828 -39.7409782474 l 2
 1042.42585786 -48.5340915516 1003.59424161 -53 964.999999995 -53 c 0
302 432 m 0
 454.717349547 432 585.157382488 385.133712818 631.515056245 242.494716645 c 1
 624.856092572 137.616038802 593.169849582 56.8860097848 554.904026096 -14.1790909748 c 2
 544.840508732 -32.8684803651 l 1
 524.488504814 -38.8987037482 l 2
 486.852501285 -50.0501122012 444.088923181 -58 396 -58 c 0
 256.450918918 -58 128.070240367 -6.66795321497 83.8835328778 119.094214254 c 2
 80.198579557 129.582158321 l 1
 89.6150703819 232.378849826 119.087053144 320.638063789 176.05409054 403.009320564 c 2
 188.608126091 421.161777375 l 1
 210.938425217 424.511322244 l 2
 239.806432678 428.816270383 267.913654683 432 302 432 c 0
EndSplineSet
EndChar

